<svg viewBox="0 0 330 200" xmlns="http://www.w3.org/2000/svg"><g><g><g><g><g><line x1="51.5625" y1="177" x2="46.5625" y2="177" style="visibility: inherit;" fill="rgb(0, 0, 0)" stroke="rgb(204, 204, 204)" stroke-width="1px"></line><line x1="51.5625" y1="160.9090909090909" x2="46.5625" y2="160.9090909090909" style="visibility: inherit;" fill="rgb(0, 0, 0)" stroke="rgb(204, 204, 204)" stroke-width="1px"></line><line x1="51.5625" y1="144.8181818181818" x2="46.5625" y2="144.8181818181818" style="visibility: inherit;" fill="rgb(0, 0, 0)" stroke="rgb(204, 204, 204)" stroke-width="1px"></line><line x1="51.5625" y1="128.72727272727272" x2="46.5625" y2="128.72727272727272" style="visibility: inherit;" fill="rgb(0, 0, 0)" stroke="rgb(204, 204, 204)" stroke-width="1px"></line><line x1="51.5625" y1="112.63636363636364" x2="46.5625" y2="112.63636363636364" style="visibility: inherit;" fill="rgb(0, 0, 0)" stroke="rgb(204, 204, 204)" stroke-width="1px"></line><line x1="51.5625" y1="96.54545454545453" x2="46.5625" y2="96.54545454545453" style="visibility: inherit;" fill="rgb(0, 0, 0)" stroke="rgb(204, 204, 204)" stroke-width="1px"></line><line x1="51.5625" y1="80.45454545454547" x2="46.5625" y2="80.45454545454547" style="visibility: inherit;" fill="rgb(0, 0, 0)" stroke="rgb(204, 204, 204)" stroke-width="1px"></line><line x1="51.5625" y1="64.36363636363636" x2="46.5625" y2="64.36363636363636" style="visibility: inherit;" fill="rgb(0, 0, 0)" stroke="rgb(204, 204, 204)" stroke-width="1px"></line><line x1="51.5625" y1="48.272727272727266" x2="46.5625" y2="48.272727272727266" style="visibility: inherit;" fill="rgb(0, 0, 0)" stroke="rgb(204, 204, 204)" stroke-width="1px"></line><line x1="51.5625" y1="32.18181818181817" x2="46.5625" y2="32.18181818181817" style="visibility: inherit;" fill="rgb(0, 0, 0)" stroke="rgb(204, 204, 204)" stroke-width="1px"></line><line x1="51.5625" y1="16.090909090909097" x2="46.5625" y2="16.090909090909097" style="visibility: inherit;" fill="rgb(0, 0, 0)" stroke="rgb(204, 204, 204)" stroke-width="1px"></line><line x1="51.5625" y1="0" x2="46.5625" y2="0" style="visibility: inherit;" fill="rgb(0, 0, 0)" stroke="rgb(204, 204, 204)" stroke-width="1px"></line></g><g transform="translate(41.5625, 0)"><text x="0" y="177" dx="0em" dy="0.3em" style="text-anchor: end; visibility: hidden; font-family: Roboto, sans-serif; font-size: 12px; font-weight: 200;" fill="rgb(33, 33, 33)" stroke="none" stroke-width="1px">-200</text><text x="0" y="160.9090909090909" dx="0em" dy="0.3em" style="text-anchor: end; visibility: inherit; font-family: Roboto, sans-serif; font-size: 12px; font-weight: 200;" fill="rgb(33, 33, 33)" stroke="none" stroke-width="1px">-150</text><text x="0" y="144.8181818181818" dx="0em" dy="0.3em" style="text-anchor: end; visibility: hidden; font-family: Roboto, sans-serif; font-size: 12px; font-weight: 200;" fill="rgb(33, 33, 33)" stroke="none" stroke-width="1px">-100</text><text x="0" y="128.72727272727272" dx="0em" dy="0.3em" style="text-anchor: end; visibility: inherit; font-family: Roboto, sans-serif; font-size: 12px; font-weight: 200;" fill="rgb(33, 33, 33)" stroke="none" stroke-width="1px">-50</text><text x="0" y="112.63636363636364" dx="0em" dy="0.3em" style="text-anchor: end; visibility: hidden; font-family: Roboto, sans-serif; font-size: 12px; font-weight: 200;" fill="rgb(33, 33, 33)" stroke="none" stroke-width="1px">0</text><text x="0" y="96.54545454545453" dx="0em" dy="0.3em" style="text-anchor: end; visibility: inherit; font-family: Roboto, sans-serif; font-size: 12px; font-weight: 200;" fill="rgb(33, 33, 33)" stroke="none" stroke-width="1px">50</text><text x="0" y="80.45454545454547" dx="0em" dy="0.3em" style="text-anchor: end; visibility: hidden; font-family: Roboto, sans-serif; font-size: 12px; font-weight: 200;" fill="rgb(33, 33, 33)" stroke="none" stroke-width="1px">100</text><text x="0" y="64.36363636363636" dx="0em" dy="0.3em" style="text-anchor: end; visibility: inherit; font-family: Roboto, sans-serif; font-size: 12px; font-weight: 200;" fill="rgb(33, 33, 33)" stroke="none" stroke-width="1px">150</text><text x="0" y="48.272727272727266" dx="0em" dy="0.3em" style="text-anchor: end; visibility: hidden; font-family: Roboto, sans-serif; font-size: 12px; font-weight: 200;" fill="rgb(33, 33, 33)" stroke="none" stroke-width="1px">200</text><text x="0" y="32.18181818181817" dx="0em" dy="0.3em" style="text-anchor: end; visibility: inherit; font-family: Roboto, sans-serif; font-size: 12px; font-weight: 200;" fill="rgb(33, 33, 33)" stroke="none" stroke-width="1px">250</text><text x="0" y="16.090909090909097" dx="0em" dy="0.3em" style="text-anchor: end; visibility: hidden; font-family: Roboto, sans-serif; font-size: 12px; font-weight: 200;" fill="rgb(33, 33, 33)" stroke="none" stroke-width="1px">300</text><text x="0" y="0" dx="0em" dy="0.3em" style="text-anchor: end; visibility: hidden; font-family: Roboto, sans-serif; font-size: 12px; font-weight: 200;" fill="rgb(33, 33, 33)" stroke="none" stroke-width="1px">350</text></g><line x1="51.5625" y1="0" x2="51.5625" y2="177" fill="rgb(0, 0, 0)" stroke="rgb(204, 204, 204)" stroke-width="1px"></line></g></g><g transform="translate(51, 0)" clip-path="url(#clip_0)"><clipPath id="clip_0"><rect width="278" height="177"></rect></clipPath><g><g><g><line x1="0" y1="0" x2="0" y2="177" fill="rgb(0, 0, 0)" stroke="rgb(66, 66, 66)" stroke-width="1px" opacity="0.25"></line><line x1="21.418269230769234" y1="0" x2="21.418269230769234" y2="177" fill="rgb(0, 0, 0)" stroke="rgb(66, 66, 66)" stroke-width="1px" opacity="0.25"></line><line x1="42.83653846153847" y1="0" x2="42.83653846153847" y2="177" fill="rgb(0, 0, 0)" stroke="rgb(66, 66, 66)" stroke-width="1px" opacity="0.25"></line><line x1="64.2548076923077" y1="0" x2="64.2548076923077" y2="177" fill="rgb(0, 0, 0)" stroke="rgb(66, 66, 66)" stroke-width="1px" opacity="0.25"></line><line x1="85.67307692307693" y1="0" x2="85.67307692307693" y2="177" fill="rgb(0, 0, 0)" stroke="rgb(66, 66, 66)" stroke-width="1px" opacity="0.25"></line><line x1="107.09134615384616" y1="0" x2="107.09134615384616" y2="177" fill="rgb(0, 0, 0)" stroke="rgb(66, 66, 66)" stroke-width="1px" opacity="0.25"></line><line x1="128.5096153846154" y1="0" x2="128.5096153846154" y2="177" fill="rgb(0, 0, 0)" stroke="rgb(66, 66, 66)" stroke-width="1px" opacity="0.25"></line><line x1="149.9278846153846" y1="0" x2="149.9278846153846" y2="177" fill="rgb(0, 0, 0)" stroke="rgb(66, 66, 66)" stroke-width="1px" opacity="0.25"></line><line x1="171.34615384615387" y1="0" x2="171.34615384615387" y2="177" fill="rgb(0, 0, 0)" stroke="rgb(66, 66, 66)" stroke-width="1px" opacity="0.25"></line><line x1="192.76442307692307" y1="0" x2="192.76442307692307" y2="177" fill="rgb(0, 0, 0)" stroke="rgb(66, 66, 66)" stroke-width="1px" opacity="0.25"></line><line x1="214.18269230769232" y1="0" x2="214.18269230769232" y2="177" fill="rgb(0, 0, 0)" stroke="rgb(66, 66, 66)" stroke-width="1px" opacity="0.25"></line><line x1="235.60096153846155" y1="0" x2="235.60096153846155" y2="177" fill="rgb(0, 0, 0)" stroke="rgb(66, 66, 66)" stroke-width="1px" opacity="0.25"></line><line x1="257.0192307692308" y1="0" x2="257.0192307692308" y2="177" fill="rgb(0, 0, 0)" stroke="rgb(66, 66, 66)" stroke-width="1px" opacity="0.25"></line><line x1="278.4375" y1="0" x2="278.4375" y2="177" fill="rgb(0, 0, 0)" stroke="rgb(66, 66, 66)" stroke-width="1px" opacity="0.25"></line></g><g><line x1="0" y1="177" x2="278.4375" y2="177" fill="rgb(0, 0, 0)" stroke="rgb(66, 66, 66)" stroke-width="1px" opacity="0.25"></line><line x1="0" y1="160.9090909090909" x2="278.4375" y2="160.9090909090909" fill="rgb(0, 0, 0)" stroke="rgb(66, 66, 66)" stroke-width="1px" opacity="0.25"></line><line x1="0" y1="144.8181818181818" x2="278.4375" y2="144.8181818181818" fill="rgb(0, 0, 0)" stroke="rgb(66, 66, 66)" stroke-width="1px" opacity="0.25"></line><line x1="0" y1="128.72727272727272" x2="278.4375" y2="128.72727272727272" fill="rgb(0, 0, 0)" stroke="rgb(66, 66, 66)" stroke-width="1px" opacity="0.25"></line><line x1="0" y1="112.63636363636364" x2="278.4375" y2="112.63636363636364" fill="rgb(0, 0, 0)" stroke="rgb(66, 66, 66)" stroke-width="1px" opacity="0.25"></line><line x1="0" y1="96.54545454545453" x2="278.4375" y2="96.54545454545453" fill="rgb(0, 0, 0)" stroke="rgb(66, 66, 66)" stroke-width="1px" opacity="0.25"></line><line x1="0" y1="80.45454545454547" x2="278.4375" y2="80.45454545454547" fill="rgb(0, 0, 0)" stroke="rgb(66, 66, 66)" stroke-width="1px" opacity="0.25"></line><line x1="0" y1="64.36363636363636" x2="278.4375" y2="64.36363636363636" fill="rgb(0, 0, 0)" stroke="rgb(66, 66, 66)" stroke-width="1px" opacity="0.25"></line><line x1="0" y1="48.272727272727266" x2="278.4375" y2="48.272727272727266" fill="rgb(0, 0, 0)" stroke="rgb(66, 66, 66)" stroke-width="1px" opacity="0.25"></line><line x1="0" y1="32.18181818181817" x2="278.4375" y2="32.18181818181817" fill="rgb(0, 0, 0)" stroke="rgb(66, 66, 66)" stroke-width="1px" opacity="0.25"></line><line x1="0" y1="16.090909090909097" x2="278.4375" y2="16.090909090909097" fill="rgb(0, 0, 0)" stroke="rgb(66, 66, 66)" stroke-width="1px" opacity="0.25"></line><line x1="0" y1="0" x2="278.4375" y2="0" fill="rgb(0, 0, 0)" stroke="rgb(66, 66, 66)" stroke-width="1px" opacity="0.25"></line></g></g></g><g><g><line x1="0" y1="112.63636363636364" x2="278.4375" y2="112.63636363636364" fill="rgb(0, 0, 0)" stroke="rgb(153, 153, 153)" stroke-width="1.5px"></line></g></g><g><g><line x1="21.418269230769234" y1="0" x2="21.418269230769234" y2="177" fill="rgb(0, 0, 0)" stroke="rgb(153, 153, 153)" stroke-width="1.5px"></line></g></g><g><g><g><g><g><path stroke="rgb(51, 187, 238)" stroke-width="2px" d="M21.535855528846156,143.79739267522638L21.538639903846153,145.80452587415334L21.609106009615385,142.49455896911536L21.658153846153844,152.1398100523226L21.83485456730769,148.60169845360724L21.987352644230768,147.09911499039825L21.999561057692308,158.65090620862875L22.050964903846154,154.56676768496965L22.095300721153848,155.08014309200664L22.183758173076924,151.03714056557774L22.190397836538462,155.57593987470014L22.204748076923078,152.35901229212914L22.61940576923077,149.8899616478369L22.805958894230766,149.56571823723942L22.930399038461537,148.61944947988113L22.952031490384616,147.67683109451073L23.101531009615382,146.5521124266117L23.14758028846154,146.74731481823477L23.23839375,146.48107155676638L23.376541586538462,146.80980007576534L23.403956971153846,144.8080251027271L23.66247548076923,143.47822511735632L23.741294711538462,142.79466215842868L23.76099951923077,143.96499585364526L23.868947596153845,143.6247736871504L24.49157668269231,143.64449398977544L24.834054807692308,141.0076544697945L25.237146634615385,144.3156839373233L25.75653966346154,144.34457033283132L27.34898798076923,143.48395951081474L29.490814903846154,139.60538171954107L30.967604567307692,135.82224171071363L31.016652403846155,132.97689327308L31.418459134615386,130.6741098421328L31.510557692307692,129.06745022210404L32.69862908653846,124.21217357627552L32.82563942307692,120.37416512593111L33.72606346153846,115.6780941248814L34.30564182692308,114.71207853152161L35.221915384615386,109.37953618834389L35.646853846153846,103.65166881438101L35.86938966346154,99.52695612389324L36.08507163461539,96.45436333278741L37.56978605769231,91.9700911782845L38.10352932692308,88.06461317239466L38.159859375,84.08779712968484L39.543907932692306,81.43802309894663L39.83198365384615,78.5242385163477L39.97548605769231,75.61675253889734L40.47967211538461,72.2301528655254L40.665368509615384,69.82277740303792L40.81808076923077,68.0442001416299L41.88728076923077,66.05799366392657L42.578019951923075,64.67648415947936L43.61059471153847,64.44245511550741L43.735677403846154,62.18056343637661L44.08308173076923,59.76120450111856L44.14669399038462,61.259771314011104L44.39728774038461,64.35056253491479L44.91603822115385,65.16460969994047L45.828028124999996,66.16504564311292L46.29151947115385,64.42160565335732L46.48128533653846,62.89989353231827L46.493279567307695,61.87751735874718L46.529904807692304,65.43161638995662L46.7440875,66.43283489479259L46.746871875000004,64.83260412152434L46.84882283653846,62.693137965012234L46.906437980769226,66.7515113092198L47.20950649038461,64.19961696719969L47.33523173076923,67.73750804078787L47.38449375,64.93132999524767L48.64067524038461,64.42253997231892L49.24445625,66.87557120093737L51.38135697115384,64.74108352487599L51.93330576923077,62.67765951384064L51.95558076923077,60.71780813485395L52.49189423076923,58.73386138705916L53.075542067307694,61.962169668176045L53.57373100961538,59.54736449045787L53.68082235576923,58.12694821467441L53.696243509615385,56.46538126371495L53.702454807692305,54.82077353183439L54.14838317307692,53.438709344208405L55.47374567307692,51.78580290056537L56.50910480769231,50.43823487512904L56.51938557692308,48.38608618187822L56.89163509615385,46.71051661306524L57.428162740384614,45.46415037544428L57.79548605769231,44.17920384864702L57.937703365384614,43.11405910631108L57.98482355769231,42.796182285047756L58.80557163461538,41.28967550377112L59.03410456730769,40.43281323208341L59.21980096153847,39.355524785524864L59.57705769230769,39.02055267413051L60.04804543269231,37.45966359679764L60.726147836538466,38.115739620682916L60.90584711538462,37.785006580328485L60.93497596153846,37.515050031663726L61.54689591346153,37.33844670073582L61.57816658653846,42.447980693331324L62.10527019230769,41.33441589343187L62.72211634615385,40.66085813910073L62.844628846153846,40.019970304687455L63.022186298076925,39.18848135247737L63.96994471153846,40.341503225141594L63.993718990384615,39.67777916469711L64.04148173076923,38.92322575887465L64.78576658653846,38.07568427545843L64.86951201923077,37.61510389276876L65.1123951923077,36.39843994338863L65.190571875,35.96755639388449L65.5133451923077,34.87518180040097L66.04773100961539,33.93052099023214L66.61188822115385,33.2901276049983L66.62045552884615,32.821477466434445L66.98649375,31.182867203388312L67.16833485576923,30.487568422506065L67.98437091346153,30.46969221017582L68.72351538461538,29.780001632940444L68.80940264423077,29.243848544305063L69.17287067307693,32.23669737788157L70.06087211538461,32.06928113828371L71.14206634615384,31.682323201186136L71.43485408653845,31.307463347657254L72.09089567307693,31.358701565177235L72.2459639423077,30.770754877693673L72.46314519230769,30.31463910642637L72.50748100961539,29.414927916166565L72.76514278846153,29.40112923649574L72.91142956730769,30.415934216122768L73.35221754807692,29.649013124797936L73.48265480769231,29.28005632744879L74.20316538461537,29.581200623819743L74.26227980769231,32.021670401790104L74.64245408653846,32.91163681993404L74.72962644230769,32.27330609410538L74.75896947115385,32.157074215042265L74.84935456730769,31.79428910948516L75.2228891826923,35.958365541820086L75.32805288461539,35.41908901056949L75.75684663461539,34.76649627952389L76.75129687500001,33.85730805059582L77.05029591346154,32.86359928838846L77.31738173076923,34.86935474992984L77.70676586538461,34.692599944564634L77.97749278846153,34.20878031675031L77.98348990384615,33.97772501555962L78.05781129807691,33.26543974832782L78.31183197115385,32.9016191201779L79.15806778846155,32.006098070904436L79.864228125,31.46452798796512L80.05377980769231,30.08819140464411L80.22234158653846,29.66996090656514L80.7443048076923,29.330350139409788L80.78392860576923,29.03426832697749L81.01653100961539,29.02304811763233L81.58025985576923,28.694577409589222L81.96536033653847,28.17140930457007L82.30762427884615,27.714732115347918L82.42649567307693,27.58894442821675L82.5258764423077,27.732038164573552L82.90904927884615,27.68319687077804L82.97308990384614,27.45024951152647L82.97930120192308,27.241179788690857L83.06840120192308,26.70818167570765L83.28515408653847,26.208901130317653L84.31687211538461,25.79041463031157L84.363778125,25.578422999995826L84.73495673076923,25.154676368646886L84.9065170673077,25.229318693190795L84.96113365384616,25.484289212327965L85.14575913461537,25.086234774168492L86.12650168269231,24.952837378527388L86.38716201923077,27.3319818790787L86.65103509615383,26.200907786770415L87.26209831730769,25.952292820648065L87.50326802884615,24.840436711268094L88.08241802884616,24.11242160844172L88.2231360576923,23.391995501856528L88.25654855769231,23.86900658650494L88.29360216346154,23.64007420375344L88.70868822115384,23.89274424071567L88.73717451923078,24.013167698240288L88.88281875,22.962030249370624L88.93957716346154,22.415945799893926L89.25806682692308,22.711106769204978L89.42984134615385,22.452822964091006L89.61468100961538,21.93937843855933L89.89504615384615,22.358128293620897L90.53031201923078,22.22452848179672L90.81667427884616,22.501186803174903L90.95567884615384,22.50456067621895L90.97217091346154,22.400296768369998L91.09275576923076,22.339365859108945L91.13773413461539,22.04950537276211L91.46179254807691,21.91483412279404L91.49991706730769,21.720837218045975L91.77000144230769,21.70362887843588L92.79058197115384,21.326018174911322L93.08358389423077,21.312006207419447L93.240365625,21.416777403774528L93.70899735576923,21.08290404794034L93.89769230769231,21.01189894022695L94.29114591346153,20.47325816233902L94.32220240384616,20.771102993731507L94.38667139423077,20.839914972660196L94.66982091346154,20.986567225324272L94.82553173076923,20.661895900608364L94.94011947115385,20.964703140336532L95.02215144230769,20.678865480598276L95.71010625,20.155234288326817L96.01253221153846,20.840842282500542L96.73968245192307,20.88384039479594L96.86176658653847,20.84361570591127L97.84764951923077,20.599014603729568L97.87699254807693,20.968624044239142L98.44350576923078,21.72836610124706L98.46064038461539,21.87512847683304L98.54717019230769,22.01500564375838L98.8232516826923,21.294182776666062L98.86266129807692,21.437854260107443L99.02736778846153,22.20946343880408L99.43688509615384,22.347568167740928L99.62300985576924,22.37993989360421L99.7140375,22.95048659485399L99.80999134615385,23.483397785722087L100.02353149038461,23.105525347488904L100.24499639423077,22.994362673864966L100.24499639423077,23.48634713548933L100.35337283653845,23.267239635493098L100.53971177884615,22.613472607073682L100.70120552884616,22.17531489865697L100.74768317307692,22.49814289351634L100.99185144230769,21.836757267712674L101.00256057692309,22.619706113114773L101.19104134615385,22.334306636031627L101.21502980769232,22.732878279346167L101.34696634615385,22.88802505606103L101.37909375,23.557342886890016L101.40758004807692,23.446281263199438L101.65239086538462,23.484274118858995L102.08268389423077,23.80718243225143L102.16107475961537,23.346531526182687L102.21119350961538,22.645409707794418L102.5793735576923,22.368024257564073L102.59051105769231,22.1621057309609L102.90343197115385,21.8378169779896L103.7016908653846,20.95811341793671L103.97284615384615,20.446522580307825L104.06066105769231,20.0316808485954L104.21808533653846,20.77183253677039L104.26306370192309,21.018286684946073L104.36565721153846,20.308257877008707L104.44876009615385,20.11369436283871L104.85891995192307,19.70320190363799L104.97843389423078,19.312279988861825L105.05232692307693,19.810098183197283L105.42114951923077,19.715907443005555L105.94375528846153,19.944482596130737L106.39782259615384,20.284136528389688L106.4185983173077,20.491269445904337L106.59358557692308,20.896136525131105L106.7306625,20.799092887691923L107.17466322115385,21.356266627316785L107.2875375,26.048214987571484L107.30638557692308,25.47180345232561L107.38092115384616,24.575664493735108L107.579896875,23.666133242579285L107.86947187499999,24.033486184619317L107.88703485576923,24.21913385871337L107.95771514423078,23.474472760418045L108.42784615384615,22.811651296454247L108.67608389423076,22.781269983960502L109.16399206730769,22.538031403978675L109.73200456730768,22.93956661644194L109.87614951923078,22.701848044378643L110.35227764423077,22.553567247044363L110.72002932692308,23.15293696762079L111.01795745192308,27.89339160592168L111.41483798076924,28.114497831718335L111.49686995192309,27.582040814081935L111.63373269230769,27.184481783614867L111.73761129807691,26.14466603558617L111.79672572115383,25.444568741828423L111.85948125,25.408931377619275L111.88239879807692,25.510507435818152L111.96057548076922,25.01078622933187L112.11928485576922,25.34080425924665L112.31526201923077,24.821161642594063L112.48575144230769,24.155886382409747L113.01542524038462,23.485884170059986L113.30949807692308,22.81177378308737L113.33712764423078,22.670548404110107L113.43586586538463,22.87529574448503L113.79226586538462,22.42255562446004L113.98567283653846,22.529764785130318L114.2092795673077,22.34462742010786L114.31144471153846,22.406100250468466L114.59416586538462,21.592815894665655L114.6074451923077,21.777707500578394L115.05530120192307,21.854036286654182L115.21401057692307,21.4212268751628L115.38428581730768,21.39963087819469L115.61431802884616,21.373657521949447L116.030475,21.10714336088935L116.13285432692308,20.993756740624303L116.52288100961539,20.95053692877407L117.19327283653847,21.384148441034174L117.53360913461539,21.293334622535575L117.5700201923077,21.754337944397285L117.62013894230769,21.20229236343876L117.70666875,21.406765833376998L117.76728245192308,20.880971589427137L117.78334615384615,21.06798452709085L118.05814254807692,20.51415183151503L118.28581874999999,20.23342439673483L118.50364254807691,20.236057048042174L118.67156177884615,19.69889804703825L118.80414086538461,19.95962348629248L119.20294903846154,19.814788197329815L119.23143533653847,19.325102523069628L119.36465697115385,19.623813287485817L119.39956875,19.80751352316894L119.44240528846154,20.198831802663065L119.86927139423076,19.701542550633476L119.86948557692308,19.307290870663525L119.90611081730769,19.13188742356587L119.92795745192308,18.866690431779208L120.01662908653846,19.047117963587347L120.32269615384615,18.504215223766494L120.41543725961537,18.86005516584137L121.09246875000001,19.17770950220417L121.36340985576923,19.64237647878786L121.58037692307691,20.20966749226322L121.77785336538462,20.074741114412827L122.19636634615385,19.583846498649592L122.46859254807693,19.300801169804824L122.58125264423077,19.409019995269684L123.14326802884615,19.556005890750672L123.15226370192308,19.317754358368614L123.29212500000001,19.16632152895063L123.450834375,19.222073123192967L123.73098533653847,19.80608432193968L124.37181995192309,19.323231300081602L124.47912548076923,19.26303803470357L124.52753076923078,19.253986025593044L124.76056153846154,18.95409333683081L124.77469759615386,18.512238479016393L125.48150048076924,19.51106581965076L125.5611764423077,19.421500672616478L126.04073149038462,19.867685384056625L126.1403264423077,19.797068703463328L126.76552572115385,19.31090571099477L127.0897983173077,18.70565299043466L127.18510961538462,18.713022318351197L127.26071610576923,19.142342069178415L127.46119110576923,18.541816110574057L127.6076920673077,18.115998231497617L127.91611514423077,18.3348140119063L128.29350504807692,18.392262601822L128.64048100961537,18.230570447416692L128.7942641826923,18.882443334836253L129.29052548076922,18.83107855216165L129.29545168269232,19.349531884059353L129.47022475961538,18.885199854033647L129.53833485576922,18.982271510407113L129.74866225961537,19.25989144979306L130.50494134615386,19.304886199205132L130.6426608173077,23.72972888650295L130.80479711538462,23.403595451580372L131.1494170673077,23.81555527778387L131.31755048076923,23.65118092150904L131.46490817307694,23.634617725841924L131.54715432692308,22.98525749924792L131.54908197115384,22.715304761039526L131.675878125,23.2582529989791L131.6763064903846,23.48954580708813L131.6868014423077,23.158090131204982L131.7851112980769,23.730577731903935L131.9592418269231,23.85803878440035L132.12437668269231,23.884396182015788L132.2914391826923,23.789445776752903L132.33256225961537,24.277187827794876L132.7320129807692,23.72039832367491L132.79990889423078,22.97438961985485L132.9431971153846,23.297804896871828L132.98667620192307,23.32386024059587L133.11711346153845,22.949790247307774L133.56496947115386,22.667423293185696L134.60354134615386,22.449880498865472L134.71555889423078,22.627019981971614L134.76460673076923,22.523048030954744L134.889046875,22.72151679126749L135.0563235576923,22.41268301223436L135.1225060096154,22.094651507784633L135.40565552884615,22.041798197642507L135.99037427884616,21.718656546728603L136.22983052884615,21.574038732030804L136.81155072115385,21.139208721217283L136.81454927884616,20.46696936759376L137.42903942307692,20.324574765460383L137.96599543269232,20.90861894456914L137.993625,25.7845444479457L138.54535961538463,24.620182072466136L139.04526201923076,24.8294614953023L139.14250096153845,24.499840384049183L139.25944471153844,24.436401671838926L139.3547560096154,24.056426350466996L139.45178076923077,23.46213327979809L139.74928052884616,23.343733182229457L139.97224471153845,23.032306981849555L140.23054903846153,22.83461756880065L140.42716875,23.513912795231775L141.44517908653845,22.96505684416764L141.52742524038464,23.28604201481988L141.62552091346154,22.64801959274954L141.65593485576923,21.5266845077966L141.8720451923077,21.085573346032923L142.12499495192307,20.659760511191063L142.19910216346153,20.682218342867312L142.25821658653845,20.99581816552914L142.49960048076923,21.437726217180714L142.54886249999998,21.476730905875144L142.5692098557692,26.761826132264922L142.8360814903846,27.028344344678537L142.96630456730767,26.43655429603667L143.06911225961537,25.97107955907487L143.41951514423076,25.819560967435766L143.50304639423078,24.95201906748502L143.65704374999999,24.592926229754116L143.7326502403846,24.690539810664397L143.77463004807694,23.869780122473866L143.97146394230768,23.48201170494047L144.05371009615385,23.404544003700728L144.0911920673077,22.920731220697313L144.094190625,22.37005694241723L144.4362403846154,22.198596503433706L144.4373112980769,22.00694202259171L144.64613942307693,22.590573107573945L144.78621490384617,21.957626808229403L144.9134394230769,21.360411813541536L144.92286346153844,20.832545307890516L144.94813701923076,20.595784937395976L145.27348052884616,20.012425007829258L145.32873966346153,22.274443756998743L145.56841009615385,21.777251628270086L145.8646247596154,21.48867369811387L146.076665625,20.90815117665733L146.26450384615384,20.46389792904308L146.31676442307693,19.90218388028343L146.32576009615383,20.059039858973247L146.42128557692305,20.103616816146907L146.48896730769232,20.14569972236494L146.99379591346153,20.124638712235182L147.10859783653845,20.32608072954253L147.40674014423075,20.641321459295128L147.42044783653847,20.558934623389817L147.4268733173077,26.279144068724914L147.64019927884615,25.52757498280004L147.74257860576924,25.169033093037793L148.32258533653848,24.994279378990942L148.67620096153846,25.21830575149431L148.73188846153846,24.633175705417052L149.01268197115385,24.66828290123088L149.30375625000002,24.23256077380365L149.39821081730767,24.165817082406438L149.7653199519231,24.61969752071725L149.78095528846154,24.299319066747216L149.80151682692306,23.97417669910164L150.0863798076923,24.298024927183207L150.1666983173077,23.78297177670945L150.51067572115383,23.40163939835491L150.71350673076924,22.56140599447753L151.47642548076922,22.53481938666356L151.65569639423077,22.68421163550815L151.65719567307693,22.099622409007484L151.94334375,21.852657880489264L151.9741860576923,21.624012267804684L152.07892139423078,21.46788320951096L152.17273341346154,21.102915962469428L152.2052891826923,21.23308587176393L152.88510504807692,21.36329147157346L153.89283461538463,20.805902029871817L154.00763653846155,20.926953682076558L154.07124879807694,20.439802777780173L154.23531274038461,19.859574914795942L154.32955312500002,20.454152215466934L154.3970206730769,20.82201114364954L154.51803389423077,26.497505090554807L155.0198639423077,26.620984865537014L155.20663125000002,26.05780215448618L155.37283701923076,26.00837957144034L155.79563365384615,25.90389500727344L156.3533653846154,25.962096911312837L156.38120913461537,25.676811645236228L156.7125497596154,25.32595033360839L157.10536081730768,24.379464231645965L157.12013942307692,23.894456537279666L157.7566903846154,23.849517899121857L157.76932716346155,23.593510234491507L157.9605923076923,23.85426750681614L158.01178197115385,23.50916119847403L158.0522625,23.206695112052717L158.19662163461538,23.159430167917378L158.24374182692307,22.66664049912811L158.35340336538462,22.132095264167916L158.53845721153846,22.36252501521213L158.64340673076924,21.845698111790796L158.86679927884617,21.55179850534293L158.96896442307693,20.958828069392396L159.05656514423075,21.026719174358522L159.2668925480769,20.58209964937201L159.74730432692306,20.87364577436898L159.95099206730768,21.15487474752134L160.3219564903846,21.769189348810137L160.36693485576924,20.933003519908343L160.45603485576925,20.677252977726518L160.7698125,21.01315279049976L161.00262908653846,21.261231214552748L161.49803365384614,21.56721274039418L162.13501298076923,22.23166454894847L162.30443149038462,21.907123285528883L162.42501634615382,21.565875353201747L162.61478221153845,21.738697334860124L162.83496201923077,22.419497656675965L163.04743125,22.644525033335075L163.0523574519231,22.54676036506389L163.2123519230769,22.598536657055163L163.3143028846154,22.572459662696637L163.61437283653845,27.3051033410983L164.2665591346154,26.49784350281097L164.56384471153848,25.509887536989055L164.8876889423077,24.728238242248555L164.98064423076923,24.456987144541735L165.01319999999998,23.98462145698645L165.528309375,23.355188087761732L165.66024591346152,22.567244865907988L165.76348197115385,22.59449568646256L165.91726514423075,22.66113616947921L166.24196610576925,22.622693282707555L166.41266971153846,22.448588831458714L166.80912187500002,22.58780231256303L167.11990096153846,22.31803564131693L167.24134254807691,22.129528674973123L167.2940314903846,22.351557022004062L167.33044254807695,22.20083901398244L167.66820865384616,22.179641838081135L167.9755608173077,21.584402033223213L168.5022360576923,20.980942669418646L168.57248798076924,21.003122656504363L168.90982572115385,20.89337829533724L169.27522139423078,21.673371850338658L169.65111201923077,21.894484489370623L169.810678125,21.685977703815976L169.96510384615382,21.79712335217574L170.31186562500002,20.99810209925457L170.84175360576924,20.942510983876776L170.92549903846154,20.98458020567141L171.02209543269228,20.417730047289908L171.06279014423077,20.536281349542733L171.12982932692307,20.31801017452666L171.3915605769231,20.8300711263416L171.40205552884615,20.777663037442256L171.45431610576924,21.1417936501137L171.98570336538464,21.386628248602957L172.03368028846154,21.08609669999703L172.4644016826923,20.744131960517734L172.74669447115386,20.73903648100667L173.61306346153847,20.063938576460416L174.14959110576925,19.809905555107772L174.15044783653846,19.9498956845043L174.28024254807693,19.580679252786744L174.2870963942308,20.014073667528805L174.7720060096154,19.588452134477254L175.46338774038463,19.9306777701503L175.7465372596154,20.814301536107706L175.77031153846156,20.492364821226094L175.79558509615384,20.23530400696083L175.80715096153847,20.058410177294505L175.8140048076923,20.057791729548775L176.15948149038462,19.828039120665917L176.3736641826923,22.34160331002813L176.61183533653846,22.04722824665409L177.21261778846153,21.487681459716036L177.26444999999998,21.10804959758484L177.47499158653847,21.721343636703466L177.879796875,21.535713850089152L177.92049158653845,21.438784672844708L177.9528331730769,20.90245843284826L178.0280112980769,20.849333080458408L178.28974254807693,21.216123439783395L178.49021754807694,20.686138594242603L178.90080576923077,20.20012536248337L179.2991855769231,20.60688438921493L179.30753870192308,20.573925716171818L179.44889927884617,20.108194643242363L179.52193557692308,20.20972588774952L180.74834567307693,20.290100160623293L180.8528668269231,20.294168632704533L181.04220432692307,19.932890757405268L181.2996519230769,19.667793137215572L181.59094038461538,19.550061598555345L181.64020240384616,20.09753283684785L182.05700192307694,19.64581915626575L182.19429302884615,19.581331963354565L182.39498221153846,19.32639929309625L183.67236778846154,21.395129551952266L184.0163451923077,21.459535873562498L184.13350312499998,21.879986051879488L184.2219605769231,21.803104124367568L184.30206490384614,21.40767778436209L184.4087278846154,21.56885835151421L184.48262091346152,21.147471486056155L184.54858918269233,21.316771884883767L184.63576153846154,23.41265648126502L184.77326682692308,23.507146378786057L185.07140913461538,23.58410842555524L185.34213605769233,23.147754461334767L186.22863822115386,23.41303684019344L186.25905216346155,22.915358131216532L186.28925192307693,23.291944500681073L186.500221875,22.939356823568712L186.51307283653844,23.59716558615801L186.59874591346153,22.792873329083577L186.7336810096154,23.009311624560617L186.81571298076923,22.30026524347591L187.42549110576923,21.85075046847028L187.76111538461538,21.74452500095251L187.76218629807693,21.500553506061927L187.9009766826923,21.50193306633151L188.17748653846152,21.070947910794388L188.48548125,20.6564337433812L188.49833221153844,20.12209674845897L188.61013557692308,19.683806674242298L188.80097235576923,19.91488842076989L188.86522716346155,19.89360688224887L189.2040641826923,19.82739984412677L189.38890384615385,19.805130242863815L189.49556682692307,19.899358165682976L189.67976394230772,19.39247088849802L189.88366586538461,19.350822288025498L190.43582884615384,19.257752625314588L190.46645697115386,19.176528272318286L190.49194471153845,19.334766531164135L190.92694975961538,19.65732049669971L191.0965824519231,19.333869249375194L191.50545721153844,18.697565987024124L191.5669276442308,19.376605972492474L191.63889302884616,19.738712746223392L191.82351850961538,20.44477656589557L193.00323677884614,20.392610584851006L193.26732403846154,20.37435469300045L193.78800216346153,20.451558970941047L194.5558471153846,20.48059164523177L194.7171266826923,20.363294622284958L195.11422139423078,20.63925875053405L195.83301850961539,20.474652140489596L195.93796802884614,20.285605759714034L196.1037454326923,20.026267559704493L196.3269237980769,20.4983291671807L196.6017201923077,20.19537558148353L196.63427596153846,19.611618755967378L196.663190625,19.43640228028208L196.8613096153846,19.96963076901556L196.89707812499998,25.238207730309686L197.15152716346154,25.27398441932347L197.20400192307693,29.868700531839114L197.838196875,28.924618221756884L197.90545024038462,28.67754638345641L198.06351706730769,28.114033560736985L198.23036538461537,28.344622748834766L198.52251057692308,27.887866049290935L198.83029110576922,27.3109629930588L199.04490216346153,26.966271108293345L199.3199127403846,26.027739845396255L199.45163509615384,25.1925786888173L199.49639927884616,25.64935454425347L199.79368485576921,25.01634528927118L199.80011033653844,24.152426534988255L200.00786754807692,25.948516188892782L200.2158389423077,30.822276499155244L200.4578653846154,29.84435439174479L201.04108485576924,29.82118466888125L201.06357403846152,29.313685863646167L201.07128461538463,28.6536111589962L201.09398798076924,28.048221193238415L201.49236778846156,26.933113136256765L201.54398581730769,26.299407298679814L201.59389038461538,26.072845615358943L201.62580360576922,25.062726583865572L202.12527764423078,25.304606060903655L202.14005625,25.167419124497755L202.2632112980769,24.879371149039L202.26599567307693,24.750061115482513L202.6468125,24.2466544355121L202.95245120192308,23.565542545674592L202.9890764423077,23.44822558492656L203.06018509615384,23.239633767753705L203.09231250000002,23.16495593044916L203.1032358173077,22.83911040907241L203.21375408653847,22.706660443009596L203.78926298076922,22.965924146737944L204.1812173076923,22.450474221242953L204.20948942307692,22.674865090143868L204.58452331730768,22.537555004415037L204.62500384615385,23.006102387657442L204.68090552884615,22.00578766882778L204.75608365384616,21.91564272451548L204.82483629807695,21.62513104690928L205.05658197115386,21.424893711943458L205.11269783653844,21.646479645935692L205.2142204326923,21.16708548116801L205.33951730769232,20.424439763370856L205.37250144230768,20.20837025418011L205.6282355769231,19.706795469496573L205.823784375,19.31232300226052L205.88889591346154,19.34340847728404L205.92209423076923,19.59882934319727L206.12256923076924,20.1099812840007L206.32689951923078,20.064603975205507L206.3474610576923,19.94742152451202L206.48689399038463,20.036932956983915L207.02427836538462,20.235278440434694L207.02984711538463,20.73604777882924L207.25088365384616,21.112811986881656L207.25709495192308,20.74494900254524L207.34619495192308,20.75774569756225L207.58222427884616,20.77125036126498L207.94676322115384,20.988318487696194L207.9489050480769,21.239433434799654L208.11896610576923,20.76685072945537L208.1735826923077,20.110181299017412L208.25882740384614,20.108098800913858L208.2999504807692,20.397333675352137L208.468940625,20.14626348087231L208.67905384615386,20.142327187579035L208.89580673076924,19.728977108629906L209.03009927884617,20.02120705176913L209.43983076923078,19.55042557743511L210.0748824519231,19.7322939684241L210.27621418269229,19.386396334198114L210.43021153846152,19.641278996935913L210.68958677884615,19.969814159642635L211.00422115384617,20.059512602624785L211.01278846153846,20.125660071584498L211.3616920673077,20.322032777227584L211.44372403846154,20.26390181580846L211.47456634615384,20.102262611787943L211.5349658653846,20.02902732957499L211.54481826923077,20.38560931008842L211.56902091346154,20.220629225862176L211.98432115384617,20.524568358252342L211.98731971153848,20.257488284250826L212.36963581730768,20.83035638086863L212.3724201923077,20.90816151922385L212.50178653846152,20.947048144442263L213.2139439903846,20.681351095986127L213.24778485576923,20.16732894358138L213.55813557692306,20.716016876102454L213.57955384615383,20.74927717547373L214.0483997596154,20.27899033144232L214.12679062499998,20.046830569828447L214.41229615384614,19.485132742845977L214.50075360576923,19.202871449821544L214.68644999999998,18.829469278239383L214.99101778846153,19.320094596853483L215.21676634615383,19.27431410668282L215.29001682692305,19.61673252786102L215.35855528846153,20.215430245969728L215.44744110576923,20.44903184374679L215.52026322115384,20.564675874367136L215.6611954326923,25.898713007489235L215.75072379807693,25.93906196268379L215.78542139423078,25.812190973772346L216.82485,24.782436402551443L217.09921802884617,24.323991238012468L217.21680432692307,23.99362688533373L217.29669447115387,23.943622973724526L217.68672115384615,23.806613056104936L217.87177499999999,23.35777652161161L217.88676778846153,22.56946268755505L217.92382139423077,21.616477714293307L217.95166514423076,22.175747652133147L218.06046995192307,22.284050567861502L218.31577572115387,21.5595148158515L218.51775,21.94602912370628L218.97417331730767,21.871270675988978L219.50149110576925,22.408529925810797L219.66341322115383,22.015383631600777L220.12390600961538,21.355825276856674L220.15303485576925,21.865757986122606L220.1860189903846,21.894069413990646L220.74610673076924,21.93569236435043L220.8902516826923,21.39055347777747L221.2016733173077,21.459677333653314L222.0256341346154,21.354878398962462L222.11966033653846,21.353774597596665L222.31006875,20.89688730483865L222.63541225961538,21.00108895919228L223.5932372596154,21.499207168322055L224.04751875000002,20.82495849291955L224.289759375,21.185400148510276L224.35808365384614,21.52026561224578L224.66950528846155,21.266409829827264L224.81793389423078,21.111603227010196L225.12849879807692,20.412584688696747L225.19939326923077,19.983279762100846L225.25722259615387,20.07675922809917L225.423,19.567368742186506L225.80788629807694,19.083885883785463L226.07561466346155,19.16833532271282L226.094034375,19.439333241202934L226.33863100961537,19.401181903345236L226.42751682692307,19.320934145124056L226.5977920673077,19.64234250944232L226.63013365384614,19.31160940138007L226.92591995192305,19.8383753888233L227.5309860576923,19.66114185253016L227.63208028846154,19.67436679066286L227.63486466346154,19.737133511902925L228.21165865384617,19.584653878761962L228.63252764423075,19.159460791592732L228.90346875,19.940569600293234L228.94908966346154,19.92059998350072L229.98509134615387,19.694636793843863L230.17485721153847,19.95751602885313L230.36162451923076,19.682314647677693L230.66747740384614,19.74296180549741L230.7989855769231,19.291837306273067L231.00695697115384,24.251103475681276L231.4423903846154,23.506774215526818L231.47880144230768,23.04687917849378L231.58503605769232,22.80540460296992L231.60366995192308,22.97517344870761L231.70219399038461,24.753697421095904L231.9574997596154,24.523465384789578L232.13184447115387,24.82582001453901L233.00656658653847,24.168702947946766L233.31863076923077,24.102223604985237L233.8455201923077,23.977079144735693L234.23211995192307,23.12390905048767L234.28502307692307,23.728838644456953L234.43130985576926,23.62612441782339L234.55510745192308,23.222733998345095L234.92799951923075,22.751637693814867L234.97169278846152,22.554702300013524L234.99975072115384,22.01301477240539L235.0211689903846,22.483487778041532L235.1460375,22.95515629369355L235.1541764423077,22.341283666230765L235.20600865384617,22.363007269163322L235.23706514423077,22.283953005663186L235.53627836538462,22.430454439034875L236.6157591346154,22.90181010918236L236.64638725961538,23.106128841800516L237.006,23.22501994046107L237.07646610576924,22.261377468627508L237.12422884615387,22.400257806213595L237.518325,22.671013721150793L237.6468346153846,22.73485227429997L237.97303485576924,22.71764810749409L238.267321875,22.83156480469242L238.34100072115385,22.914219668925487L238.657134375,22.220056555440014L238.8738872596154,21.906348432647835L238.94263990384616,21.435192958653488L239.08421466346155,20.796792728519193L239.22300504807694,20.284629237387026L239.32088653846154,20.125665772869947L239.92252572115385,19.830206124675314L239.95572403846154,19.89912944199223L240.21766947115384,19.60303988762665L240.34660745192306,19.849598198695116L240.94310625,20.246657919240054L240.97309182692308,20.532882043139143L241.04527139423078,20.854767070287163L241.48113317307693,20.964788601099364L241.5758019230769,20.9939005645177L241.6190668269231,21.212059943140556L241.6732550480769,20.898699538990645L241.942696875,20.65295349117526L242.23398533653847,21.244423851950838L242.3410766826923,20.954385521988645L242.62958076923076,20.956064240358742L242.67648677884614,21.29955367846056L242.81784735576923,21.159267646968928L242.90801826923078,21.092262363785373L242.9643483173077,21.450045024827716L243.0680127403846,26.352048482144465L243.56148966346154,26.27320294344269L243.85513413461538,26.05982758320687L244.11343846153846,25.232584016794355L244.28521298076922,25.22294729654745L244.39658798076925,24.747932882638974L244.78126009615386,24.658512328885603L244.93718509615385,24.24246984793152L245.08711298076923,29.108962940968325L245.1672173076923,28.366935404348617L245.3400627403846,27.384644556235347L246.4591673076923,26.607261175372138L246.5559778846154,26.13225322651644L247.15997307692308,26.035726612373928L247.37865360576924,24.971869731524258L247.55171322115385,24.106746730524804L247.7042112980769,23.88252080012966L247.83165,23.60741150328591L247.93103076923077,23.500369042515242L248.0295548076923,23.320837000330574L248.05932620192308,23.086644472473058L248.11694134615385,23.67280900829263L248.1180122596154,23.414681155475105L248.37096201923075,23.48171711696369L248.47569735576923,23.557576212757276L248.49818653846154,22.973524965426627L248.56394062500001,22.874103557517646L248.66760504807692,22.78080045848115L248.7200798076923,22.68940051219818L248.76505817307694,21.80924982547402L248.9068471153846,21.657836320693832L249.28316610576923,21.32062785789785L249.56952836538463,21.44917071912045L249.58687716346154,20.929370964707157L249.6444923076923,21.09391824515638L250.00967379807693,20.96042264430423L250.02102548076925,20.82391885351021L250.1375408653846,20.65832508828149L250.1763079326923,20.139814886553783L250.54705817307692,19.249144178560247L250.57554447115385,19.861857605582195L250.78073149038462,19.850789815875768L251.02254375,19.79947836209901L251.17161490384615,19.836639944399302L251.18210985576926,19.964476018523364L251.45583533653846,19.967863684774525L251.90476225961538,20.592900201236755L252.08082043269232,20.47519498893762L252.33120000000002,20.35317879625736L252.33676874999998,19.745856615529558L252.35004807692306,20.018426802496784L252.72786634615386,20.343313831508144L253.2920235576923,19.931416205620184L253.4732221153846,20.208015191739083L253.7538014423077,20.153871144639158L253.83326322115386,19.79260048059804L254.5083670673077,20.117060418031496L254.64522980769232,19.653248097859628L254.91145889423078,19.55051383667765L255.13335216346155,19.451793375082136L256.04983990384613,19.365470014708368L256.0875360576923,19.63076436831552L256.1762076923077,19.236359312171523L256.32549302884615,19.514055477532455L256.32891995192307,19.465190128939117L256.9423391826923,19.236085828863295L257.0789877403846,19.31058481785827L257.2683252403846,18.912320260230597L257.56175552884616,18.859309043757275L257.6165862980769,19.434826170767884L258.0772932692308,20.11298653361063L258.0916435096154,20.19569734028911L258.2509954326923,19.89631507524862L258.38400288461537,20.097250383376807L258.5300754807692,19.941651900371827L259.1831185096154,19.880609284593582L259.2143891826923,19.945140521826538L259.33240384615385,20.3619034360257L259.4615560096154,20.116444252090538L259.5997038461539,20.412656058909985L259.7901122596154,20.4360354053818L259.8273800480769,19.789595317111257L259.9423961538461,19.95550720166592L260.42216538461537,19.84696409395358L260.492203125,20.099648403221696L260.5862293269231,20.5245906409456L260.74429615384616,20.277598693209498L260.8231153846154,20.86579495565221L260.96469014423076,20.059002302866308L261.20350384615386,19.971125843476532L261.2446269230769,19.841919064629334L261.38084711538465,19.59054891915623L261.8417682692308,19.246432783422975L261.90131105769234,18.7609685265683L262.05830697115385,19.451484057726198L262.2769875,19.23343673032654L263.5331689903846,19.32887479832183L263.6319072115385,18.905702032722218L264.20827283653847,19.40310997281651L264.3941834134615,18.850959370992356L264.63171201923075,19.03273626830316L264.6467048076923,19.022120671161773L264.738375,18.759196036931225L264.83968341346156,18.785382132698743L264.84546634615384,18.748409397566757L265.2181442307692,18.506123136345398L265.43361201923074,24.40493714707139L265.67885120192307,23.601125911855238L265.7107644230769,23.802200205445533L265.77866033653845,23.919565588864472" style="fill: none;" fill="none"></path></g></g></g></g><g opacity="0.2"><g><g><g><path stroke="rgb(51, 187, 238)" stroke-width="2px" d="M21.535855528846156,143.79739267522638L21.538639903846153,147.68119541515003L21.609106009615385,136.506084095348L21.658153846153844,177.47427129572088L21.83485456730769,136.60433449485086L21.987352644230768,140.93027876420453L21.999561057692308,213.7948826460405L22.050964903846154,132.51918300975453L22.095300721153848,158.15138663552025L22.183758173076924,124.64202548633924L22.190397836538462,187.52560929731888L22.204748076923078,128.17838553688742L22.61940576923077,130.22866655523126L22.805958894230766,146.8483970780806L22.930399038461537,140.31994824496184L22.952031490384616,139.06538472955876L23.101531009615382,135.8933253062855L23.14758028846154,148.6594886086204L23.23839375,143.7935796286843L23.376541586538462,150.2197023010254L23.403956971153846,123.52163308577104L23.66247548076923,129.01324016917835L23.741294711538462,135.20333820689808L23.76099951923077,157.2116093860973L23.868947596153845,139.70611158891157L24.49157668269231,143.87530600807884L24.834054807692308,109.68594214699486L25.237146634615385,184.14899821888318L25.75653966346154,144.69680270108307L27.34898798076923,132.86736105485394L29.490814903846154,91.24233914462003L30.967604567307692,88.17824811068448L31.016652403846155,96.81201792630283L31.418459134615386,101.15469859730112L31.510557692307692,108.30815897681495L32.69862908653846,61.01624800248579L32.82563942307692,70.07748046875L33.72606346153846,53.74596396706322L34.30564182692308,101.89706168434837L35.221915384615386,38.25105393843217L35.646853846153846,26.860661399147723L35.86938966346154,43.966518526944256L36.08507163461539,54.883484386097294L37.56978605769231,31.050563631924717L38.10352932692308,34.80514509721235L38.159859375,29.662261130593034L39.543907932692306,45.053617359508166L39.83198365384615,38.39090165571733L39.97548605769231,35.454698680530896L40.47967211538461,25.324187788529823L40.665368509615384,36.39593436501242L40.81808076923077,43.290595259232965L41.88728076923077,38.354391673694956L42.578019951923075,45.3679862282493L43.61059471153847,61.16536684903232L43.735677403846154,30.451372708407323L44.08308173076923,25.76698242187501L44.14669399038462,82.34851980035955L44.39728774038461,107.90874848972668L44.91603822115385,76.65232423262162L45.828028124999996,80.30078858809038L46.29151947115385,39.75862401788885L46.48128533653846,41.34992398348722L46.493279567307695,47.38415729869496L46.529904807692304,115.86322302038019L46.7440875,80.65251205444336L46.746871875000004,42.086576094193894L46.84882283653846,32.25860454212536L46.906437980769226,124.52509042219681L47.20950649038461,27.847034912109372L47.33523173076923,118.16797087929464L47.38449375,24.907232499556116L48.64067524038461,57.16171708540483L49.24445625,101.90035666725854L51.38135697115384,34.2497465098988L51.93330576923077,33.18812364058061L51.95558076923077,32.69663102583451L52.49189423076923,30.356957452947448L53.075542067307694,108.15457060380415L53.57373100961538,24.983071122602976L53.68082235576923,37.789265275435014L53.696243509615385,32.66769312078302L53.702454807692305,31.25933590975674L54.14838317307692,33.633373551802194L55.47374567307692,28.0933876731179L56.50910480769231,31.118024846857242L56.51938557692308,18.957897782759233L56.89163509615385,22.677702692205262L57.428162740384614,27.584064830433242L57.79548605769231,25.74241000088779L57.937703365384614,27.828531938032675L57.98482355769231,38.233739318847654L58.80557163461538,19.66387856223366L59.03410456730769,28.130963245738638L59.21980096153847,23.88710382634943L59.57705769230769,34.21023617831144L60.04804543269231,15.042289373224438L60.726147836538466,47.53922282825816L60.90584711538462,33.03409914883701L60.93497596153846,33.63683549360796L61.54689591346153,34.80113808371804L61.57816658653846,115.86381965290417L62.10527019230769,25.33309553666549L62.72211634615385,30.981535949707034L62.844628846153846,30.80953882390802L63.022186298076925,27.238135819868617L63.96994471153846,56.91392062100497L63.993718990384615,30.137553821910508L64.04148173076923,28.076907848011356L64.78576658653846,25.892152488014915L64.86951201923077,30.99391055020419L65.1123951923077,18.907269952947445L65.190571875,29.772797740589496L65.5133451923077,19.169699873490774L66.04773100961539,20.348331465287636L66.61188822115385,24.082367165305392L66.62045552884615,26.082898115678276L66.98649375,7.6211530650745765L67.16833485576923,20.489559048739338L67.98437091346153,30.212636219371454L68.72351538461538,19.862186445756386L68.80940264423077,21.53375926624645L69.17287067307693,75.2758463495428L70.06087211538461,29.661681685014198L71.14206634615384,26.117419322620737L71.43485408653845,25.916459738991477L72.09089567307693,32.0955888227983L72.2459639423077,22.31502868652344L72.46314519230769,23.75479381214489L72.50748100961539,16.475150257457386L72.76514278846153,29.202672396573146L72.91142956730769,45.01132274280896L73.35221754807692,18.618696233575992L73.48265480769231,23.973451038707385L74.20316538461537,33.91251409357244L74.26227980769231,67.12286290949041L74.64245408653846,45.71208851207387L74.72962644230769,23.092084849964497L74.75896947115385,30.485280095880682L74.84935456730769,26.576222367720174L75.2228891826923,95.85209389426491L75.32805288461539,27.662398015802566L75.75684663461539,25.379873490767054L76.75129687500001,20.77986128373579L77.05029591346154,18.57037636496804L77.31738173076923,63.71968572443182L77.70676586538461,32.15018929221413L77.97749278846153,27.249577414772723L77.98348990384615,30.654242498224427L78.05781129807691,23.019948785955265L78.31183197115385,27.66841835715554L79.15806778846155,19.124876320578835L79.864228125,23.67453568892046L80.05377980769231,10.29079634232954L80.22234158653846,23.65406849254261L80.7443048076923,24.445325983220876L80.78392860576923,24.775364435369326L81.01653100961539,28.861653941761368L81.58025985576923,23.969768121892766L81.96536033653847,20.64600935502486L82.30762427884615,21.14574679287998L82.42649567307693,25.779573086825277L82.5258764423077,29.790348066850136L82.90904927884615,26.980645918412634L82.97308990384614,24.099446078213777L82.97930120192308,24.233838168057535L83.06840120192308,19.041318303888502L83.28515408653847,19.02703840775923L84.31687211538461,19.770722434303988L84.363778125,22.529040527343746L84.73495673076923,19.059310580166894L84.9065170673077,26.303008866743603L84.96113365384616,29.151907071200274L85.14575913461537,19.36042585893111L86.12650168269231,23.03398315429687L86.38716201923077,61.55479356245562L86.65103509615383,9.930960637872865L87.26209831730769,22.376086536754254L87.50326802884615,8.846916170987212L88.08241802884616,13.640266779119312L88.2231360576923,13.029000799005681L88.25654855769231,30.730591819069613L88.29360216346154,20.34698597301137L88.70868822115384,27.527288984818888L88.73717451923078,25.74540543989701L88.88281875,7.841882546164774L88.93957716346154,14.56076027610086L89.25806682692308,26.956869007457385L89.42984134615385,18.73752186168323L89.61468100961538,14.553698896928267L89.89504615384615,28.381666759144178L90.53031201923078,20.30275168678978L90.81667427884616,26.480800448330967L90.95567884615384,22.553092429421167L90.97217091346154,20.900503817471584L91.09275576923076,21.462899946732946L91.13773413461539,17.87998168945312L91.46179254807691,19.97764343261718L91.49991706730769,18.930270996093757L91.77000144230769,21.45609391645952L92.79058197115384,15.894241333007812L93.08358389423077,21.110449718128557L93.240365625,22.923868852095175L93.70899735576923,16.28026994185014L93.89769230769231,19.990518909801132L94.29114591346153,12.725125787908384L94.32220240384616,25.055482177734376L94.38667139423077,21.82974792480469L94.66982091346154,23.096101684570307L94.82553173076923,15.991627474698154L94.94011947115385,25.320465587269172L95.02215144230769,16.567203535600136L95.71010625,12.623005870472294L96.01253221153846,30.703043601296162L96.73968245192307,21.50235135165128L96.86176658653847,20.264999334161924L97.84764951923077,17.080523570667612L97.87699254807693,26.285311223810368L98.44350576923078,32.656958645907324L98.46064038461539,23.98624794699929L98.54717019230769,24.02708412863992L98.8232516826923,10.925426746715209L98.86266129807692,23.504512606534092L99.02736778846153,33.308761263760644L99.43688509615384,24.33415100097656L99.62300985576924,22.84559459339489L99.7140375,31.157579373446374L99.80999134615385,31.149118485884227L100.02353149038461,17.669976862127125L100.24499639423077,21.395330699573858L100.24499639423077,30.5633530217951L100.35337283653845,20.115463090376416L100.53971177884615,13.209286942915474L100.70120552884616,15.872585782137786L100.74768317307692,27.14189874822444L100.99185144230769,12.32298073508522L101.00256057692309,33.88212266401811L101.19104134615385,18.228945423473014L101.21502980769232,28.466177423650567L101.34696634615385,25.11975153142756L101.37909375,33.18522150213068L101.40758004807692,21.848702670010653L101.65239086538462,24.030786687677548L102.08268389423077,28.45209394975142L102.16107475961537,16.720245916193186L102.21119350961538,12.560042724609383L102.5793735576923,18.377941506125715L102.59051105769231,19.200047108043318L102.90343197115385,17.173048262162634L103.7016908653846,8.303916736949565L103.97284615384615,13.087485518022024L104.06066105769231,14.06434237393465L104.21808533653846,31.418629427823152L104.26306370192309,24.56343467018821L104.36565721153846,10.094766956676132L104.44876009615385,17.31497314453125L104.85891995192307,13.798425958806826L104.97843389423078,13.689018776633521L105.05232692307693,26.971021229137065L105.42114951923077,18.361009909889905L105.94375528846153,23.232448175603704L106.39782259615384,25.169927590110078L106.4185983173077,23.470796730735092L106.59358557692308,26.719993619051852L106.7306625,19.403157515092325L107.17466322115385,29.37099642666903L107.2875375,93.54008639248934L107.30638557692308,17.18034534801136L107.38092115384616,11.685050437233667L107.579896875,10.582876198508517L107.86947187499999,29.31771689675071L107.88703485576923,26.889604214754964L107.95771514423078,12.762809392755688L108.42784615384615,13.27721957120029L108.67608389423076,22.344246493252847L109.16399206730769,19.03913801713424L109.73200456730768,28.71549616033381L109.87614951923078,19.282357843572438L110.35227764423077,20.420605024857952L110.72002932692308,31.774639809348358L111.01795745192308,96.08300786798651L111.41483798076924,31.295025828968388L111.49686995192309,19.92285145152699L111.63373269230769,21.46574806906961L111.73761129807691,11.187316506125713L111.79672572115383,15.373938487659808L111.85948125,24.896301602450293L111.88239879807692,26.971639959161937L111.96057548076922,17.822488902698865L112.11928485576922,30.087986672141326L112.31526201923077,17.346302490234372L112.48575144230769,14.586157670454543L113.01542524038462,13.848160067471593L113.30949807692308,13.114955166903409L113.33712764423078,20.63907565030184L113.43586586538463,25.82050747958096L113.79226586538462,15.910063143643473L113.98567283653846,24.071927323774847L114.2092795673077,19.68149763627485L114.31144471153846,23.290363270152703L114.59416586538462,9.894033258611515L114.6074451923077,24.437302135120735L115.05530120192307,22.951996515447444L115.21401057692307,15.19542996493252L115.38428581730768,21.088980768377123L115.61431802884616,21.00004078258167L116.030475,17.273439663973726L116.13285432692308,19.362733820134945L116.52288100961539,20.328836558948865L117.19327283653847,27.621483265269887L117.53360913461539,19.98701277299361L117.5700201923077,28.3856934148615L117.62013894230769,13.261329012784095L117.70666875,24.348038052645606L117.76728245192308,13.317623623934661L117.78334615384615,23.758093705610793L118.05814254807692,12.547481522993616L118.28581874999999,16.19526822176847L118.50364254807691,20.273926724520596L118.67156177884615,11.97207242098722L118.80414086538461,23.710058649236505L119.20294903846154,17.731388272372158L119.23143533653847,12.28116244229403L119.36465697115385,23.920652743252848L119.39956875,22.449970758611514L119.44240528846154,25.827794744318176L119.86927139423076,12.548227927468037L119.86948557692308,13.636132091175426L119.90611081730769,16.608776300603694L119.92795745192308,15.051933704723014L120.01662908653846,21.642498612837358L120.32269615384615,10.694768121892753L120.41543725961537,23.978675870028415L121.09246875000001,23.747044955166896L121.36340985576923,26.32643221768466L121.58037692307691,28.369930530894894L121.77785336538462,18.13387706409802L122.19636634615385,12.52251625754617L122.46859254807693,15.229302978515634L122.58125264423077,20.965706176757816L123.14326802884615,21.67034146395596L123.15226370192308,15.890597700639205L123.29212500000001,16.9880185213956L123.450834375,20.024038363370032L123.73098533653847,28.206860795454535L124.37181995192309,12.377576293945308L124.47912548076923,18.39718106356534L124.52753076923078,19.1237763560902L124.76056153846154,14.64025235262784L124.77469759615386,12.156326293945312L125.48150048076924,33.87881294944069L125.5611764423077,18.133140480735094L126.04073149038462,26.28588084827769L126.1403264423077,18.781274913441052L126.76552572115385,12.317638050426135L127.0897983173077,9.99932539506392L127.18510961538462,18.81902726606889L127.26071610576923,25.317941561612226L127.46119110576923,9.903481167879967L127.6076920673077,11.99077181729404L127.91611514423077,21.482394853071735L128.29350504807692,19.218638472123576L128.64048100961537,15.90469099564985L128.7942641826923,28.259384099786924L129.29052548076922,18.092215909090903L129.29545168269232,26.80728365811435L129.47022475961538,12.205962191495027L129.53833485576922,20.378609952059666L129.74866225961537,23.253347500887774L130.50494134615386,19.952118363813927L130.6426608173077,87.37938907970081L130.80479711538462,18.71229142622515L131.1494170673077,29.741438931551855L131.31755048076923,21.28671902743252L131.46490817307694,23.396362526633517L131.54715432692308,13.644460393732237L131.54908197115384,18.832138449928976L131.675878125,31.06835457541726L131.6763064903846,26.81660389293323L131.6868014423077,18.390227716619314L131.7851112980769,31.965591680353334L131.9592418269231,25.69151700106535L132.12437668269231,24.263537209250707L132.2914391826923,22.42362071644177L132.33256225961537,31.29316963889382L132.7320129807692,15.71119545676492L132.79990889423078,12.243341341885662L132.9431971153846,27.95000926624645L132.98667620192307,23.698656338778413L133.11711346153845,17.568937266956684L133.56496947115386,18.605683260830958L134.60354134615386,19.32061107288707L134.71555889423078,25.17510331587358L134.76460673076923,21.027451504794033L134.889046875,25.576413574218744L135.0563235576923,17.970227883078845L135.1225060096154,17.5198906360973L135.40565552884615,21.281523659446012L135.99037427884616,17.07038818359376L136.22983052884615,19.493767089843754L136.81155072115385,14.884346257990055L136.81454927884616,10.79706481933594L137.42903942307692,18.276283180930406L137.96599543269232,29.309869828657664L137.993625,95.92285745794123L138.54535961538463,7.87127713290128L139.04526201923076,27.839865500710218L139.14250096153845,19.758367476029836L139.25944471153844,23.523860196200285L139.3547560096154,18.590627496892765L139.45178076923077,14.913456032492897L139.74928052884616,21.640593317205262L139.97224471153845,18.552560868696727L140.23054903846153,19.990931396484367L140.42716875,33.28531336004083L141.44517908653845,15.069975086558951L141.52742524038464,27.903290238813927L141.62552091346154,13.470312444513498L141.65593485576923,5.396710593483666L141.8720451923077,14.74035894220525L142.12499495192307,14.53460665616122L142.19910216346153,21.005265613902697L142.25821658653845,25.506830999200997L142.49960048076923,27.794403575550422L142.54886249999998,22.03779835094106L142.5692098557692,102.78588823491877L142.8360814903846,30.862106323242188L142.96630456730767,17.92388205788352L143.06911225961537,19.275404496626415L143.41951514423076,23.64002430308949L143.50304639423078,12.472762506658377L143.65704374999999,19.427513871626413L143.7326502403846,26.09467362837357L143.77463004807694,12.063467684659084L143.97146394230768,17.904112160422585L144.05371009615385,22.29020091663708L144.0911920673077,15.961270419034097L144.094190625,14.448819247159097L144.4362403846154,19.732204034978704L144.4373112980769,19.250066028941767L144.64613942307693,30.9858817915483L144.78621490384617,12.852937733043314L144.9134394230769,12.769703813032676L144.92286346153844,13.239388649680407L144.94813701923076,17.190078069513493L145.27348052884616,11.62101679021662L145.32873966346153,54.81271345658735L145.56841009615385,14.62533408425071L145.8646247596154,17.337591164328828L146.076665625,12.557557983398432L146.26450384615384,14.073485828746454L146.31676442307693,11.822143332741485L146.32576009615383,22.315352783203135L146.42128557692305,20.744839200106536L146.48896730769232,20.751046142578122L146.99379591346153,19.82168418190696L147.10859783653845,23.223746670809653L147.40674014423075,25.17593811035156L147.42044783653847,19.37383167613637L147.4268733173077,108.56215685931119L147.64019927884615,14.716542746803984L147.74257860576924,20.011545909534796L148.32258533653848,22.48051441539418L148.67620096153846,28.4408389559659L148.73188846153846,16.216305042613644L149.01268197115385,25.173286410245023L149.30375625000002,17.96486555619673L149.39821081730767,23.205734752308235L149.7653199519231,31.148593056418683L149.78095528846154,19.690798228870747L149.80151682692306,19.29712879527699L150.0863798076923,28.956457131125703L150.1666983173077,16.37413030450995L150.51067572115383,17.916319802024137L150.71350673076924,10.474971646395588L151.47642548076922,22.152381258877845L151.65569639423077,24.833161676580247L151.65719567307693,13.69053122780539L151.94334375,18.300168124112222L151.9741860576923,18.335033069957383L152.07892139423078,19.22202675559304L152.17273341346154,15.85300248579546L152.2052891826923,23.10552995161577L152.88510504807692,23.2362489457564L153.89283461538463,12.788069291548288L154.00763653846155,22.668235140713783L154.07124879807694,13.432324385209526L154.23531274038461,11.513220270330256L154.32955312500002,29.006918002041907L154.3970206730769,26.113520341352988L154.51803389423077,108.13730263449929L155.0198639423077,28.397193936434665L155.20663125000002,17.95663546475497L155.37283701923076,25.297454723011366L155.79563365384615,24.4009247381037L156.3533653846154,26.799308915571732L156.38120913461537,21.573092817826705L156.7125497596154,20.27894531250001L157.10536081730768,10.764625688032671L157.12013942307692,16.917807395241468L157.7566903846154,23.20309287331321L157.76932716346155,19.910938443270595L157.9605923076923,27.605160577947437L158.01178197115385,18.544939686168327L158.0522625,18.855836791992182L158.19662163461538,22.479542125355117L158.24374182692307,15.578050648082376L158.35340336538462,14.442867653586653L158.53845721153846,25.677168357155544L158.64340673076924,14.411341885653409L158.86679927884617,17.32416570490056L158.96896442307693,12.429176413796156L159.05656514423075,22.003306607333098L159.2668925480769,14.186418789950288L159.74730432692306,25.067424649325275L159.95099206730768,25.200245361328122L160.3219564903846,30.605868613503205L160.36693485576924,8.904791981090199L160.45603485576925,16.998379794034097L160.7698125,25.844942405007092L161.00262908653846,24.82974392977628L161.49803365384614,25.968639304421163L162.13501298076923,31.789548256613994L162.30443149038462,17.23872203480114L162.42501634615382,16.657155095880682L162.61478221153845,24.224675071022723L162.83496201923077,32.21254843971947L163.04743125,25.88145729758523L163.0523574519231,21.1404532137784L163.2123519230769,23.34331870339133L163.3143028846154,22.197352128462363L163.61437283653845,95.38236240733754L164.2665591346154,14.885721213600858L164.56384471153848,11.298520951704546L164.8876889423077,13.484513771750706L164.98064423076923,20.555144431374284L165.01319999999998,17.18982272061435L165.528309375,14.301031161221593L165.66024591346152,11.232984674627126L165.76348197115385,22.986488259055406L165.91726514423075,23.619733886718755L166.24196610576925,22.069707142223017L166.41266971153846,19.944163263494318L166.80912187500002,24.59033469460227L167.11990096153846,18.4375458318537L167.24134254807691,19.417928466796877L167.2940314903846,25.54534939852628L167.33044254807695,20.032818437056108L167.66820865384616,21.874728615500718L167.9755608173077,13.022106378728694L168.5022360576923,12.30041182084517L168.57248798076924,21.322173239968034L168.90982572115385,19.314747869318182L169.27522139423078,32.89327914151279L169.65111201923077,25.075104758522738L169.810678125,18.686687788529827L169.96510384615382,23.39591075550427L170.31186562500002,9.50448869185015L170.84175360576924,20.142854170365773L170.92549903846154,21.58972978071732L171.02209543269228,12.263808538263495L171.06279014423077,22.24159623579545L171.12982932692307,17.178263272372167L171.3915605769231,28.195870971679696L171.40205552884615,20.02379283558238L171.45431610576924,26.379672463156968L171.98570336538464,24.90847978071733L172.03368028846154,16.763065962357956L172.4644016826923,15.825100708007817L172.74669447115386,20.665739968039762L173.61306346153847,10.352914872602977L174.14959110576925,16.15573824795809L174.15044783653846,21.96359985351562L174.28024254807693,14.269642888849432L174.2870963942308,26.248285633433944L174.7720060096154,13.466050082120022L175.46338774038463,24.853461914062496L175.7465372596154,33.52488955411045L175.77031153846156,15.861428999467323L175.79558509615384,16.537583063299007L175.80715096153847,17.513860473632814L175.8140048076923,20.04889559659091L176.15948149038462,16.52313620827415L176.3736641826923,58.49825741854581L176.61183533653846,17.812756181196733L177.21261778846153,13.438816139914772L177.26444999999998,15.647191273082392L177.47499158653847,30.54334250710228L177.879796875,18.865500765713783L177.92049158653845,20.04449573863637L177.9528331730769,13.187611749822441L178.0280112980769,20.08514531915837L178.28974254807693,26.4922616854581L178.49021754807694,13.062510431463068L178.90080576923077,13.209011951793325L179.2991855769231,26.45795654296875L179.30753870192308,20.099827880859383L179.44889927884617,13.408832286487916L179.52193557692308,21.67021378950639L180.74834567307693,21.44625316273082L180.8528668269231,20.352692038796164L181.04220432692307,14.736047474254265L181.2996519230769,15.854465831409803L181.59094038461538,17.856538696289057L181.64020240384616,27.97269603382458L182.05700192307694,13.148091597123575L182.19429302884615,18.653708496093753L182.39498221153846,15.659290882457382L183.67236778846154,51.15301866011187L184.0163451923077,22.385996038263485L184.13350312499998,27.92800015536221L184.2219605769231,20.697187167080962L184.30206490384614,15.719621970436782L184.4087278846154,23.8873788174716L184.48262091346152,15.085983498313203L184.54858918269233,23.752093006480827L184.63576153846154,53.561150290749296L184.77326682692308,24.866347212357958L185.07140913461538,24.69117786754261L185.34213605769233,16.870970514470887L186.22863822115386,27.229021828391332L186.25905216346155,15.756441317471586L186.28925192307693,28.70899458451705L186.500221875,17.867518698952424L186.51307283653844,33.059491632634945L186.59874591346153,11.223438554243602L186.7336810096154,26.122693259499293L186.81571298076923,12.100905761718758L187.42549110576923,15.384653320312498L187.76111538461538,20.21651250665839L187.76218629807693,17.99111738725142L187.9009766826923,21.521777510209517L188.17748653846152,14.87139221191406L188.48548125,14.69380687366833L188.49833221153844,12.435864590731528L188.61013557692308,13.379172529740774L188.80097235576923,23.23891046697443L188.86522716346155,19.58748013583097L189.2040641826923,18.875037064985793L189.38890384615385,19.484790593927556L189.49556682692307,21.254790593927556L189.67976394230772,12.101092362837349L189.88366586538461,18.751723188920458L190.43582884615384,17.91898132324219L190.46645697115386,18.008147194602262L190.49194471153845,21.61096302379262L190.92694975961538,24.297135231711653L191.0965824519231,14.68114746093749L191.50545721153844,9.544588290127836L191.5669276442308,29.1443349942294L191.63889302884616,24.947479414506397L191.82351850961538,30.60123304887251L193.00323677884614,19.642223011363633L193.26732403846154,20.111750710227277L193.78800216346153,21.56211281516336L194.5558471153846,20.898215498490774L194.7171266826923,18.67602206143466L195.11422139423078,24.608896595348007L195.83301850961539,18.10684936523437L195.93796802884614,17.566246282404116L196.1037454326923,16.29578729802911L196.3269237980769,27.28875382856889L196.6017201923077,15.837504771839493L196.63427596153846,11.214501342773435L196.663190625,16.91598066850142L196.8613096153846,27.639917491566052L196.89707812499998,101.02466094277122L197.15152716346154,25.78861833052201L197.20400192307693,95.9619246118719L197.838196875,15.344357299804692L197.90545024038462,25.123513017134226L198.06351706730769,20.00811834161932L198.23036538461537,31.661559531471948L198.52251057692308,21.317596602006397L198.83029110576922,19.01243441495028L199.04490216346153,22.008010919744326L199.3199127403846,12.527328602183946L199.45163509615384,13.179106667258514L199.49639927884616,32.21989954168147L199.79368485576921,15.910750621448855L199.80011033653844,11.725287531072436L200.00786754807692,51.78457505659623L200.2158389423077,100.92944403908469L200.4578653846154,15.777321000532671L201.04108485576924,29.487897116921168L201.06357403846152,22.013510742187503L201.07128461538463,19.158690407492887L201.09398798076924,19.339919378107243L201.49236778846156,10.89271262428977L201.54398581730769,17.183792558149865L201.59389038461538,22.81384293989702L201.62580360576922,10.5325528231534L202.12527764423078,28.783949307528406L202.14005625,23.194037808504966L202.2632112980769,20.73591180974786L202.26599567307693,22.88998601740057L202.6468125,17.005342962091618L202.95245120192308,13.76800997647373L202.9890764423077,21.76066622647373L203.06018509615384,20.239120705344455L203.09231250000002,22.090743963068174L203.1032358173077,18.151947909268458L203.21375408653847,20.801418623490765L203.78926298076922,26.695332808061075L204.1812173076923,15.035925292968741L204.20948942307692,25.902641435102982L204.58452331730768,20.56240223277698L204.62500384615385,29.745976285067478L204.68090552884615,7.6166451748934705L204.75608365384616,20.618942371715196L204.82483629807695,17.446232299804684L205.05658197115386,18.544556662819613L205.11269783653844,24.833908081054688L205.2142204326923,14.27118480335582L205.33951730769232,9.741766745827405L205.37250144230768,17.100293468128548L205.6282355769231,12.49183510520242L205.823784375,13.637988281249996L205.88889591346154,19.790561079545455L205.92209423076923,23.27296026056464L206.12256923076924,27.462705355557524L206.32689951923078,19.41186884099787L206.3474610576923,18.261797041459516L206.48689399038463,21.324520485617903L207.02427836538462,23.088401933149857L207.02984711538463,27.939422108043328L207.25088365384616,26.532420210404826L207.25709495192308,15.453381458629263L207.34619495192308,20.941821233576L207.58222427884616,20.965509754527694L207.94676322115384,24.110759998668332L207.9489050480769,24.851625366210932L208.11896610576923,13.968930275656957L208.1735826923077,10.664244107333094L208.25882740384614,20.07814286665484L208.2999504807692,24.557866099964482L208.468940625,16.53471529873934L208.67905384615386,20.085705122514202L208.89580673076924,13.783095203746443L209.03009927884617,24.224822387695323L209.43983076923078,12.77841513893822L210.0748824519231,22.34840082341974L210.27621418269229,14.410791903409091L210.43021153846152,23.307668068625713L210.68958677884615,24.695666115500707L211.00422115384617,21.349790205522016L211.01278846153846,21.077165971235797L211.3616920673077,23.14677861993964L211.44372403846154,19.427710293856535L211.47456634615384,17.777144830877127L211.5349658653846,18.97556596235795L211.54481826923077,25.514903952858663L211.56902091346154,17.84745416814631L211.98432115384617,24.896615878018476L211.98731971153848,16.415644142844453L212.36963581730768,29.070843616832388L212.3724201923077,22.027358509410515L212.50178653846152,21.506417291814635L213.2139439903846,16.85940124511719L213.24778485576923,12.773317982066763L213.55813557692306,28.608681751598006L213.57955384615383,21.2277137895064L214.0483997596154,13.514094959605822L214.12679062499998,16.707301691228704L214.41229615384614,11.40532553932884L214.50075360576923,15.14265131170099L214.68644999999998,13.458222656250003L214.99101778846153,26.377551103071724L215.21676634615383,18.6157793634588L215.29001682692305,24.54228981711647L215.35855528846153,28.827466652610095L215.44744110576923,23.809300981001417L215.52026322115384,22.22817077636718L215.6611954326923,102.62678561470726L215.75072379807693,26.51946616432883L215.78542139423078,23.98720059481535L216.82485,9.969812954989356L217.09921802884617,17.729433871182536L217.21680432692307,19.24146273526279L217.29669447115387,23.2243359375L217.68672115384615,21.835778087269176L217.87177499999999,16.90143560236151L217.88676778846153,11.22987138227983L217.92382139423077,7.908155406605124L217.95166514423076,30.220630604137078L218.06046995192307,23.841946355646304L218.31577572115387,11.13734669078481L218.51775,27.505888782848004L218.97417331730767,20.795899158824582L219.50149110576925,30.136797596324577L219.66341322115383,16.36012539950285L220.12390600961538,11.868332020152696L220.15303485576925,29.200943880948145L220.1860189903846,22.30131841486151L220.74610673076924,22.534422496448865L220.8902516826923,13.54894026322798L221.2016733173077,22.453997414328832L222.0256341346154,19.84738603071733L222.11966033653846,21.337896839488646L222.31006875,14.324739324396312L222.63541225961538,22.49998967950994L223.5932372596154,28.66444602272728L224.04751875000002,11.126150623668332L224.289759375,26.370214732776983L224.35808365384614,26.33717651367187L224.66950528846155,17.61479203657671L224.81793389423078,18.88476978648793L225.12849879807692,10.357471868341609L225.19939326923077,13.807893510298303L225.25722259615387,21.42142539284446L225.423,12.239982521750719L225.80788629807694,12.12917092063211L226.07561466346155,20.38310802112926L226.094034375,23.33753406871449L226.33863100961537,18.852389581853696L226.42751682692307,18.166601007634952L226.5977920673077,24.26567821155894L226.63013365384614,14.554140846946021L226.92591995192305,27.41570151589134L227.5309860576923,17.111705599698155L227.63208028846154,19.864602439186786L227.63486466346154,20.640008655894892L228.21165865384617,17.3912930020419L228.63252764423075,13.043221768465916L228.90346875,31.176519386985078L228.94908966346154,19.633344726562505L229.98509134615387,16.444243219549012L230.17485721153847,23.738932717063214L230.36162451923076,15.723648626154123L230.66747740384614,20.615347844904115L230.7989855769231,12.802584894353698L231.00695697115384,95.58823991255326L231.4423903846154,12.799884088689636L231.47880144230768,16.431465953480114L231.58503605769232,19.33188570889559L231.60366995192308,25.41723299893466L231.70219399038461,50.337080716219816L231.9574997596154,21.211666093306114L232.13184447115387,29.17507507324219L233.00656658653847,14.716326682350855L233.31863076923077,23.145943825461657L233.8455201923077,22.176924216530544L234.23211995192307,10.85138538707386L234.28502307692307,32.43051818847657L234.43130985576926,22.14861977317116L234.55510745192308,17.42011796431108L234.92799951923075,15.975098544034084L234.97169278846152,19.72186240456321L234.99975072115384,14.221048029119315L235.0211689903846,29.251061012961646L235.1460375,29.739926480379964L235.1541764423077,13.51096202503552L235.20600865384617,22.675492942116477L235.23706514423077,21.146787830699576L235.53627836538462,24.537821211381395L236.6157591346154,29.6820801336115L236.64638725961538,26.045175226384938L237.006,24.935222667347297L237.07646610576924,8.399751143022025L237.12422884615387,24.397998046874996L237.518325,26.565733420632107L237.6468346153846,23.65314530806107L237.97303485576924,22.47017278497869L238.267321875,24.470212679776274L238.34100072115385,24.103178100585943L238.657134375,12.23478715376421L238.8738872596154,17.39377774325285L238.94263990384616,14.6578026788885L239.08421466346155,11.61365095658736L239.22300504807694,12.917354403409094L239.32088653846154,17.839037475585943L239.92252572115385,15.58013272372159L239.95572403846154,20.890564852627833L240.21766947115384,15.343905528675425L240.34660745192306,23.396244673295456L240.94310625,25.958209284002134L240.97309182692308,24.65010597922586L241.04527139423078,25.48495938387784L241.48113317307693,22.54740600585938L241.5758019230769,21.412664961381388L241.6190668269231,24.350198697176843L241.6732550480769,16.391130648526275L241.942696875,17.117991111061787L242.23398533653847,29.752497503107247L242.3410766826923,16.78229569868607L242.62958076923076,20.980211958451715L242.67648677884614,26.240517134232945L242.81784735576923,19.141307040127835L242.90801826923078,20.12841713645241L242.9643483173077,26.59661099520596L243.0680127403846,96.86548282970081L243.56148966346154,25.139040194424712L243.85513413461538,22.990505093661213L244.11343846153846,13.33300348455255L244.28521298076922,25.084326782226565L244.39658798076925,17.915033236416914L244.78126009615386,23.37223205566407L244.93718509615385,18.257858775745735L245.08711298076923,99.11159435619008L245.1672173076923,17.693154685280536L245.3400627403846,13.254768510298296L246.4591673076923,15.42490023526278L246.5559778846154,19.29944657759232L247.15997307692308,24.64722839355468L247.37865360576924,9.66869767622514L247.55171322115385,11.662285100763492L247.7042112980769,20.657117032137776L247.83165,19.65007007945668L247.93103076923077,21.960604414506403L248.0295548076923,20.738337624289777L248.05932620192308,19.717875033291904L248.11694134615385,32.10456040815873L248.1180122596154,19.70161127263849L248.37096201923075,24.446003639914764L248.47569735576923,24.648780129172582L248.49818653846154,14.572172407670447L248.56394062500001,21.443964843749992L248.66760504807692,21.43867126464843L248.7200798076923,21.374647438742898L248.76505817307694,9.148620716441759L248.9068471153846,19.479811290394178L249.28316610576923,16.470013816139918L249.56952836538463,23.29821033824575L249.58687716346154,13.452251420454553L249.6444923076923,23.460867587002834L250.00967379807693,19.04013977050782L250.02102548076925,18.860364324396315L250.1375408653846,18.276322465376417L250.1763079326923,12.681245061700988L250.54705817307692,6.437188609730105L250.57554447115385,28.67550459428267L250.78073149038462,19.6915839177912L251.02254375,19.061382834694594L251.17161490384615,20.37119501287286L251.18210985576926,21.80334877707742L251.45583533653846,20.016593960848727L251.90476225961538,29.583810091885653L252.08082043269232,18.782050781249996L252.33120000000002,18.598022793856543L252.33676874999998,11.009760631214483L252.35004807692306,23.939244107333103L252.72786634615386,25.016688787286924L253.2920235576923,14.006427279385651L253.4732221153846,24.186785222833805L253.7538014423077,19.375029851740056L253.83326322115386,14.595860928622159L254.5083670673077,24.78429182572798L254.64522980769232,12.981486261541193L254.91145889423078,18.072721002752132L255.13335216346155,18.031737504438926L256.04983990384613,18.123741677024146L256.0875360576923,23.44692160866477L256.1762076923077,13.56299427379261L256.32549302884615,23.508608010031967L256.32891995192307,18.762280883789057L256.9423391826923,15.940508589311088L257.0789877403846,20.382224121093753L257.2683252403846,13.183437777432523L257.56175552884616,18.09676308371804L257.6165862980769,27.71341869007458L258.0772932692308,29.86806252219461L258.0916435096154,21.38546048251066L258.2509954326923,15.589816339666198L258.38400288461537,22.987627507990055L258.5300754807692,17.703427567915472L259.1831185096154,19.00253473455256L259.2143891826923,20.873397549715907L259.33240384615385,26.356877663352275L259.4615560096154,16.58560829856178L259.5997038461539,24.673548972389924L259.7901122596154,20.77233831232244L259.8273800480769,10.490803278142762L259.9423961538461,22.34208584872159L260.42216538461537,18.2856132368608L260.492203125,23.734415005770593L260.5862293269231,26.63722129128195L260.74429615384616,16.72471452192826L260.8231153846154,29.326771961558954L260.96469014423076,8.45360029740767L261.20350384615386,18.70705677379261L261.2446269230769,17.983329245827417L261.38084711538465,15.97468605735085L261.8417682692308,14.296454523259936L261.90131105769234,11.777751908735803L262.05830697115385,29.384284390536216L262.2769875,16.096909790039064L263.5331689903846,20.701714699485095L263.6319072115385,12.818524558327416L264.20827283653847,26.558131880326712L264.3941834134615,10.908485329367906L264.63171201923075,21.647527021928262L264.6467048076923,18.869419389204538L264.738375,14.977126298384237L264.83968341346156,19.162059048739348L264.84546634615384,18.216570822975854L265.2181442307692,15.020928455699567L265.43361201923074,109.25710791674527L265.67885120192307,12.038610451438204L265.7107644230769,26.69457658247514L265.77866033653845,25.60782148881391" style="fill: none;" fill="none"></path></g></g></g></g></g></g><g transform="translate(51, 177)" clip-path="url(#clip_1)"><clipPath id="clip_1"><rect width="278" height="23"></rect></clipPath><g><g><line x1="0" y1="0" x2="0" y2="5" style="visibility: inherit;" fill="rgb(0, 0, 0)" stroke="rgb(204, 204, 204)" stroke-width="1px"></line><line x1="21.418269230769234" y1="0" x2="21.418269230769234" y2="5" style="visibility: inherit;" fill="rgb(0, 0, 0)" stroke="rgb(204, 204, 204)" stroke-width="1px"></line><line x1="42.83653846153847" y1="0" x2="42.83653846153847" y2="5" style="visibility: inherit;" fill="rgb(0, 0, 0)" stroke="rgb(204, 204, 204)" stroke-width="1px"></line><line x1="64.2548076923077" y1="0" x2="64.2548076923077" y2="5" style="visibility: inherit;" fill="rgb(0, 0, 0)" stroke="rgb(204, 204, 204)" stroke-width="1px"></line><line x1="85.67307692307693" y1="0" x2="85.67307692307693" y2="5" style="visibility: inherit;" fill="rgb(0, 0, 0)" stroke="rgb(204, 204, 204)" stroke-width="1px"></line><line x1="107.09134615384616" y1="0" x2="107.09134615384616" y2="5" style="visibility: inherit;" fill="rgb(0, 0, 0)" stroke="rgb(204, 204, 204)" stroke-width="1px"></line><line x1="128.5096153846154" y1="0" x2="128.5096153846154" y2="5" style="visibility: inherit;" fill="rgb(0, 0, 0)" stroke="rgb(204, 204, 204)" stroke-width="1px"></line><line x1="149.9278846153846" y1="0" x2="149.9278846153846" y2="5" style="visibility: inherit;" fill="rgb(0, 0, 0)" stroke="rgb(204, 204, 204)" stroke-width="1px"></line><line x1="171.34615384615387" y1="0" x2="171.34615384615387" y2="5" style="visibility: inherit;" fill="rgb(0, 0, 0)" stroke="rgb(204, 204, 204)" stroke-width="1px"></line><line x1="192.76442307692307" y1="0" x2="192.76442307692307" y2="5" style="visibility: inherit;" fill="rgb(0, 0, 0)" stroke="rgb(204, 204, 204)" stroke-width="1px"></line><line x1="214.18269230769232" y1="0" x2="214.18269230769232" y2="5" style="visibility: inherit;" fill="rgb(0, 0, 0)" stroke="rgb(204, 204, 204)" stroke-width="1px"></line><line x1="235.60096153846155" y1="0" x2="235.60096153846155" y2="5" style="visibility: inherit;" fill="rgb(0, 0, 0)" stroke="rgb(204, 204, 204)" stroke-width="1px"></line><line x1="257.0192307692308" y1="0" x2="257.0192307692308" y2="5" style="visibility: inherit;" fill="rgb(0, 0, 0)" stroke="rgb(204, 204, 204)" stroke-width="1px"></line><line x1="278.4375" y1="0" x2="278.4375" y2="5" style="visibility: inherit;" fill="rgb(0, 0, 0)" stroke="rgb(204, 204, 204)" stroke-width="1px"></line></g><g transform="translate(0, 8)"><text x="0" y="0" dx="0em" dy="0.95em" style="text-anchor: middle; visibility: hidden; font-family: Roboto, sans-serif; font-size: 12px; font-weight: 200;" fill="rgb(33, 33, 33)" stroke="none" stroke-width="1px">-100k</text><text x="21.418269230769234" y="0" dx="0em" dy="0.95em" style="text-anchor: middle; visibility: inherit; font-family: Roboto, sans-serif; font-size: 12px; font-weight: 200;" fill="rgb(33, 33, 33)" stroke="none" stroke-width="1px">0</text><text x="42.83653846153847" y="0" dx="0em" dy="0.95em" style="text-anchor: middle; visibility: hidden; font-family: Roboto, sans-serif; font-size: 12px; font-weight: 200;" fill="rgb(33, 33, 33)" stroke="none" stroke-width="1px">100k</text><text x="64.2548076923077" y="0" dx="0em" dy="0.95em" style="text-anchor: middle; visibility: inherit; font-family: Roboto, sans-serif; font-size: 12px; font-weight: 200;" fill="rgb(33, 33, 33)" stroke="none" stroke-width="1px">200k</text><text x="85.67307692307693" y="0" dx="0em" dy="0.95em" style="text-anchor: middle; visibility: hidden; font-family: Roboto, sans-serif; font-size: 12px; font-weight: 200;" fill="rgb(33, 33, 33)" stroke="none" stroke-width="1px">300k</text><text x="107.09134615384616" y="0" dx="0em" dy="0.95em" style="text-anchor: middle; visibility: inherit; font-family: Roboto, sans-serif; font-size: 12px; font-weight: 200;" fill="rgb(33, 33, 33)" stroke="none" stroke-width="1px">400k</text><text x="128.5096153846154" y="0" dx="0em" dy="0.95em" style="text-anchor: middle; visibility: hidden; font-family: Roboto, sans-serif; font-size: 12px; font-weight: 200;" fill="rgb(33, 33, 33)" stroke="none" stroke-width="1px">500k</text><text x="149.9278846153846" y="0" dx="0em" dy="0.95em" style="text-anchor: middle; visibility: inherit; font-family: Roboto, sans-serif; font-size: 12px; font-weight: 200;" fill="rgb(33, 33, 33)" stroke="none" stroke-width="1px">600k</text><text x="171.34615384615387" y="0" dx="0em" dy="0.95em" style="text-anchor: middle; visibility: hidden; font-family: Roboto, sans-serif; font-size: 12px; font-weight: 200;" fill="rgb(33, 33, 33)" stroke="none" stroke-width="1px">700k</text><text x="192.76442307692307" y="0" dx="0em" dy="0.95em" style="text-anchor: middle; visibility: inherit; font-family: Roboto, sans-serif; font-size: 12px; font-weight: 200;" fill="rgb(33, 33, 33)" stroke="none" stroke-width="1px">800k</text><text x="214.18269230769232" y="0" dx="0em" dy="0.95em" style="text-anchor: middle; visibility: hidden; font-family: Roboto, sans-serif; font-size: 12px; font-weight: 200;" fill="rgb(33, 33, 33)" stroke="none" stroke-width="1px">900k</text><text x="235.60096153846155" y="0" dx="0em" dy="0.95em" style="text-anchor: middle; visibility: inherit; font-family: Roboto, sans-serif; font-size: 12px; font-weight: 200;" fill="rgb(33, 33, 33)" stroke="none" stroke-width="1px">1M</text><text x="257.0192307692308" y="0" dx="0em" dy="0.95em" style="text-anchor: middle; visibility: hidden; font-family: Roboto, sans-serif; font-size: 12px; font-weight: 200;" fill="rgb(33, 33, 33)" stroke="none" stroke-width="1px">1.1M</text><text x="278.4375" y="0" dx="0em" dy="0.95em" style="text-anchor: middle; visibility: hidden; font-family: Roboto, sans-serif; font-size: 12px; font-weight: 200;" fill="rgb(33, 33, 33)" stroke="none" stroke-width="1px">1.2M</text></g><line x1="0" y1="0" x2="278.4375" y2="0" fill="rgb(0, 0, 0)" stroke="rgb(204, 204, 204)" stroke-width="1px"></line></g></g></g></g></svg>