<svg viewBox="0 0 330 200" xmlns="http://www.w3.org/2000/svg"><g><g><g><g><g><line x1="50" y1="177" x2="45" y2="177" style="visibility: inherit;" fill="rgb(0, 0, 0)" stroke="rgb(204, 204, 204)" stroke-width="1px"></line><line x1="50" y1="154.875" x2="45" y2="154.875" style="visibility: inherit;" fill="rgb(0, 0, 0)" stroke="rgb(204, 204, 204)" stroke-width="1px"></line><line x1="50" y1="132.75" x2="45" y2="132.75" style="visibility: inherit;" fill="rgb(0, 0, 0)" stroke="rgb(204, 204, 204)" stroke-width="1px"></line><line x1="50" y1="110.625" x2="45" y2="110.625" style="visibility: inherit;" fill="rgb(0, 0, 0)" stroke="rgb(204, 204, 204)" stroke-width="1px"></line><line x1="50" y1="88.5" x2="45" y2="88.5" style="visibility: inherit;" fill="rgb(0, 0, 0)" stroke="rgb(204, 204, 204)" stroke-width="1px"></line><line x1="50" y1="66.375" x2="45" y2="66.375" style="visibility: inherit;" fill="rgb(0, 0, 0)" stroke="rgb(204, 204, 204)" stroke-width="1px"></line><line x1="50" y1="44.25" x2="45" y2="44.25" style="visibility: inherit;" fill="rgb(0, 0, 0)" stroke="rgb(204, 204, 204)" stroke-width="1px"></line><line x1="50" y1="22.125" x2="45" y2="22.125" style="visibility: inherit;" fill="rgb(0, 0, 0)" stroke="rgb(204, 204, 204)" stroke-width="1px"></line><line x1="50" y1="0" x2="45" y2="0" style="visibility: inherit;" fill="rgb(0, 0, 0)" stroke="rgb(204, 204, 204)" stroke-width="1px"></line></g><g transform="translate(40, 0)"><text x="0" y="177" dx="0em" dy="0.3em" style="text-anchor: end; visibility: hidden; font-family: Roboto, sans-serif; font-size: 12px; font-weight: 200;" fill="rgb(33, 33, 33)" stroke="none" stroke-width="1px">-400</text><text x="0" y="154.875" dx="0em" dy="0.3em" style="text-anchor: end; visibility: inherit; font-family: Roboto, sans-serif; font-size: 12px; font-weight: 200;" fill="rgb(33, 33, 33)" stroke="none" stroke-width="1px">-300</text><text x="0" y="132.75" dx="0em" dy="0.3em" style="text-anchor: end; visibility: hidden; font-family: Roboto, sans-serif; font-size: 12px; font-weight: 200;" fill="rgb(33, 33, 33)" stroke="none" stroke-width="1px">-200</text><text x="0" y="110.625" dx="0em" dy="0.3em" style="text-anchor: end; visibility: inherit; font-family: Roboto, sans-serif; font-size: 12px; font-weight: 200;" fill="rgb(33, 33, 33)" stroke="none" stroke-width="1px">-100</text><text x="0" y="88.5" dx="0em" dy="0.3em" style="text-anchor: end; visibility: hidden; font-family: Roboto, sans-serif; font-size: 12px; font-weight: 200;" fill="rgb(33, 33, 33)" stroke="none" stroke-width="1px">0</text><text x="0" y="66.375" dx="0em" dy="0.3em" style="text-anchor: end; visibility: inherit; font-family: Roboto, sans-serif; font-size: 12px; font-weight: 200;" fill="rgb(33, 33, 33)" stroke="none" stroke-width="1px">100</text><text x="0" y="44.25" dx="0em" dy="0.3em" style="text-anchor: end; visibility: hidden; font-family: Roboto, sans-serif; font-size: 12px; font-weight: 200;" fill="rgb(33, 33, 33)" stroke="none" stroke-width="1px">200</text><text x="0" y="22.125" dx="0em" dy="0.3em" style="text-anchor: end; visibility: inherit; font-family: Roboto, sans-serif; font-size: 12px; font-weight: 200;" fill="rgb(33, 33, 33)" stroke="none" stroke-width="1px">300</text><text x="0" y="0" dx="0em" dy="0.3em" style="text-anchor: end; visibility: hidden; font-family: Roboto, sans-serif; font-size: 12px; font-weight: 200;" fill="rgb(33, 33, 33)" stroke="none" stroke-width="1px">400</text></g><line x1="50" y1="0" x2="50" y2="177" fill="rgb(0, 0, 0)" stroke="rgb(204, 204, 204)" stroke-width="1px"></line></g></g><g transform="translate(50, 0)" clip-path="url(#clip_0)"><clipPath id="clip_0"><rect width="280" height="177"></rect></clipPath><g><g><g><line x1="0" y1="0" x2="0" y2="177" fill="rgb(0, 0, 0)" stroke="rgb(66, 66, 66)" stroke-width="1px" opacity="0.25"></line><line x1="23.333333333333332" y1="0" x2="23.333333333333332" y2="177" fill="rgb(0, 0, 0)" stroke="rgb(66, 66, 66)" stroke-width="1px" opacity="0.25"></line><line x1="46.666666666666664" y1="0" x2="46.666666666666664" y2="177" fill="rgb(0, 0, 0)" stroke="rgb(66, 66, 66)" stroke-width="1px" opacity="0.25"></line><line x1="70" y1="0" x2="70" y2="177" fill="rgb(0, 0, 0)" stroke="rgb(66, 66, 66)" stroke-width="1px" opacity="0.25"></line><line x1="93.33333333333333" y1="0" x2="93.33333333333333" y2="177" fill="rgb(0, 0, 0)" stroke="rgb(66, 66, 66)" stroke-width="1px" opacity="0.25"></line><line x1="116.66666666666667" y1="0" x2="116.66666666666667" y2="177" fill="rgb(0, 0, 0)" stroke="rgb(66, 66, 66)" stroke-width="1px" opacity="0.25"></line><line x1="140" y1="0" x2="140" y2="177" fill="rgb(0, 0, 0)" stroke="rgb(66, 66, 66)" stroke-width="1px" opacity="0.25"></line><line x1="163.33333333333334" y1="0" x2="163.33333333333334" y2="177" fill="rgb(0, 0, 0)" stroke="rgb(66, 66, 66)" stroke-width="1px" opacity="0.25"></line><line x1="186.66666666666666" y1="0" x2="186.66666666666666" y2="177" fill="rgb(0, 0, 0)" stroke="rgb(66, 66, 66)" stroke-width="1px" opacity="0.25"></line><line x1="210" y1="0" x2="210" y2="177" fill="rgb(0, 0, 0)" stroke="rgb(66, 66, 66)" stroke-width="1px" opacity="0.25"></line><line x1="233.33333333333334" y1="0" x2="233.33333333333334" y2="177" fill="rgb(0, 0, 0)" stroke="rgb(66, 66, 66)" stroke-width="1px" opacity="0.25"></line><line x1="256.66666666666663" y1="0" x2="256.66666666666663" y2="177" fill="rgb(0, 0, 0)" stroke="rgb(66, 66, 66)" stroke-width="1px" opacity="0.25"></line><line x1="280" y1="0" x2="280" y2="177" fill="rgb(0, 0, 0)" stroke="rgb(66, 66, 66)" stroke-width="1px" opacity="0.25"></line></g><g><line x1="0" y1="177" x2="280" y2="177" fill="rgb(0, 0, 0)" stroke="rgb(66, 66, 66)" stroke-width="1px" opacity="0.25"></line><line x1="0" y1="154.875" x2="280" y2="154.875" fill="rgb(0, 0, 0)" stroke="rgb(66, 66, 66)" stroke-width="1px" opacity="0.25"></line><line x1="0" y1="132.75" x2="280" y2="132.75" fill="rgb(0, 0, 0)" stroke="rgb(66, 66, 66)" stroke-width="1px" opacity="0.25"></line><line x1="0" y1="110.625" x2="280" y2="110.625" fill="rgb(0, 0, 0)" stroke="rgb(66, 66, 66)" stroke-width="1px" opacity="0.25"></line><line x1="0" y1="88.5" x2="280" y2="88.5" fill="rgb(0, 0, 0)" stroke="rgb(66, 66, 66)" stroke-width="1px" opacity="0.25"></line><line x1="0" y1="66.375" x2="280" y2="66.375" fill="rgb(0, 0, 0)" stroke="rgb(66, 66, 66)" stroke-width="1px" opacity="0.25"></line><line x1="0" y1="44.25" x2="280" y2="44.25" fill="rgb(0, 0, 0)" stroke="rgb(66, 66, 66)" stroke-width="1px" opacity="0.25"></line><line x1="0" y1="22.125" x2="280" y2="22.125" fill="rgb(0, 0, 0)" stroke="rgb(66, 66, 66)" stroke-width="1px" opacity="0.25"></line><line x1="0" y1="0" x2="280" y2="0" fill="rgb(0, 0, 0)" stroke="rgb(66, 66, 66)" stroke-width="1px" opacity="0.25"></line></g></g></g><g><g><line x1="0" y1="88.5" x2="280" y2="88.5" fill="rgb(0, 0, 0)" stroke="rgb(153, 153, 153)" stroke-width="1.5px"></line></g></g><g><g><line x1="23.333333333333332" y1="0" x2="23.333333333333332" y2="177" fill="rgb(0, 0, 0)" stroke="rgb(153, 153, 153)" stroke-width="1.5px"></line></g></g><g><g><g><g><g><path stroke="rgb(204, 51, 17)" stroke-width="2px" d="M23.431333333333335,152.2692289352417L23.552666666666667,163.59389072764057L23.723,145.77902536988407L23.867666666666665,131.21363747517236L23.879333333333335,122.22576412536336L23.970333333333333,113.73731567077212L24.05666666666667,112.55493895477456L24.075333333333333,119.22896739058865L24.439333333333334,129.1024432078466L24.584,126.49440085071038L24.684333333333335,123.28745992465825L24.700666666666667,122.01566078441091L24.812666666666665,128.66127022056406L24.843,137.58250889584247L24.999333333333336,145.67757176499265L25.218666666666667,141.75765736049277L25.699333333333332,146.1933758646036L25.820666666666668,142.63038271272777L26.443666666666665,137.73487305059635L26.453,132.88799903739545L26.565,136.7186445264659L26.581333333333333,132.94379333927245L26.683999999999997,133.71567315576655L27.279,135.2141274631773L27.379333333333335,130.40024496188653L27.386333333333333,128.34124639092042L27.712999999999997,125.43580606200663L27.806333333333335,122.93366807812404L28.084,120.93482643883449L28.224,120.69535970013835L28.464333333333336,119.69979771435843L28.611333333333334,118.33078528265547L28.716333333333335,115.84309502204665L28.907666666666664,116.40550967924226L29.017333333333333,121.62253896073719L29.131666666666668,120.00734630125837L29.134,125.92651659794352L29.162000000000003,136.21771289170582L29.598333333333333,130.34293666694543L29.72666666666667,127.35811687734065L30.422,127.15012016326162L30.87,127.70761989594969L30.907333333333334,125.71509349415595L31.045,121.63926726080783L31.775333333333336,116.49599187125864L31.78,114.17152529274075L31.89666666666667,114.7757922379767L32.062333333333335,112.57536806391624L32.23266666666667,111.08065743710577L32.249,111.53443663763514L32.498666666666665,116.30785093943666L32.564,116.42403221792856L32.75066666666667,112.97956665236634L33.406333333333336,111.15682992353304L33.6,111.791252137456L33.81466666666667,113.68525411419054L33.85433333333334,112.24973117004185L34.244,111.12688854177864L34.50533333333333,111.19136738577377L34.93233333333333,111.23909991319212L35.24733333333334,107.15521345749659L35.312666666666665,106.80704133099889L35.805,106.3008878199672L35.83766666666667,107.99071569685628L36.281,106.25467504274755L36.58433333333333,108.59362625619471L36.687,115.25848586715877L36.885333333333335,115.00427878010186L37.016000000000005,113.60758017266558L37.032333333333334,111.3180883975012L37.11633333333333,109.1276077576264L37.31,110.00379140506664L37.800000000000004,105.25785312833732L37.84433333333333,105.80318988595212L38.00766666666667,113.90614325850547L38.672666666666665,110.90382408095182L38.74033333333333,119.67904085398649L38.96433333333333,118.49788984461853L38.992333333333335,115.51678887107285L39.326,115.93354858187838L39.58733333333333,114.3354221378441L40.02833333333333,113.20945296727767L40.558,111.57136064189957L40.739999999999995,110.55248284285248L40.747,110.46493275834742L40.859,109.97538705235203L41.50533333333333,109.00586063899594L41.52866666666667,109.2473718051207L41.61033333333334,107.80093785570266L41.979,106.67654813634904L42.153999999999996,107.10206770954306L42.42,106.40612287522032L42.51566666666667,114.44851155889353L42.847,112.65301612181403L42.87966666666667,110.05353331657263L43.162000000000006,112.93060449025744L43.18533333333333,112.03631094667203L43.40233333333333,110.92395435588826L44.04866666666666,113.47414441436904L44.181666666666665,112.24617332106953L44.317,110.87786793704066L44.94,109.55797381565115L45.425333333333334,108.76800925363851L45.626000000000005,111.42464077350448L45.656333333333336,113.6348513294295L45.961999999999996,114.60620294874371L46.300333333333334,116.33145985097909L46.449666666666666,113.96820584630987L47.31066666666666,111.9933308181799L47.327000000000005,110.69069973017923L47.59766666666667,109.73688179368568L47.78433333333333,106.69341941786918L47.88466666666667,105.99204379441218L48.083,109.04099183888108L48.433,106.14863763732657L48.486666666666665,104.29039971009138L48.77133333333333,105.17425393076802L48.77833333333333,105.41468743857415L48.92066666666666,105.78509125243255L48.93933333333334,104.08871831859763L49.04666666666667,102.67558218125853L49.238,102.0923550113644L49.977666666666664,107.61232954374759L50.101333333333336,105.98736993540054L50.24133333333333,103.89551465786157L50.32066666666667,103.84558897828668L50.598333333333336,103.65559609679971L50.770999999999994,101.4425464527524L51.260999999999996,102.74644041732564L51.27266666666667,105.3550744216966L51.716,104.25228837303729L52.01,102.68039611287924L52.899,105.13745728043291L53.379666666666665,102.76711527728133L53.52433333333334,100.01029793220349L53.746,100.35867423308096L53.809000000000005,97.84796760609761L53.921,96.15794099329847L54.60466666666667,103.04531059978869L54.94066666666667,100.52392623469609L55.059666666666665,99.55524736537991L55.11333333333333,104.33517762289344L55.556666666666665,102.89704093967619L55.72933333333334,101.34604155069012L56.18666666666667,100.58451969214453L56.51566666666667,98.44893014188001L56.686,98.71276447578714L56.78866666666667,98.07058811908857L57.043,96.61733758247738L57.48866666666667,97.82902233326679L57.55866666666667,95.3878891793095L57.602999999999994,96.84377688303415L57.81766666666666,96.55100549015944L57.88766666666666,96.08338785580652L58.037,97.09890954428244L58.08133333333333,95.6131393470002L59.08933333333333,95.15429355677841L59.437,93.33607919199653L59.44166666666666,93.34544524303314L59.51633333333333,92.6784551469317L60.06,90.84544935222878L60.116,90.94339586613435L60.937333333333335,91.16466638345743L61.24766666666667,90.09389881859192L61.41566666666667,90.21877436687355L62.293,91.93644001311417L62.55433333333333,92.83822366028015L62.666333333333334,92.52054164903247L62.76433333333333,89.61742897301299L63.154,86.14674588723352L63.226333333333336,93.03428333381704L63.68133333333333,93.86057408083889L63.739666666666665,89.20703689755516L63.791,87.56358007740137L64.267,89.47271373099181L64.29966666666667,91.57319726695981L64.36733333333333,89.04218113064204L64.386,91.07000397374046L65.485,89.44671488030424L66.38566666666667,86.80838527028669L67.56866666666667,88.00826009769142L67.93733333333334,90.56922481336937L68.061,89.89403998378314L68.299,89.23170545064156L68.90566666666666,84.63198408765078L69.16,84.92021861865182L69.19266666666667,87.13249167706832L69.37233333333333,84.56354448079571L69.64066666666666,86.80458012085268L69.85533333333333,85.86526319532534L69.98833333333333,87.21962310116103L70.08166666666668,88.69017354263214L70.12366666666667,86.51959202024749L70.14466666666667,88.46388011284098L70.322,89.29305565569749L70.56933333333333,87.51658239254189L70.588,88.68574750254889L70.75366666666666,87.65687300597322L71.02666666666666,90.33601197302013L71.25766666666667,93.91196089359906L71.26,91.2294354619724L71.31133333333332,89.48859658918066L71.34866666666667,91.0129054286407L71.81766666666667,85.86323839084523L71.82466666666667,86.6100702610067L71.93900000000001,87.30570375468702L71.995,83.5095088270457L72.52,81.4725723054555L72.66933333333334,82.76701816641224L72.821,84.58910656467476L72.87466666666666,83.03118829984027L73.07766666666667,83.02777153671323L73.24566666666666,87.87611448015957L73.55366666666666,87.84697185027552L74.31200000000001,85.21823255662032L74.68066666666667,81.44512929327257L75.23833333333333,78.74346142999323L75.348,76.61654247762506L75.43666666666667,77.90351149919996L75.502,79.12621974935453L75.768,71.83082084287281L76.62666666666667,72.04300329969328L77.322,74.61995831042357L77.34533333333333,73.06444649963684L77.44800000000001,73.04545135890909L77.50866666666667,72.94902125979735L77.61366666666667,71.26772150406126L77.66733333333333,71.54342274508775L77.84233333333334,73.0701595007481L77.99633333333334,72.1921197121463L78.26,70.17949963963947L78.56333333333333,73.04443906346879L78.589,71.89061004890497L78.63566666666667,79.90630374061043L79.18866666666666,78.26012326675033L79.51766666666666,80.98783429959157L79.67633333333335,77.62650173441622L79.99133333333333,83.84648687186856L79.99600000000001,79.76709179531863L80.08466666666666,84.62385092518025L80.13833333333334,85.60525703008945L80.78233333333333,82.73293068834259L81.011,79.09567456214988L81.02966666666667,77.23689854954225L81.43566666666666,83.22314874725903L81.51266666666668,83.98322222979189L81.68533333333333,79.95700134107456L81.77633333333333,80.51164531433074L81.977,77.76746689187664L82.257,81.29376880390193L82.44133333333333,77.9999678395778L82.579,82.62068505757375L83.26733333333334,79.541439274852L83.56133333333334,80.16292819264875L83.643,83.02431582863947L83.81566666666667,80.86535709331459L84.154,78.92634418961279L84.21233333333333,77.67752092779915L84.36166666666666,75.99857695191035L84.707,81.43824779071313L84.94033333333334,77.88008994794185L85.09666666666666,81.3460566540788L85.85966666666666,82.11297169208042L85.862,79.89882402953224L85.93433333333334,76.54928631989091L86.66466666666666,80.37580881237021L86.69266666666667,79.04319049842869L86.702,78.65806822536639L86.70433333333332,76.70085317345368L86.97266666666667,79.15844365374737L87.51166666666667,75.5009875645354L87.74033333333334,80.78316676887208L87.78,77.99936038667906L87.822,75.50938504840794L88.25833333333333,85.02004649475823L88.47066666666667,85.73135228931976L88.55,88.84245728147748L88.592,83.79267668016801L89.41566666666667,84.98790537258476L89.68866666666668,87.43111937843193L89.71900000000001,84.5515922602568L89.93366666666667,93.85492254796547L90.00133333333333,90.35386813535658L90.09233333333333,86.82581296171247L90.92999999999999,87.35283078688452L90.99066666666667,87.81851591012912L91.08633333333333,88.9076206369753L91.14466666666667,89.33660314679288L91.469,89.04676863821297L91.61366666666666,83.44619246780904L92.099,86.3736568842193L92.13633333333334,87.66035869828325L92.309,91.261538361734L92.42566666666667,87.65956671843516L92.743,83.35944515803503L92.93433333333334,82.22461949611413L93.345,79.52658334497583L93.40566666666668,82.5532095005864L93.548,79.52061137542094L93.73933333333333,87.6191044441949L93.90033333333332,84.53494235462462L93.996,80.85779336096955L94.09633333333333,81.53833271263318L94.40433333333334,79.51206735820061L94.42999999999999,84.77288417452053L94.76133333333333,80.62913461885192L94.98066666666666,76.10014090444834L95.01333333333334,68.4478394408779L96.614,67.40743832907933L96.70033333333333,62.6580915126763L97.29066666666667,63.0033145429828L97.55199999999999,67.56894270479806L97.70366666666666,66.50773390379477L97.72,67.45087345140215L97.85066666666665,68.87604401694534L97.87166666666666,62.882006285929165L98.00933333333333,57.58679820661648L98.03966666666668,63.28807442719575L98.40599999999999,57.95091496103733L98.483,61.289339433912694L99.015,62.03166203056092L99.26466666666666,64.11396018667892L99.533,74.87898406267506L99.64733333333334,75.584330921555L99.778,78.63614948575523L100.086,71.57627259967676L100.10466666666666,64.30953620808101L100.41266666666665,63.75538175500534L100.68799999999999,63.07363253237001L100.751,65.27513603477867L100.75566666666667,69.02308579982001L100.96566666666666,72.66941888566397L101.129,73.54689748002936L101.20833333333333,77.42191136306575L101.27366666666667,77.33835514886665L102.032,75.37174033726531L102.053,84.67642609691926L102.08099999999999,85.760009468398L102.12533333333334,82.37388412928227L102.165,78.54135230877321L102.291,70.8473302258049L102.319,78.12064290888532L102.37733333333333,75.18547209950971L102.46366666666667,69.2118704398261L102.70633333333333,71.50520005691435L102.75066666666666,72.79707964900442L102.99566666666666,75.46794649145761L103.51133333333333,76.7478164137324L103.56033333333333,78.48114130515305L103.68866666666668,75.51732514657466L103.89166666666667,79.09861137365864L104.06433333333332,72.10331799633835L104.49366666666666,68.17145136142156L105.777,62.35038862336021L105.82600000000001,67.01892529655667L105.84466666666667,71.18842911062302L105.87966666666667,73.91958801561034L106.127,75.42036520864731L106.33699999999999,73.51551008359694L106.799,74.90719251917902L106.81533333333334,68.57981210800669L106.981,69.39215105789384L107.22366666666667,72.40676447512813L107.26333333333334,70.9018651693077L107.41966666666667,75.31795187613729L107.90733333333334,70.27672858243815L107.975,78.57136151008487L108.801,84.13847808993319L108.871,85.5134423976415L108.91533333333334,82.33007548009063L109.12299999999999,78.7344656724111L109.24433333333333,77.79182516766134L109.31666666666668,70.17603844871684L109.44966666666667,73.04888766917009L110.061,69.02338018053473L110.13799999999999,72.71397740486188L110.72833333333334,75.62879716069311L110.80766666666666,78.68949768624587L111.44933333333334,70.8451244875181L111.71066666666667,72.66491284986962L112.44800000000001,69.51427786995156L112.57633333333334,68.57251689207504L113.02433333333333,66.17472089297385L113.06166666666667,69.74107997887093L113.08733333333333,73.7316447381638L113.49799999999999,74.80561912714363L113.63333333333333,67.34494758566741L113.68,62.99197349551989L113.96,59.62473396769696L114.289,61.28453477917835L114.345,65.88387136619505L114.66233333333332,63.07681592097809L114.88633333333333,66.41309633739019L115.024,78.09978730340721L115.04966666666667,70.19516617496603L115.97133333333333,64.07753157068679L116.03666666666666,70.89245192988757L116.15566666666666,73.53960802182259L116.382,75.20446029442434L116.45433333333332,76.88780281060798L116.466,72.64101962065398L116.71333333333334,75.81147134104694L117.35733333333334,72.69509445469659L117.83333333333333,74.33093413225947L118.17633333333333,76.95164203084893L118.21366666666667,78.10340481323469L118.223,70.38565975321066L118.3,80.10161018446821L118.34666666666668,86.04420355032504L118.51700000000001,81.45114032126432L119.09333333333333,82.29562505049284L119.29866666666666,72.92323057315616L119.56933333333333,65.97009685601049L119.63233333333334,63.52855567258642L119.79566666666668,59.20358249766488L119.95433333333334,59.487174319572794L120.14566666666666,53.85965565957569L120.25766666666667,51.04672976020424L120.29499999999999,48.75732466551293L121.36366666666667,54.87618514085702L121.646,50.490563917756546L121.90266666666668,53.02758020342806L122.38333333333333,50.46948679358758L122.42533333333333,55.842038726794335L122.91533333333334,62.47238143598249L123.58266666666667,61.70606591446736L123.62233333333333,65.91151156357171L123.71333333333334,66.3401179187439L124.31533333333334,73.53283734753758L124.87533333333333,66.55832567369053L124.957,63.1656896252276L125.083,59.57987817414139L125.15766666666667,55.10400521302124L125.32566666666666,51.761076956059355L125.38866666666667,55.259830178423016L125.39800000000001,51.22663318582568L125.545,47.495904367705876L125.95333333333332,44.57236770830505L125.98366666666666,51.02741907490313L126.17033333333333,48.568410849656075L126.17966666666666,55.916468526040475L126.26366666666667,53.035126703801296L126.46666666666667,49.040641639659526L126.48299999999999,45.34612531734894L126.58566666666667,44.71785521688013L126.70933333333333,44.23508702051638L127.365,41.64733440396916L127.505,44.70299026786837L127.87133333333333,52.667138886768115L127.904,48.18429617631027L128.24933333333334,47.88078630272394L128.576,50.97677100746646L129.05666666666667,47.05253103318578L129.0776666666667,54.22983922258753L129.20133333333334,59.901983435834644L129.51633333333334,63.490064842458374L129.60033333333334,58.55983580684293L129.86866666666666,54.69320562242295L130.291,50.85837445738897L130.74366666666666,58.54396797955116L130.87666666666667,59.516276911070406L131.061,59.55075040932601L131.14499999999998,57.90229625643258L131.40866666666668,62.404959707063654L131.446,58.67975049623374L131.63033333333334,54.31775204488519L131.831,49.839279326580794L133.46200000000002,47.40276506888641L133.56233333333333,45.294395199650914L133.7023333333333,43.28894131799914L133.749,41.4184055724193L134.01966666666667,39.87341292176322L134.141,46.28949958861733L134.281,53.532670256261206L134.365,61.42744386598013L134.48866666666666,62.87114958278353L134.52833333333334,56.73894476309385L134.56099999999998,53.79196287598209L134.617,51.08405160417617L134.645,57.63037733297283L134.73600000000002,55.210346779852614L134.76866666666666,51.79282646333746L135.058,49.18895126555125L135.20966666666666,56.99584075886762L135.26333333333332,56.89513961878105L135.51066666666665,59.29567351704634L135.75566666666666,54.727067373176986L135.863,51.5102564029235L136.55133333333333,49.9270611650067L137.30266666666668,46.81322265111861L137.62466666666666,43.21533222149722L138.30133333333333,42.99111981507787L138.42733333333334,49.053803403415436L138.48566666666667,45.96526392253448L138.77966666666666,43.04494959207185L138.96866666666668,41.82134607535571L139.11100000000002,45.44452145848412L139.15533333333335,44.2310250549312L140.014,41.695978939407L140.13066666666666,41.928525881040095L140.34766666666667,40.54762621085296L140.385,48.1218743059887L140.45499999999998,44.778762562009504L140.62533333333332,43.62285416698096L140.89133333333334,40.602672915933496L141.46766666666667,39.684038740404816L141.47233333333335,37.90118760810949L141.911,37.71525859453869L142.28433333333334,36.44276142511217L142.646,37.25450507021504L142.863,37.82362215206937L142.99133333333336,36.45311322400687L143.13133333333332,36.8003935490725L144.08333333333331,37.55631250532082L144.19533333333334,44.17391643205392L144.214,41.99869264707782L144.55933333333334,42.46528681659314L144.669,44.02763421264236L144.823,42.449609185315495L145.21966666666665,42.76866889939808L145.348,57.11736595401736L145.49033333333333,57.7389486598495L145.56966666666665,52.86835763092875L145.85666666666668,49.35978212947316L145.89866666666666,45.66902231247672L146.25799999999998,45.53127066024041L146.53799999999998,47.82510055069406L146.78066666666666,45.58163236257747L146.85766666666666,42.89446830417683L147.00699999999998,40.99381406351906L147.2146666666667,40.96064828809204L147.24966666666666,40.72679493145644L147.9356666666667,40.01993861877531L147.95433333333335,39.10995248663664L148.092,37.60020587196298L148.12466666666668,45.92555630269189L148.64733333333334,43.77832256105077L148.66366666666667,43.517342971756136L148.673,43.3587912041323L148.68233333333333,40.457122196757304L149.01133333333334,39.84070425667933L149.08833333333334,37.52232253470196L149.114,36.68972380611103L149.50133333333335,35.90220575280624L149.53633333333332,35.37210917755771L149.58533333333332,33.35009670562302L149.62033333333335,34.143295778518066L149.89566666666667,34.599890393511004L150.42066666666668,32.91866759807606L150.79166666666669,32.203856787253464L150.843,31.964107362529717L150.94566666666665,30.938321058914642L151.01100000000002,30.934412021256296L151.21633333333332,31.705688414524364L151.51966666666667,32.21690279417233L151.62466666666666,32.42644668282984L152.117,32.26509536710714L152.36433333333332,31.593150338246584L152.37133333333333,31.164963574202716L152.432,30.72935305081827L152.50433333333334,30.413741466002392L152.922,31.45437323745633L152.93366666666665,30.25124167722535L152.9523333333333,28.90962686452072L153.33033333333333,27.614562217736424L153.454,28.102774462254477L153.92066666666665,27.980321725746975L154.21233333333333,39.79445042455512L154.70933333333332,38.26860889915694L154.78633333333335,36.78586312212965L154.88433333333333,35.50668275177365L155.00799999999998,34.35416874594297L155.183,35.25918664399344L155.21566666666666,35.046776107612985L155.41866666666667,33.95883754004616L155.83633333333336,33.39911200267531L155.91333333333333,33.87946190628115L156.331,33.09990969249306L157.031,32.389331561402955L157.04500000000002,39.96876464522357L157.46266666666668,38.08826466541239L158.10666666666665,36.62111039861999L159.355,37.58709444672807L159.474,37.16723841013107L159.69333333333333,47.284057403269465L159.964,59.635079577216096L160.09233333333333,57.19138357321996L160.16233333333332,59.758047508144394L160.34433333333334,56.64776810422984L160.40733333333333,51.85958794224378L160.447,47.74338383805359L161.03266666666667,45.292467776612476L161.07000000000002,42.211687347158986L161.616,39.70708655099051L161.72566666666665,38.92430019378584L162.008,44.82860821709566L162.49333333333334,43.33769355368116L162.56333333333333,40.494783450454605L162.71966666666665,46.89610106115035L163.534,54.688626289556154L163.751,51.015430826668016L163.76500000000001,47.79208260812092L163.81633333333335,44.67070008056076L164.02633333333335,48.5141808257839L164.44166666666666,45.15563224313987L164.50699999999998,45.300436937170566L164.72400000000002,46.819193030968854L164.899,43.643003696721856L165.95133333333334,42.69692000693148L166.14499999999998,41.91860768369616L166.31066666666666,39.235658175886364L166.537,37.95328236911884L166.565,38.0252501225117L166.68866666666668,36.72046811540281L166.91266666666667,35.62510058669391L167.25333333333336,34.15878541089165L168.32433333333333,34.34132939457917L168.51100000000002,42.2777436516132L169.20399999999998,40.05138496766227L169.27633333333333,38.54359090286306L169.295,37.59320496217709L170.03933333333333,37.29856477792249L170.38933333333335,35.31815909402628L170.84666666666666,33.867870816877065L171.16866666666667,31.819577492925802L171.332,31.745307038024535L171.33433333333335,42.91750196888609L171.53033333333332,44.86934875749749L171.899,44.754436390112275L172.15566666666666,43.93156070611651L172.35166666666666,44.22497454934094L172.63866666666667,43.25859407379564L172.89533333333335,40.50308344519113L173.07033333333334,37.872929608540666L173.19166666666666,36.36240474788425L173.85899999999998,49.93414511433834L173.88233333333335,48.01426580999347L174.26966666666667,44.27170880560794L174.741,41.13606981707413L174.97433333333333,39.93804058247223L175,53.481903473855155L175.12599999999998,60.79237206136983L175.5716666666667,63.32542003097409L175.68133333333333,59.290540209641726L175.875,61.69186482553395L176.05,56.66895133212046L176.12233333333333,68.01616095861104L176.22966666666667,60.68093816286342L176.40233333333333,56.63639013717372L176.50033333333334,54.99325207569165L176.6543333333333,66.83443538229034L177.11633333333333,63.572491337961594L177.21200000000002,56.45935216982702L177.44766666666666,52.23371490294316L178.02866666666668,60.42615198321813L178.57933333333335,71.33139701712089L178.843,64.98209449699117L179.16966666666667,58.71282727363509L179.54533333333333,52.780815328915594L179.61066666666665,48.816146409445494L179.71566666666666,53.21608046026702L180.69333333333333,49.268084597520634L180.77266666666665,55.34667046187439L180.86366666666666,50.253372663590895L182.61366666666666,48.649473427405376L182.616,45.4814328876868L182.6556666666667,45.20919658448416L182.882,41.57548573454722L183.001,41.306254174106705L183.19466666666668,47.77480537462941L183.37666666666667,43.30267971822895L184.16766666666666,40.51844983187886L184.30533333333332,39.46805882321171L184.73233333333334,50.81244248993233L184.73466666666664,46.30594254662002L184.765,45.743587273060236L185.094,42.79922353653972L185.21066666666667,45.19913715899573L185.39499999999998,45.501742387561265L185.444,41.77838497690462L185.87800000000001,38.957035510755524L185.941,36.600744296608255L186.01100000000002,35.88414640022907L186.19533333333334,36.42514991148189L186.46833333333333,50.461746476275145L187.73533333333333,54.03742172332921L187.74466666666666,48.96496356304086L187.817,47.452326435135625L187.90099999999998,54.8905860412617L188.01999999999998,49.58510351869057L188.19733333333335,50.15319145648502L188.80166666666665,49.30720301357757L188.99066666666667,46.86604007481978L189.63466666666667,42.55399312278526L189.73266666666666,39.69636652874793L189.99866666666665,37.11945593073406L190.29266666666666,39.26011101425469L190.35333333333332,37.45124801074968L190.624,37.89351132016525L190.98333333333335,37.25040260186247L191.114,35.3589780157076L191.233,34.143061211323385L191.28433333333334,33.502011012567685L191.36133333333333,32.72629282838466L191.41966666666667,32.30244462221749L191.793,32.11694577477152L191.97500000000002,32.127060758987426L192.02633333333333,31.438850024440452L192.031,31.868026646959514L192.269,42.76971524904253L192.27599999999998,39.49852063929593L192.36933333333334,37.45700024960545L192.6353333333333,37.822527022371155L193.02033333333333,38.143167908356865L193.37033333333335,36.30345403269904L193.54533333333333,33.40517216678874L193.68766666666667,31.918625661849013L194.08433333333332,31.019079352036638L194.40866666666668,30.57533174757272L195.41199999999998,30.70431997662837L195.50766666666667,30.020079707783374L195.51933333333335,30.35200290186374L195.62900000000002,30.00293574418955L195.769,29.665665437505055L195.82266666666666,30.30551091000897L196.02566666666667,28.567795678850214L196.43633333333332,28.92432763768287L196.45266666666666,28.23550464131939L198.01833333333335,28.401787867106393L198.10233333333332,29.59215726827797L198.66,29.6621716963248L198.73233333333334,28.498371395000838L199.42766666666665,27.832884614742223L199.46966666666665,29.808148274823925L199.65633333333335,33.428692136998635L199.801,32.20686102976799L199.95966666666666,30.563360529180212L200.49866666666665,29.603296634096274L200.50333333333333,32.05113315644126L200.7973333333333,31.923476434306064L200.89766666666665,32.47353436730966L201.17533333333336,31.499620716041267L201.67233333333334,29.953682402768347L201.79133333333334,30.85401148106219L202.12733333333333,29.99659602065921L202.237,29.64539863512492L202.31166666666667,28.88588569778037L202.51,30.625408498414142L202.78066666666666,30.45386938829145L202.797,28.777987018638896L202.8226666666667,28.4607573980358L203.17033333333333,29.902845496686677L203.46200000000002,29.393054602406043L203.756,29.24721796654125L204.07333333333332,30.133672728641695L204.23666666666668,30.044021702341908L204.50033333333334,30.81039349231828L204.87133333333333,30.558837690091625L205.10233333333332,29.5782408437175L205.55033333333336,29.545187511551596L205.64833333333334,29.569327146638575L205.81866666666667,43.931108473593234L205.95166666666665,46.18522311020676L207.14166666666665,42.539137832789216L207.30033333333333,39.745411304817814L207.48,37.86610092661257L207.51266666666666,36.58473709009256L207.60366666666667,37.75180126973449L207.6783333333333,35.23049806650649L207.93733333333336,33.90048407713529L208.38766666666666,38.78888335733856L208.54866666666666,36.27293191526237L208.642,34.312496777417984L209.05966666666666,32.17654618670414L209.11333333333334,31.963301790483424L209.29066666666665,41.08068093040809L209.56133333333332,41.119342999355965L209.61966666666666,39.58161721148092L209.92533333333336,37.094813760833915L209.94166666666666,35.58567536418975L209.99533333333332,34.32534415648993L210.07233333333335,34.84178886589982L210.08166666666668,33.68355390527454L210.23333333333335,32.23931282866938L210.385,31.785450138335754L210.819,30.58754386109957L210.91,31.68475965545622L210.94733333333332,30.5890513265787L211.28333333333336,31.94782756232571L211.344,31.88634149338568L211.43033333333335,36.191736846547656L211.92733333333334,33.31404682068652L212.01833333333335,32.61821550789741L212.02300000000002,31.988726470874724L212.20733333333334,30.380631256127163L212.32399999999998,29.726395479488925L212.36833333333334,32.77027494782998L212.60633333333334,31.53388488465423L213.22233333333332,31.659776752958393L213.486,31.601599234592342L213.56766666666667,30.348271390475187L214.55466666666666,29.813980901545367L214.85333333333332,30.16268730822318L215.25,30.935521839904858L215.67233333333334,78.79641183957375L215.803,102.71834926483936L215.894,89.93100988931954L216.17866666666666,78.932425023536L216.27433333333335,69.64779548809936L216.38400000000001,62.720653402173056L216.46333333333334,57.35848271555573L216.60566666666668,51.6218103668667L216.64766666666665,48.61248539562488L216.82266666666666,46.10752172715614L217.175,42.61340445159854L217.29633333333334,39.60887952560896L217.62300000000002,37.331050056015734L218.19,35.54260750064757L218.778,34.268289401321226L219.15366666666668,32.0855224817176L219.26566666666665,30.736276922137343L219.71833333333333,31.265020933068072L219.793,31.08148995439294L219.81166666666667,29.662361951538994L219.92833333333334,28.355158335737396L220.25266666666667,28.47464295082285L220.28766666666667,29.066919377930155L220.44166666666666,29.79822057453976L220.73566666666667,29.73735787890156L220.934,29.8852348556268L221.06,30.71004868549554L221.24200000000002,29.924303354680493L221.7133333333333,29.85911894078972L221.7506666666667,30.49253867208689L221.788,29.36195478974062L221.87433333333334,29.215884236335242L222.06099999999998,28.470218181131905L222.23366666666666,28.169478209040918L222.41333333333333,40.730004605452415L222.852,38.194027330968524L222.92433333333332,36.12265900394313L223.00133333333332,34.370175052465626L223.15066666666667,33.60176609115754L223.24166666666665,32.93754028719534L223.26733333333334,31.61980912639491L223.41433333333333,31.43396568861486L223.965,31.158943923441928L224.03266666666667,31.308205595914004L224.18900000000002,30.43392944701389L225.05466666666666,29.33839787378736L225.41633333333334,29.579269785995102L225.498,31.196990971264253L225.51433333333333,30.890563994000182L225.82,31.248281347700054L225.85033333333334,32.139831191876006L225.95766666666665,35.933714145936484L226.01833333333332,36.0028457657667L226.14433333333335,33.916318800849794L226.352,34.070814513212625L227.25033333333334,33.68782763707574L227.38333333333335,32.98089760313326L227.63066666666666,32.55389773490967L227.78233333333336,30.656532568887908L227.88733333333332,31.229378530032108L228.23966666666666,32.57502481921413L228.26766666666666,32.86422789933741L228.73433333333332,43.38055119635825L228.88366666666664,53.37818892230272L228.956,62.166356058619655L228.98633333333333,56.545340003571255L229.53933333333333,51.77897635655873L229.69566666666665,48.73059254052893L230.23933333333335,66.58485795995638L230.45399999999998,60.269329097788024L230.56833333333333,53.481997928259915L230.818,49.18194323958086L231.37099999999998,46.90839332040346L231.61133333333333,43.2175723151519L231.8096666666667,54.74197323067863L231.847,49.97933724187657L232.73833333333334,46.33424322070146L232.77800000000002,43.66643702536898L233.037,41.68788554087673L233.08133333333333,39.59622153089954L233.27033333333333,56.243208717188956L233.40099999999998,50.623728051917055L233.415,46.559502597591745L233.88633333333334,43.42464946846659L234.0473333333333,51.33121126670472L234.0776666666667,47.80571277356914L234.38333333333333,45.55724707334653L235.48,41.359883607814545L235.83933333333334,38.63052737469728L235.886,37.64830143438951L236.36666666666665,35.44378744362259L236.59533333333331,34.602009518245886L236.70499999999998,33.0284795811406L236.77266666666668,31.37605466188695L237.12266666666667,30.287608723413147L237.16933333333333,29.387539861447262L237.17633333333333,27.596208378807074L237.321,27.452620868492406L237.37466666666666,27.226199185308513L237.3816666666667,26.61064621876926L237.85066666666668,27.296192850235002L238.02100000000002,36.1497444859413L238.21933333333334,35.470402455548395L238.28,42.119067037063026L238.57399999999998,39.33559679630796L238.721,37.21446443035429L239.50733333333335,36.600961906937385L239.70100000000002,35.45609084406986L239.83866666666668,54.17746879839838L239.84333333333333,51.18085201298212L239.91566666666665,58.697644659393426L240.08133333333333,54.0188199541968L240.62733333333335,50.03277455356077L240.85366666666667,46.102260417154454L241.43233333333333,43.17221974866586L241.90366666666668,56.64417999539578L242.43566666666666,52.16370445801745L242.809,48.29670210490703L243.55333333333334,44.04996922182175L243.63733333333332,40.629906046334995L243.656,37.36622803343687L243.91733333333332,36.33934350371299L244.00599999999997,33.67609045980999L244.49599999999998,32.84444303703128L244.7456666666667,31.81150757965128L245.07,31.04837818313542L245.133,30.722581358091386L245.42933333333335,29.006808401954686L245.749,27.597422507251707L245.87966666666668,27.35404228626544L245.95433333333332,27.232884911409112L246.12,26.26979325890293L246.20633333333333,27.048816499272892L247.00666666666666,26.699765282258085L247.21433333333331,25.96379868692982L247.268,25.913851714408125L247.40800000000002,26.077511550735156L247.42666666666668,24.94376339874791L247.62266666666665,24.702469557325525L248.03566666666666,24.37630777083258L248.22233333333332,33.163323170654486L248.41833333333335,31.638763285007983L248.51166666666666,32.005930836709L248.58166666666665,31.75753379084626L248.73333333333332,30.854410554253292L248.808,30.21360131758767L249.7086666666667,29.520840953658613L250.03066666666666,29.082091361672756L250.194,28.800281123111052L250.35733333333334,29.626928044591125L250.446,29.517110404289248L250.63733333333334,29.53348643761475L250.73999999999998,28.670250253835388L250.88,28.120535151488998L251.05733333333333,28.73533130047169L251.1903333333333,27.881222621559278L251.39800000000002,28.604880085887604L251.51700000000002,27.572817607956758L251.524,28.09486722414322L251.71066666666667,27.705794259324744L251.96733333333333,27.902398770076555L251.99066666666667,28.102205288219547L252.32433333333333,27.637593512898796L252.4946666666667,27.220844593107167L252.94266666666667,28.35899355490823L253.106,27.71059735254856L253.22033333333334,26.987949304974265L253.26233333333334,26.562816653035124L253.41166666666666,28.069918981968225L253.75933333333333,27.49014235022407L254.31,27.735206574362497L254.46166666666667,28.346055333568046L254.9633333333333,32.81703474888055L255.51399999999998,31.8211074499205L255.563,30.823122504438306L255.76133333333334,63.71466244111136L255.766,57.33582851688382L256.396,51.988868407084L256.62233333333336,47.23859238119587L256.6993333333333,42.86006154334041L257.32933333333335,45.88949208568072L257.42033333333336,42.59164355834776L257.80766666666665,59.63915535703796L257.9873333333333,54.812072819029495L258.041,49.31756310286159L258.419,46.36980923840475L258.66866666666664,42.865963234163914L258.74333333333334,40.50097388177142L258.8063333333333,38.47759307546852L258.82733333333334,37.27721310243586L258.993,34.39557224924937L259.14,33.5683852365063L259.168,31.53538366361069L259.3616666666667,30.812062396733758L259.546,30.45361932077908L259.59499999999997,28.963076317104605" style="fill: none;" fill="none"></path></g></g></g></g><g opacity="0.2"><g><g><g><path stroke="rgb(204, 51, 17)" stroke-width="2px" d="M23.431333333333335,152.2692289352417L23.552666666666667,173.00468467712403L23.723,118.67262102127076L23.867666666666665,100.69307328701021L23.879333333333335,99.10633223533632L23.970333333333333,88.5387249705568L24.05666666666667,108.65559614181518L24.075333333333333,143.0655449295044L24.439333333333334,166.61130374908447L24.584,116.09371284484864L24.684333333333335,109.99478894233704L24.700666666666667,116.57812259674073L24.812666666666665,157.79505706787108L24.843,177.49642833709714L24.999333333333336,182.50137908935548L25.218666666666667,123.68232856750487L25.699333333333332,166.87654987335205L25.820666666666668,125.8634924697876L26.443666666666665,114.52253771781922L26.453,109.76243187904358L26.565,155.09001789093017L26.581333333333333,114.76264271736146L26.683999999999997,137.44649173736573L27.279,142.47799140930175L27.379333333333335,107.00799327850342L27.386333333333333,118.31576694488527L27.712999999999997,111.2653171348572L27.806333333333335,110.71328933715822L28.084,111.161324300766L28.224,119.52335117340088L28.464333333333336,114.82341928482056L28.611333333333334,111.62079717636108L28.716333333333335,103.64343930244446L28.907666666666664,119.16484622955322L29.017333333333333,147.22812789916992L29.131666666666668,112.07737512588501L29.134,154.99490226745607L29.162000000000003,186.7675379562378L29.598333333333333,101.48116500377655L29.72666666666667,112.69202279090881L30.422,126.12798912048338L30.87,130.44754966735837L30.907333333333334,115.92163776397705L31.045,101.60477328300476L31.775333333333336,91.21302005767822L31.78,102.74450652122496L31.89666666666667,117.74647424697876L32.062333333333335,101.75733166694641L32.23266666666667,103.73194301605224L32.249,113.76548501014709L32.498666666666665,139.7772498893738L32.564,116.99526878356933L32.75066666666667,96.04369626045228L33.406333333333336,102.19463346004487L33.6,114.910665435791L33.81466666666667,122.99801193237303L33.85433333333334,105.19125752449035L34.244,105.60583625793456L34.50533333333333,111.50841327667236L34.93233333333333,111.47380414009093L35.24733333333334,87.07439249575137L35.312666666666665,105.0950446987152L35.805,103.81207592010496L35.83766666666667,116.29979782104492L36.281,97.71834684848787L36.58433333333333,120.0945546913147L36.687,148.0305035018921L36.885333333333335,113.75430705070495L37.016000000000005,106.73981340408326L37.032333333333334,100.06032347202301L37.11633333333333,98.35668986320498L37.31,114.31211794853212L37.800000000000004,81.92135435342789L37.84433333333333,108.48469422340393L38.00766666666667,153.74961479187013L38.672666666666665,96.14095480442047L38.74033333333333,162.82815021514892L38.96433333333333,112.689985370636L38.992333333333335,100.85824696540831L39.326,117.98282175064087L39.58733333333333,106.47718199729918L40.02833333333333,107.67288436889648L40.558,103.51660102844238L40.739999999999995,105.54249898910521L40.747,110.03443508148193L40.859,107.5682129573822L41.50533333333333,104.23854495048523L41.52866666666667,110.43492067337036L41.61033333333334,100.6885916376114L41.979,101.14774463653565L42.153999999999996,109.19441531181336L42.42,102.98405110359192L42.51566666666667,153.9942200088501L42.847,103.82427849769591L42.87966666666667,97.27146141529083L43.162000000000006,127.07762277603149L43.18533333333333,107.63892680168152L43.40233333333333,105.45431937217714L44.04866666666666,126.01383619308471L44.181666666666665,106.20804333686829L44.317,104.14969182014465L44.94,103.06784359931945L45.425333333333334,104.88362731933593L45.626000000000005,124.48772232055663L45.656333333333336,124.50280969619753L45.961999999999996,119.38249402999878L46.300333333333334,124.8148236465454L46.449666666666666,102.34770837306976L47.31066666666666,102.28255481243131L47.327000000000005,104.28545456886292L47.59766666666667,105.04680662155151L47.78433333333333,91.72822870016098L47.88466666666667,102.54326780319215L48.083,124.03315647125245L48.433,91.92646994590758L48.486666666666665,95.15314694881438L48.77133333333333,109.52030633926391L48.77833333333333,106.59693740844726L48.92066666666666,107.60642598152161L48.93933333333334,95.7473815870285L49.04666666666667,95.7269660282135L49.238,99.22453383922576L49.977666666666664,134.7549262046814L50.101333333333336,97.99718393325807L50.24133333333333,93.60952805757525L50.32066666666667,103.60009643554687L50.598333333333336,102.7213707447052L50.770999999999994,90.56062778949737L51.260999999999996,109.15789535522461L51.27266666666667,118.18214458465576L51.716,98.8297131872177L52.01,94.95115073919295L52.899,117.21921958923339L53.379666666666665,91.11176495432855L53.52433333333334,86.45458660840987L53.746,102.07169616222382L53.809000000000005,85.50242200255394L53.921,87.84781013399363L54.60466666666667,136.91160730361938L54.94066666666667,88.12587648689748L55.059666666666665,94.79209860563277L55.11333333333333,127.83885835647582L55.556666666666665,95.82549310684205L55.72933333333334,93.71952976226808L56.18666666666667,96.83999505043029L56.51566666666667,87.9478951343894L56.686,100.01008004665373L56.78866666666667,94.91290437698365L57.043,89.47147251784801L57.48866666666667,103.78706983566285L57.55866666666667,83.38444745779037L57.602999999999994,104.00260931968687L57.81766666666666,95.11140177726746L57.88766666666666,93.78403723955152L58.037,102.09239192962646L58.08133333333333,88.30736991539597L59.08933333333333,92.89807549953461L59.437,84.3956286764145L59.44166666666666,93.3914996123314L59.51633333333333,89.39875828385352L60.06,81.83226701259613L60.116,91.42501452326775L60.937333333333335,92.2526888680458L61.24766666666667,84.82876363277435L61.41566666666667,90.83280738830565L62.293,100.38247641563414L62.55433333333333,97.27243792533875L62.666333333333334,90.95844844579698L62.76433333333333,75.34236013412476L63.154,69.08084266662597L63.226333333333336,126.90140533447266L63.68133333333333,97.92357769489288L63.739666666666665,66.32485110282899L63.791,79.48244032859803L64.267,98.86022891521453L64.29966666666667,101.90161039352417L64.36733333333333,76.59677042484283L64.386,101.04113286495209L65.485,81.46474306583404L66.38566666666667,73.83529706954955L67.56866666666667,93.90823632001877L67.93733333333334,103.16189746856689L68.061,86.57404830694199L68.299,85.9749007344246L68.90566666666666,62.014419279098504L69.16,86.33751385688781L69.19266666666667,98.01059174537659L69.37233333333333,71.9316206932068L69.64066666666666,97.82411039829255L69.85533333333333,81.24649180412291L69.98833333333333,93.87922713518144L70.08166666666668,95.92110500335694L70.12366666666667,75.84649589538574L70.14466666666667,98.02425529003145L70.322,93.3702442717552L70.56933333333333,78.78137954235076L70.588,94.43471913814547L70.75366666666666,82.59773272991181L71.02666666666666,103.50976630210876L71.25766666666667,111.49547304153444L71.26,78.0390293455124L71.31133333333332,80.92861372947694L71.34866666666667,98.50817552089691L71.81766666666667,60.541502838134754L71.82466666666667,90.28236188292503L71.93900000000001,90.72624477982521L71.995,64.84301187515258L72.52,71.45663000106812L72.66933333333334,89.13201526969671L72.821,93.54860632181166L72.87466666666666,75.37065529346467L73.07766666666667,83.01097076654435L73.24566666666666,111.71619132041931L73.55366666666666,87.70367288321256L74.31200000000001,72.29230147361756L74.68066666666667,62.89217774391174L75.23833333333333,65.45892891883851L75.348,66.15814218521119L75.43666666666667,84.23174378871919L75.502,85.13847155928613L75.768,35.958178882598865L76.62666666666667,73.08633833885193L77.322,87.2912578010559L77.34533333333333,65.41574641227722L77.44800000000001,72.95204921722411L77.50866666666667,72.47485905647278L77.61366666666667,63.00050199508666L77.66733333333333,72.89908979415894L77.84233333333334,80.5773680448532L77.99633333333334,67.87465779304503L78.26,60.28312520027161L78.56333333333333,87.13180392265319L78.589,66.21704844474793L78.63566666666667,119.32075023651123L79.18866666666666,70.16559087753296L79.51766666666666,94.40042523622513L79.67633333333335,61.09829249382018L79.99133333333333,114.43114751815796L79.99600000000001,59.70805446624755L80.08466666666666,108.50531149864197L80.13833333333334,90.43098764061929L80.78233333333333,68.60924317359924L81.011,61.210705089569096L81.02966666666667,68.09699993133545L81.43566666666666,112.6584973526001L81.51266666666668,87.72062497526406L81.68533333333333,60.15942998886108L81.77633333333333,83.23891834259034L81.977,64.27390316963196L82.257,98.63315867900849L82.44133333333333,61.8038222694397L82.579,105.34148983955383L83.26733333333334,64.40029581069948L83.56133333333334,83.21888849258423L83.643,97.0942159795761L83.81566666666667,70.24941206932068L84.154,69.39190795898438L84.21233333333333,71.5368574333191L84.36166666666666,67.74294118881225L84.707,108.18597836494446L84.94033333333334,60.38405937194824L85.09666666666666,98.38876868247986L85.85966666666666,85.88401545882225L85.862,69.01150623321533L85.93433333333334,60.07907426834105L86.66466666666666,99.19143124580383L86.69266666666667,72.49049334526062L86.702,76.76436048030853L86.70433333333332,67.07691407203674L86.97266666666667,91.24280867815018L87.51166666666667,57.51669164657592L87.74033333333334,106.75648581504822L87.78,64.31093965530397L87.822,63.26577850341796L88.25833333333333,131.78548828125003L88.47066666666667,89.2289565217495L88.55,104.14025756835937L88.592,58.962098693847665L89.41566666666667,90.8650358068943L89.68866666666668,99.44479298114777L89.71900000000001,70.39249737739564L89.93366666666667,139.60088390350342L90.00133333333333,73.13862424850464L90.09233333333333,69.47780201911927L90.92999999999999,89.9442616313696L90.99066666666667,90.10836406052113L91.08633333333333,94.26292257785799L91.14466666666667,91.44597868323326L91.469,87.62160605460406L91.61366666666666,55.90726467132568L92.099,100.76846712112429L92.13633333333334,93.9872770857811L92.309,108.96911410331727L92.42566666666667,69.94809668540954L92.743,62.21506044387817L92.93433333333334,76.64450041294099L93.345,66.25990854263307L93.40566666666668,97.43561385154725L93.548,64.60884189605713L93.73933333333333,127.44068870544434L93.90033333333332,69.36962462425232L93.996,62.77666428565979L94.09633333333333,84.88465342998505L94.40433333333334,69.5485968875885L94.42999999999999,110.64116094589234L94.76133333333333,60.25365603446959L94.98066666666666,53.83035524368287L95.01333333333334,30.820250587463384L96.614,62.29161984443665L96.70033333333333,39.304794445037835L97.29066666666667,64.70083133697509L97.55199999999999,90.01886579632759L97.70366666666666,61.28960068702698L97.72,72.08844128608703L97.85066666666665,75.88383537769317L97.87166666666666,33.40836513519286L98.00933333333333,31.549414100646967L98.03966666666668,91.32216045856477L98.40599999999999,31.70724918365479L98.483,77.70490592479706L99.015,65.681780834198L99.26466666666666,74.35295289516449L99.533,127.81232631683349L99.64733333333334,79.05263411521912L99.778,93.64242893457413L100.086,36.861730041503904L100.10466666666666,28.577832412719722L100.41266666666665,61.03051577568055L100.68799999999999,59.721362686157235L100.751,76.10028047561646L100.75566666666667,87.45235357940197L100.96566666666666,90.59902121901514L101.129,77.86159991741181L101.20833333333333,96.47597371101378L101.27366666666667,76.92749589443207L102.032,65.70158111572266L102.053,130.42905252456666L102.08099999999999,91.08816202282905L102.12533333333334,65.72376485824584L102.165,59.696181049346926L102.291,33.014594421386725L102.319,113.88468338012696L102.37733333333333,60.75276829719544L102.46366666666667,39.838716716766356L102.70633333333333,82.78186817407607L102.75066666666666,79.14945799827576L102.99566666666666,88.60102546233684L103.51133333333333,83.04114129781723L103.56033333333333,87.0041767179966L103.68866666666668,60.9437675857544L103.89166666666667,96.70836791038512L104.06433333333332,37.706342868804924L104.49366666666666,48.83783494949342L105.777,33.727293148040765L105.82600000000001,89.97486597955226L105.84466666666667,91.6905454981327L105.87966666666667,87.34913269042968L106.127,82.79992643594743L106.33699999999999,64.14903310775757L106.799,81.75031739473343L106.81533333333334,37.46707174301147L106.981,73.38655145645143L107.22366666666667,87.23010027229785L107.26333333333334,63.50203485488891L107.41966666666667,97.03255574226378L107.90733333333334,45.48822824478149L107.975,119.35739679336548L108.801,111.5128797340393L108.871,92.27436156749727L108.91533333333334,66.67695176124573L109.12299999999999,61.05427780151366L109.24433333333333,73.15671120643617L109.31666666666668,32.72799842834472L109.44966666666667,87.17514626204968L110.061,49.22931673049927L110.13799999999999,90.86123357892038L110.72833333333334,89.961431581378L110.80766666666666,93.73945115804672L111.44933333333334,32.27308822631836L111.71066666666667,81.61310296297073L112.44800000000001,54.02210231781005L112.57633333333334,63.94172770500184L113.02433333333333,54.38437488555908L113.06166666666667,87.27743737757206L113.08733333333333,93.35388920545579L113.49799999999999,80.08652277946472L113.63333333333333,30.659633674621585L113.68,41.58770444869995L113.96,43.06747924804689L114.289,69.44604054450988L114.345,88.49954416980967L114.66233333333332,49.274075832366954L114.88633333333333,82.81812016010285L115.024,135.56511388778685L115.04966666666667,31.326881217956547L115.97133333333333,33.99614484786988L116.03666666666666,104.4025041103363L116.15566666666666,86.55609744429589L116.382,83.39080490112303L116.45433333333332,85.1650668990612L116.466,51.7589081954956L116.71333333333334,91.40108897209167L117.35733333333334,57.371371421813954L117.83333333333333,82.3746191740036L118.17633333333333,89.83808146119118L118.21366666666667,83.7668064236641L118.223,32.4362742805481L118.3,127.87649070739747L118.34666666666668,115.26488453865049L118.51700000000001,58.86631462097168L119.09333333333333,86.44809138178825L119.29866666666666,26.837669563293453L119.56933333333333,31.780427513122564L119.63233333333334,51.523107604980474L119.79566666666668,37.93699842453003L119.95433333333334,60.881640615463255L120.14566666666666,26.1882473373413L120.25766666666667,37.21512371063233L120.29499999999999,37.49995405197144L121.36366666666667,84.96359966754915L121.646,28.925763702392587L121.90266666666668,65.50249460220337L122.38333333333333,37.89093280792236L122.42533333333333,82.25973491907119L122.91533333333334,95.07483582258223L123.58266666666667,57.93797006607055L123.62233333333333,86.59035969614983L123.71333333333334,68.44764384269715L124.31533333333334,108.90058791160584L124.87533333333333,32.26353750228883L124.957,46.483556156158436L125.083,41.947870388031L125.15766666666667,33.095422782897955L125.32566666666666,35.32336463928222L125.38866666666667,72.46375874519349L125.39800000000001,31.394759216308596L125.545,29.151314735412598L125.95333333333332,30.19687088012696L125.98366666666666,82.76793792486191L126.17033333333333,36.47707454681396L126.17966666666666,92.04804207086563L126.26366666666667,38.86710863113404L126.46666666666667,29.399120407104498L126.48299999999999,27.179598312377927L126.58566666666667,41.62855075836182L126.70933333333333,41.86123867034912L127.365,28.922941360473626L127.505,59.72813833236693L127.87133333333333,91.82813002467155L127.904,26.14144237518311L128.24933333333334,46.38837976455688L128.576,66.20022242546081L129.05666666666667,27.756416130065922L129.0776666666667,89.52181026041508L129.20133333333334,87.7928227329254L129.51633333333334,81.13323436260224L129.60033333333334,34.31711196899414L129.86866666666666,35.68036725997925L130.291,32.00189695358277L130.74366666666666,96.33525920391082L130.87666666666667,64.29727526664733L131.061,59.72026210784912L131.14499999999998,49.79658382415771L131.40866666666668,84.54527525424956L131.446,40.36230165481568L131.63033333333334,32.86910877227784L131.831,27.817913475036615L133.46200000000002,35.42203519821167L133.56233333333333,34.92720371246338L133.7023333333333,33.42780418395996L133.749,32.22068246841432L134.01966666666667,32.276437225341795L134.141,77.8384227848053L134.281,89.1484976220131L134.365,100.24730700016022L134.48866666666666,69.97008124351501L134.52833333333334,26.585913963317875L134.56099999999998,39.30118211746217L134.617,37.76881925582885L134.645,89.8197068041563L134.73600000000002,43.310669918060306L134.76866666666666,34.988333072662364L135.058,36.38528091430665L135.20966666666666,95.38356365203859L135.26333333333332,56.399976024627684L135.51066666666665,71.09948221206665L135.75566666666666,32.26250106811524L135.863,35.69268293380737L136.55133333333333,42.142237243652346L137.30266666666668,31.50198120117187L137.62466666666666,25.523930168151864L138.30133333333333,41.88863159179687L138.42733333333334,78.86498720169068L138.48566666666667,30.778421859741208L138.77966666666666,28.68529747009277L138.96866666666668,35.80469209671021L139.11100000000002,63.26025366783142L139.15533333333335,38.26406936645508L140.014,29.23075218200683L140.13066666666666,43.07199634552001L140.34766666666667,33.757521915435795L140.385,85.36566227674484L140.45499999999998,28.34014801025391L140.62533333333332,37.93906791687012L140.89133333333334,25.751959190368662L141.46766666666667,35.166967735290534L141.47233333333335,29.13462375640869L141.911,36.80101593017579L142.28433333333334,30.185689544677743L142.646,41.245978260040275L142.863,40.62206176757813L142.99133333333336,29.714101867675787L143.13133333333332,38.508026390075685L144.08333333333331,41.27328678131103L144.19533333333334,76.71373219013215L144.214,31.302769775390633L144.55933333333334,44.75960489273071L144.669,51.70994596481324L144.823,34.6902080154419L145.21966666666665,44.337536487579335L145.348,127.67220176696779L145.49033333333333,60.79537013053894L145.56966666666665,28.918883399963384L145.85666666666668,32.107555847167966L145.89866666666666,27.520966644287117L146.25799999999998,44.85392377853393L146.53799999999998,59.104228591918954L146.78066666666666,34.55014085769653L146.85766666666666,29.681253318786613L147.00699999999998,31.647993507385248L147.2146666666667,40.79756687164306L147.24966666666666,39.57690061569213L147.9356666666667,36.54421319961547L147.95433333333335,34.63540529251099L148.092,30.17654056549072L148.12466666666668,86.86263445615769L148.64733333333334,33.22003120422363L148.66366666666667,42.23406463623047L148.673,42.57916683197021L148.68233333333333,26.18915210723878L149.01133333333334,36.80967876434326L149.08833333333334,26.122469215393068L149.114,32.5957028388977L149.50133333333335,32.0298536682129L149.53633333333332,32.76553962707519L149.58533333333332,23.407538337707514L149.62033333333335,38.04358234405517L149.89566666666667,36.84503906249999L150.42066666666668,24.651826515197744L150.79166666666669,28.689017829895025L150.843,30.78522113800049L150.94566666666665,25.894365921020498L151.01100000000002,30.915190658569333L151.21633333333332,35.498177661895745L151.51966666666667,34.73062557220459L151.62466666666666,33.45680746078492L152.117,31.471705169677733L152.36433333333332,28.28908927917481L152.37133333333333,29.059500846862786L152.432,28.58738651275634L152.50433333333334,28.861828880310064L152.922,36.57132591247558L152.93366666666665,24.33525157928467L152.9523333333333,22.31269248962403L153.33033333333333,21.246522445678714L153.454,30.503392066955573L153.92066666666665,27.378202056884774L154.21233333333333,97.88640870094301L154.70933333333332,30.765802345275876L154.78633333333335,29.494965248107906L154.88433333333333,29.216748504638673L155.00799999999998,28.687073249816898L155.183,39.709304237365714L155.21566666666666,34.00231956481934L155.41866666666667,28.60926979064941L155.83633333333336,30.646852111816415L155.91333333333333,36.241419124603276L156.331,29.266726913452143L157.031,28.895305366516112L157.04500000000002,77.2380480337143L157.46266666666668,28.84154582977295L158.10666666666665,29.40687847137451L159.355,42.336992340087896L159.474,35.10273920059205L159.69333333333333,97.0300726890564L159.964,120.36702884674074L160.09233333333333,45.17533990859985L160.16233333333332,72.37874413490296L160.34433333333334,41.35402736663819L160.40733333333333,28.3153411102295L160.447,27.503350639343253L161.03266666666667,33.24092193603515L161.07000000000002,27.06299777984619L161.616,27.39156429290771L161.72566666666665,35.075214614868166L162.008,73.86103405952453L162.49333333333334,36.00662796020507L162.56333333333333,26.51574028015136L162.71966666666665,78.37240244865417L163.534,93.00571779727935L163.751,32.95374189376832L163.76500000000001,31.942364444732664L163.81633333333335,29.322363510131826L164.02633333333335,67.41318969726562L164.44166666666666,28.64111228942871L164.50699999999998,46.01246475219727L164.72400000000002,54.28715938568115L164.899,28.025173301696785L165.95133333333334,38.044875354766845L166.14499999999998,38.09152164459228L166.31066666666666,26.043166809082027L166.537,31.64763565063476L166.565,38.37912706375123L166.68866666666668,30.30464653015137L166.91266666666667,30.23900344848633L167.25333333333336,26.948679428100583L168.32433333333333,35.238927326202386L168.51100000000002,81.30236050128937L169.20399999999998,29.10402362823486L169.27633333333333,31.129526596069333L169.295,32.92000545501708L170.03933333333333,35.849771919250486L170.38933333333335,25.58018795013427L170.84666666666666,26.736571655273448L171.16866666666667,21.74779197692871L171.332,31.38010734558105L171.33433333333335,97.85296935081482L171.53033333333332,54.466891250610345L171.899,44.18939392089843L172.15566666666666,39.88534950256348L172.35166666666666,45.66773729324341L172.63866666666667,38.506746883392346L172.89533333333335,26.953797454833992L173.07033333333334,24.940042991638187L173.19166666666666,28.93491268157959L173.85899999999998,116.66856076240539L173.88233333333335,38.57391254425048L174.26966666666667,25.86895809173585L174.741,25.717631950378408L174.97433333333333,34.047139434814454L175,120.07924112319945L175.12599999999998,96.73911405086517L175.5716666666667,75.7808215856552L175.68133333333333,39.45039150238037L175.875,73.4995616054535L176.05,31.970483207702628L176.12233333333333,123.8122035598755L176.22966666666667,24.612475776672355L176.40233333333333,36.74870132446289L176.50033333333334,46.91367971420289L176.6543333333333,125.05942548751833L177.11633333333333,47.53299133300781L177.21200000000002,21.482910461425785L177.44766666666666,31.455581359863277L178.02866666666668,100.70967395782472L178.57933333333335,124.95422910690307L178.843,33.76155961990356L179.16966666666667,27.88583873748779L179.54533333333333,23.612164878845206L179.61066666666665,29.32123592376709L179.71566666666666,74.85125913619994L180.69333333333333,29.855158195495616L180.77266666666665,85.23604829192162L180.86366666666666,25.208813667297363L182.61366666666666,40.76284463882447L182.616,29.90367141723632L182.6556666666667,43.870567188262946L182.882,23.707948951721193L183.001,39.982399578094494L183.19466666666668,79.58170506477356L183.37666666666667,21.31252338409424L184.16766666666666,26.827946662902832L184.30533333333332,34.30311841964721L184.73233333333334,106.59458939552306L184.73466666666664,24.146762351989743L184.765,42.97839654922485L185.094,28.321316642761225L185.21066666666667,56.99989585876465L185.39499999999998,46.98970064163209L185.444,23.470041732788083L185.87800000000001,25.084009437561036L185.941,25.01448394775391L186.01100000000002,32.360520057678215L186.19533333333334,39.08535060882569L186.46833333333333,119.48193431854249L187.73533333333333,71.61958817481995L187.74466666666666,24.02287639617919L187.817,40.014448013305675L187.90099999999998,91.4656968855858L188.01999999999998,23.497198333740233L188.19733333333335,52.94657060623169L188.80166666666665,45.147342681884766L188.99066666666667,34.86245189666749L189.63466666666667,21.35096935272217L189.73266666666666,25.644960021972665L189.99866666666665,24.44837482452393L190.29266666666666,49.786054058074946L190.35333333333332,28.55677963256836L190.624,40.068190670013436L190.98333333333335,34.08813428878784L191.114,26.058541145324714L191.233,28.164204025268546L191.28433333333334,30.349864768981938L191.36133333333333,28.911962585449224L191.41966666666667,30.218315277099602L191.793,31.204818305969244L191.97500000000002,32.17679775238036L192.02633333333333,28.0548078918457L192.031,33.97835666656495L192.269,96.37505979537964L192.27599999999998,23.413534126281736L192.36933333333334,27.41851833343506L192.6353333333333,39.6198805618286L193.02033333333333,39.719810371398914L193.37033333333335,27.257286987304685L193.54533333333333,19.15385719299316L193.68766666666667,24.60903900146484L194.08433333333332,26.59586643218994L194.40866666666668,28.39335388183593L195.41199999999998,31.338575706481944L195.50766666666667,26.655560989379886L195.51933333333335,31.984122276306152L195.62900000000002,28.286516761779794L195.769,28.007253456115727L195.82266666666666,33.45173332214355L196.02566666666667,20.023172264099113L196.43633333333332,30.677452239990227L196.45266666666666,24.848451919555668L198.01833333333335,29.219429054260257L198.10233333333332,35.44539379119873L198.66,30.006443824768073L198.73233333333334,22.77577938079833L199.42766666666665,24.560579795837405L199.46966666666665,39.52083526611329L199.65633333333335,51.23148473739625L199.801,26.198922271728524L199.95966666666666,22.482005996704096L200.49866666666665,24.8825090789795L200.50333333333333,44.087536411285406L200.7973333333333,31.295767936706536L200.89766666666665,35.17825710296632L201.17533333333336,26.710731697082515L201.67233333333334,22.352056732177733L201.79133333333334,35.281073398590095L202.12733333333333,25.78054721832276L202.237,27.91850498199463L202.31166666666667,25.151239242553718L202.51,39.17892002105713L202.78066666666666,29.610384178161617L202.797,20.537405662536617L202.8226666666667,26.900888671875L203.17033333333333,36.993823070526126L203.46200000000002,26.886331329345705L203.756,28.53011592864991L204.07333333333332,34.492512416839595L204.23666666666668,29.603193283081055L204.50033333333334,34.578766021728505L204.87133333333333,29.321897621154793L205.10233333333332,24.756489486694335L205.55033333333336,29.382658996582034L205.64833333333334,29.688025588989266L205.81866666666667,114.5502817440033L205.95166666666665,57.26906490325928L207.14166666666665,24.610754013061523L207.30033333333333,26.008211631774905L207.48,28.625231552124028L207.51266666666666,30.284066390991207L207.60366666666667,43.490442295074466L207.6783333333333,22.832847404479985L207.93733333333336,27.360592803955075L208.38766666666666,62.825923604965205L208.54866666666666,23.90159671783447L208.642,24.672723999023436L209.05966666666666,21.67373588562012L209.11333333333334,30.914745025634762L209.29066666666665,85.91229078412056L209.56133333333332,41.30945056915283L209.61966666666666,32.020373840332034L209.92533333333336,24.86680389404297L209.94166666666666,28.16500076293946L209.99533333333332,28.128094253540045L210.07233333333335,37.38123001098632L210.08166666666668,27.98832756042481L210.23333333333335,25.13774871826172L210.385,29.55373477935791L210.819,24.69724731445313L210.91,37.07994501113891L210.94733333333332,25.201278419494628L211.28333333333336,38.62914739608765L211.344,31.584004669189454L211.43033333333335,57.36205364227295L211.92733333333334,19.163985214233396L212.01833333333335,29.19670177459717L212.02300000000002,28.893428306579587L212.20733333333334,22.47337017059327L212.32399999999998,26.509413642883295L212.36833333333334,47.7375165939331L212.60633333333334,25.454357414245607L213.22233333333332,32.278807182312015L213.486,31.315531082153324L213.56766666666667,24.1854581451416L214.55466666666666,27.186789207458492L214.85333333333332,31.87733242034912L215.25,34.73567270278931L215.67233333333334,314.13605438232423L215.803,220.34633743286133L215.894,27.05361923217774L216.17866666666666,24.85062606811524L216.27433333333335,23.993788719177246L216.38400000000001,28.65878906249999L216.46333333333334,30.991832771301272L216.60566666666668,23.41367591857909L216.64766666666665,33.8151537322998L216.82266666666666,33.79021516799926L217.175,25.432271575927743L217.29633333333334,24.835150451660155L217.62300000000002,26.130598640441903L218.19,26.748549728393556L218.778,28.002263717651363L219.15366666666668,21.352508811950685L219.26566666666665,24.101820945739746L219.71833333333333,33.86493970870972L219.793,30.179038810729985L219.81166666666667,22.68428283691407L219.92833333333334,21.927429313659676L220.25266666666667,29.062167892456056L220.28766666666667,31.979237194061287L220.44166666666666,33.39414539337157L220.73566666666667,29.438086280822755L220.934,30.61236957550049L221.06,34.76579006195069L221.24200000000002,26.06066802978516L221.7133333333333,29.53859676361083L221.7506666666667,33.60716468811036L221.788,23.80269321441651L221.87433333333334,28.497631988525388L222.06099999999998,24.803659057617196L222.23366666666666,26.690691719055177L222.41333333333333,102.49211960792542L222.852,25.72422191619873L222.92433333333332,25.937410011291494L223.00133333333332,25.752931480407707L223.15066666666667,29.823376464843754L223.24166666666665,29.67143589019776L223.26733333333334,25.14031448364257L223.41433333333333,30.520143814086918L223.965,29.80661796569824L224.03266666666667,32.04214908599854L224.18900000000002,26.13497394561767L225.05466666666666,23.95149410247802L225.41633333333334,30.76367546081543L225.498,39.15158449172974L225.51433333333333,29.383813591003417L225.82,33.00723472595214L225.85033333333334,36.52372421264648L225.95766666666665,54.588842754364L226.01833333333332,36.342776985168456L226.14433333333335,23.656532363891607L226.352,34.83049461364746L227.25033333333334,31.804619979858394L227.38333333333335,29.504809684753422L227.63066666666666,30.454271163940437L227.78233333333336,21.326884918212887L227.88733333333332,34.04615364074708L228.23966666666666,39.19178260803222L228.26766666666666,34.286285648345945L228.73433333333332,95.0909929704666L228.88366666666664,102.53817087650299L228.956,105.37917789459227L228.98633333333333,28.905906028747562L229.53933333333333,28.342004814147952L229.69566666666665,33.74120229721069L230.23933333333335,154.37713348388672L230.45399999999998,29.214864692687986L230.56833333333333,20.107606201171876L230.818,28.037887344360353L231.37099999999998,35.72898513793946L231.61133333333333,25.069215774536133L231.8096666666667,111.40929370880127L231.847,26.56069519042969L232.73833333333334,28.41073356628419L232.77800000000002,30.548407745361324L233.037,31.95903179168701L233.08133333333333,29.311175422668462L233.27033333333333,138.09910429000854L233.40099999999998,22.99184383392333L233.415,26.575056724548336L233.88633333333334,28.010075798034666L234.0473333333333,90.20903880715369L234.0776666666667,30.470273437499994L234.38333333333333,34.501182003021235L235.48,20.72077686309815L235.83933333333334,25.209846725463866L235.886,32.81853956222534L236.36666666666665,24.60383995056153L236.59533333333331,30.46285297393799L236.70499999999998,25.291181488037104L236.77266666666668,23.250817337036136L237.12266666666667,24.935546150207518L237.16933333333333,24.96175746917725L237.17633333333333,18.78794528961182L237.321,26.746578140258784L237.37466666666666,26.112847595214845L237.3816666666667,23.583873939514156L237.85066666666668,30.66713516235351L238.02100000000002,79.6840723514557L238.21933333333334,32.129969158172614L238.28,74.81161299705505L238.57399999999998,25.64882892608642L238.721,26.7845177078247L239.50733333333335,33.58427198410035L239.70100000000002,29.826576919555663L239.83866666666668,146.23347518920897L239.84333333333333,36.4460085296631L239.91566666666665,95.65891500949859L240.08133333333333,31.012291374206537L240.62733333333335,30.432752494812004L240.85366666666667,26.775294456481927L241.43233333333333,28.764741668701173L241.90366666666668,122.88796085357666L242.43566666666666,30.132490425109864L242.809,29.282033729553227L243.55333333333334,23.16810516357422L243.63733333333332,23.812909011840812L243.656,21.318201828002934L243.91733333333332,31.289988212585445L244.00599999999997,20.580449752807613L244.49599999999998,28.755099792480472L244.7456666666667,26.732398910522456L245.07,27.295949020385745L245.133,29.12058631896972L245.42933333333335,20.57007865905762L245.749,20.66724689483643L245.87966666666668,26.157302856445312L245.95433333333332,26.637134742736812L246.12,21.53411773681641L246.20633333333333,30.87939823150634L247.00666666666666,24.98342468261719L247.21433333333331,22.344933357238776L247.268,25.668254470825204L247.40800000000002,26.882253112792963L247.42666666666668,19.36894260406495L247.62266666666665,23.51598918914794L248.03566666666666,22.772518157958984L248.22233333333332,76.37048173427581L248.41833333333335,24.14225875854493L248.51166666666666,33.811352348327645L248.58166666666665,30.536125831604L248.73333333333332,26.413609313964848L248.808,27.062639923095702L249.7086666666667,26.11442756652832L250.03066666666666,26.92468952178955L250.194,27.414575157165533L250.35733333333334,33.691683025360106L250.446,28.977119522094732L250.63733333333334,29.614010009765618L250.73999999999998,24.42558002471924L250.88,25.41749816894532L251.05733333333333,31.75838218688966L251.1903333333333,23.681433792114266L251.39800000000002,32.1632194519043L251.51700000000002,22.498001518249506L251.524,30.661868591308597L251.71066666666667,25.792660331726083L251.96733333333333,28.869134559631338L251.99066666666667,29.08468585968018L252.32433333333333,25.35302318572997L252.4946666666667,25.171623573303233L252.94266666666667,33.955453834533685L253.106,24.52232963562012L253.22033333333334,23.434573402404784L253.26233333333334,24.472371482849113L253.41166666666666,35.480581912994374L253.75933333333333,24.63928802490235L254.31,28.94022651672363L254.46166666666667,31.34969627380372L254.9633333333333,54.801554832458486L255.51399999999998,26.923973808288576L255.563,25.9158710861206L255.76133333333334,225.44761917114255L255.766,25.9700830078125L256.396,25.697011299133305L256.62233333333336,23.88072624206542L256.6993333333333,21.33012588500977L257.32933333333335,60.78568605422974L257.42033333333336,26.375595474243156L257.80766666666665,143.46449443817139L257.9873333333333,31.07653678894042L258.041,22.300181007385262L258.419,31.87523254394532L258.66866666666664,25.636992645263668L258.74333333333334,28.871943397521967L258.8063333333333,28.528306388854972L258.82733333333334,31.37475299835205L258.993,20.22608379364014L259.14,29.50097454071044L259.168,21.538790130615226L259.3616666666667,27.255376167297367L259.546,28.691097450256343L259.59499999999997,21.63383823394776" style="fill: none;" fill="none"></path></g></g></g></g></g></g><g transform="translate(50, 177)" clip-path="url(#clip_1)"><clipPath id="clip_1"><rect width="280" height="23"></rect></clipPath><g><g><line x1="0" y1="0" x2="0" y2="5" style="visibility: inherit;" fill="rgb(0, 0, 0)" stroke="rgb(204, 204, 204)" stroke-width="1px"></line><line x1="23.333333333333332" y1="0" x2="23.333333333333332" y2="5" style="visibility: inherit;" fill="rgb(0, 0, 0)" stroke="rgb(204, 204, 204)" stroke-width="1px"></line><line x1="46.666666666666664" y1="0" x2="46.666666666666664" y2="5" style="visibility: inherit;" fill="rgb(0, 0, 0)" stroke="rgb(204, 204, 204)" stroke-width="1px"></line><line x1="70" y1="0" x2="70" y2="5" style="visibility: inherit;" fill="rgb(0, 0, 0)" stroke="rgb(204, 204, 204)" stroke-width="1px"></line><line x1="93.33333333333333" y1="0" x2="93.33333333333333" y2="5" style="visibility: inherit;" fill="rgb(0, 0, 0)" stroke="rgb(204, 204, 204)" stroke-width="1px"></line><line x1="116.66666666666667" y1="0" x2="116.66666666666667" y2="5" style="visibility: inherit;" fill="rgb(0, 0, 0)" stroke="rgb(204, 204, 204)" stroke-width="1px"></line><line x1="140" y1="0" x2="140" y2="5" style="visibility: inherit;" fill="rgb(0, 0, 0)" stroke="rgb(204, 204, 204)" stroke-width="1px"></line><line x1="163.33333333333334" y1="0" x2="163.33333333333334" y2="5" style="visibility: inherit;" fill="rgb(0, 0, 0)" stroke="rgb(204, 204, 204)" stroke-width="1px"></line><line x1="186.66666666666666" y1="0" x2="186.66666666666666" y2="5" style="visibility: inherit;" fill="rgb(0, 0, 0)" stroke="rgb(204, 204, 204)" stroke-width="1px"></line><line x1="210" y1="0" x2="210" y2="5" style="visibility: inherit;" fill="rgb(0, 0, 0)" stroke="rgb(204, 204, 204)" stroke-width="1px"></line><line x1="233.33333333333334" y1="0" x2="233.33333333333334" y2="5" style="visibility: inherit;" fill="rgb(0, 0, 0)" stroke="rgb(204, 204, 204)" stroke-width="1px"></line><line x1="256.66666666666663" y1="0" x2="256.66666666666663" y2="5" style="visibility: inherit;" fill="rgb(0, 0, 0)" stroke="rgb(204, 204, 204)" stroke-width="1px"></line><line x1="280" y1="0" x2="280" y2="5" style="visibility: inherit;" fill="rgb(0, 0, 0)" stroke="rgb(204, 204, 204)" stroke-width="1px"></line></g><g transform="translate(0, 8)"><text x="0" y="0" dx="0em" dy="0.95em" style="text-anchor: middle; visibility: hidden; font-family: Roboto, sans-serif; font-size: 12px; font-weight: 200;" fill="rgb(33, 33, 33)" stroke="none" stroke-width="1px">-10k</text><text x="23.333333333333332" y="0" dx="0em" dy="0.95em" style="text-anchor: middle; visibility: inherit; font-family: Roboto, sans-serif; font-size: 12px; font-weight: 200;" fill="rgb(33, 33, 33)" stroke="none" stroke-width="1px">0</text><text x="46.666666666666664" y="0" dx="0em" dy="0.95em" style="text-anchor: middle; visibility: hidden; font-family: Roboto, sans-serif; font-size: 12px; font-weight: 200;" fill="rgb(33, 33, 33)" stroke="none" stroke-width="1px">10k</text><text x="70" y="0" dx="0em" dy="0.95em" style="text-anchor: middle; visibility: inherit; font-family: Roboto, sans-serif; font-size: 12px; font-weight: 200;" fill="rgb(33, 33, 33)" stroke="none" stroke-width="1px">20k</text><text x="93.33333333333333" y="0" dx="0em" dy="0.95em" style="text-anchor: middle; visibility: hidden; font-family: Roboto, sans-serif; font-size: 12px; font-weight: 200;" fill="rgb(33, 33, 33)" stroke="none" stroke-width="1px">30k</text><text x="116.66666666666667" y="0" dx="0em" dy="0.95em" style="text-anchor: middle; visibility: inherit; font-family: Roboto, sans-serif; font-size: 12px; font-weight: 200;" fill="rgb(33, 33, 33)" stroke="none" stroke-width="1px">40k</text><text x="140" y="0" dx="0em" dy="0.95em" style="text-anchor: middle; visibility: hidden; font-family: Roboto, sans-serif; font-size: 12px; font-weight: 200;" fill="rgb(33, 33, 33)" stroke="none" stroke-width="1px">50k</text><text x="163.33333333333334" y="0" dx="0em" dy="0.95em" style="text-anchor: middle; visibility: inherit; font-family: Roboto, sans-serif; font-size: 12px; font-weight: 200;" fill="rgb(33, 33, 33)" stroke="none" stroke-width="1px">60k</text><text x="186.66666666666666" y="0" dx="0em" dy="0.95em" style="text-anchor: middle; visibility: hidden; font-family: Roboto, sans-serif; font-size: 12px; font-weight: 200;" fill="rgb(33, 33, 33)" stroke="none" stroke-width="1px">70k</text><text x="210" y="0" dx="0em" dy="0.95em" style="text-anchor: middle; visibility: inherit; font-family: Roboto, sans-serif; font-size: 12px; font-weight: 200;" fill="rgb(33, 33, 33)" stroke="none" stroke-width="1px">80k</text><text x="233.33333333333334" y="0" dx="0em" dy="0.95em" style="text-anchor: middle; visibility: hidden; font-family: Roboto, sans-serif; font-size: 12px; font-weight: 200;" fill="rgb(33, 33, 33)" stroke="none" stroke-width="1px">90k</text><text x="256.66666666666663" y="0" dx="0em" dy="0.95em" style="text-anchor: middle; visibility: inherit; font-family: Roboto, sans-serif; font-size: 12px; font-weight: 200;" fill="rgb(33, 33, 33)" stroke="none" stroke-width="1px">100k</text><text x="280" y="0" dx="0em" dy="0.95em" style="text-anchor: middle; visibility: hidden; font-family: Roboto, sans-serif; font-size: 12px; font-weight: 200;" fill="rgb(33, 33, 33)" stroke="none" stroke-width="1px">110k</text></g><line x1="0" y1="0" x2="280" y2="0" fill="rgb(0, 0, 0)" stroke="rgb(204, 204, 204)" stroke-width="1px"></line></g></g></g></g></svg>