<svg viewBox="0 0 330 200" xmlns="http://www.w3.org/2000/svg"><g><g><g><g><g><line x1="82.734375" y1="177" x2="77.734375" y2="177" style="visibility: inherit;" fill="rgb(0, 0, 0)" stroke="rgb(204, 204, 204)" stroke-width="1px"></line><line x1="82.734375" y1="154.875" x2="77.734375" y2="154.875" style="visibility: inherit;" fill="rgb(0, 0, 0)" stroke="rgb(204, 204, 204)" stroke-width="1px"></line><line x1="82.734375" y1="132.75" x2="77.734375" y2="132.75" style="visibility: inherit;" fill="rgb(0, 0, 0)" stroke="rgb(204, 204, 204)" stroke-width="1px"></line><line x1="82.734375" y1="110.625" x2="77.734375" y2="110.625" style="visibility: inherit;" fill="rgb(0, 0, 0)" stroke="rgb(204, 204, 204)" stroke-width="1px"></line><line x1="82.734375" y1="88.5" x2="77.734375" y2="88.5" style="visibility: inherit;" fill="rgb(0, 0, 0)" stroke="rgb(204, 204, 204)" stroke-width="1px"></line><line x1="82.734375" y1="66.375" x2="77.734375" y2="66.375" style="visibility: inherit;" fill="rgb(0, 0, 0)" stroke="rgb(204, 204, 204)" stroke-width="1px"></line><line x1="82.734375" y1="44.25" x2="77.734375" y2="44.25" style="visibility: inherit;" fill="rgb(0, 0, 0)" stroke="rgb(204, 204, 204)" stroke-width="1px"></line><line x1="82.734375" y1="22.125" x2="77.734375" y2="22.125" style="visibility: inherit;" fill="rgb(0, 0, 0)" stroke="rgb(204, 204, 204)" stroke-width="1px"></line><line x1="82.734375" y1="0" x2="77.734375" y2="0" style="visibility: inherit;" fill="rgb(0, 0, 0)" stroke="rgb(204, 204, 204)" stroke-width="1px"></line></g><g transform="translate(72.734375, 0)"><text x="0" y="177" dx="0em" dy="0.3em" style="text-anchor: end; visibility: hidden; font-family: Roboto, sans-serif; font-size: 12px; font-weight: 200;" fill="rgb(33, 33, 33)" stroke="none" stroke-width="1px">-3.5e+3</text><text x="0" y="154.875" dx="0em" dy="0.3em" style="text-anchor: end; visibility: inherit; font-family: Roboto, sans-serif; font-size: 12px; font-weight: 200;" fill="rgb(33, 33, 33)" stroke="none" stroke-width="1px">-3e+3</text><text x="0" y="132.75" dx="0em" dy="0.3em" style="text-anchor: end; visibility: hidden; font-family: Roboto, sans-serif; font-size: 12px; font-weight: 200;" fill="rgb(33, 33, 33)" stroke="none" stroke-width="1px">-2.5e+3</text><text x="0" y="110.625" dx="0em" dy="0.3em" style="text-anchor: end; visibility: inherit; font-family: Roboto, sans-serif; font-size: 12px; font-weight: 200;" fill="rgb(33, 33, 33)" stroke="none" stroke-width="1px">-2e+3</text><text x="0" y="88.5" dx="0em" dy="0.3em" style="text-anchor: end; visibility: hidden; font-family: Roboto, sans-serif; font-size: 12px; font-weight: 200;" fill="rgb(33, 33, 33)" stroke="none" stroke-width="1px">-1.5e+3</text><text x="0" y="66.375" dx="0em" dy="0.3em" style="text-anchor: end; visibility: inherit; font-family: Roboto, sans-serif; font-size: 12px; font-weight: 200;" fill="rgb(33, 33, 33)" stroke="none" stroke-width="1px">-1e+3</text><text x="0" y="44.25" dx="0em" dy="0.3em" style="text-anchor: end; visibility: hidden; font-family: Roboto, sans-serif; font-size: 12px; font-weight: 200;" fill="rgb(33, 33, 33)" stroke="none" stroke-width="1px">-500</text><text x="0" y="22.125" dx="0em" dy="0.3em" style="text-anchor: end; visibility: inherit; font-family: Roboto, sans-serif; font-size: 12px; font-weight: 200;" fill="rgb(33, 33, 33)" stroke="none" stroke-width="1px">0</text><text x="0" y="0" dx="0em" dy="0.3em" style="text-anchor: end; visibility: hidden; font-family: Roboto, sans-serif; font-size: 12px; font-weight: 200;" fill="rgb(33, 33, 33)" stroke="none" stroke-width="1px">500</text></g><line x1="82.734375" y1="0" x2="82.734375" y2="177" fill="rgb(0, 0, 0)" stroke="rgb(204, 204, 204)" stroke-width="1px"></line></g></g><g transform="translate(82, 0)" clip-path="url(#clip_0)"><clipPath id="clip_0"><rect width="247" height="177"></rect></clipPath><g><g><g><line x1="0" y1="0" x2="0" y2="177" fill="rgb(0, 0, 0)" stroke="rgb(66, 66, 66)" stroke-width="1px" opacity="0.25"></line><line x1="22.478693181818183" y1="0" x2="22.478693181818183" y2="177" fill="rgb(0, 0, 0)" stroke="rgb(66, 66, 66)" stroke-width="1px" opacity="0.25"></line><line x1="44.95738636363637" y1="0" x2="44.95738636363637" y2="177" fill="rgb(0, 0, 0)" stroke="rgb(66, 66, 66)" stroke-width="1px" opacity="0.25"></line><line x1="67.43607954545455" y1="0" x2="67.43607954545455" y2="177" fill="rgb(0, 0, 0)" stroke="rgb(66, 66, 66)" stroke-width="1px" opacity="0.25"></line><line x1="89.91477272727273" y1="0" x2="89.91477272727273" y2="177" fill="rgb(0, 0, 0)" stroke="rgb(66, 66, 66)" stroke-width="1px" opacity="0.25"></line><line x1="112.3934659090909" y1="0" x2="112.3934659090909" y2="177" fill="rgb(0, 0, 0)" stroke="rgb(66, 66, 66)" stroke-width="1px" opacity="0.25"></line><line x1="134.8721590909091" y1="0" x2="134.8721590909091" y2="177" fill="rgb(0, 0, 0)" stroke="rgb(66, 66, 66)" stroke-width="1px" opacity="0.25"></line><line x1="157.35085227272728" y1="0" x2="157.35085227272728" y2="177" fill="rgb(0, 0, 0)" stroke="rgb(66, 66, 66)" stroke-width="1px" opacity="0.25"></line><line x1="179.82954545454547" y1="0" x2="179.82954545454547" y2="177" fill="rgb(0, 0, 0)" stroke="rgb(66, 66, 66)" stroke-width="1px" opacity="0.25"></line><line x1="202.30823863636365" y1="0" x2="202.30823863636365" y2="177" fill="rgb(0, 0, 0)" stroke="rgb(66, 66, 66)" stroke-width="1px" opacity="0.25"></line><line x1="224.7869318181818" y1="0" x2="224.7869318181818" y2="177" fill="rgb(0, 0, 0)" stroke="rgb(66, 66, 66)" stroke-width="1px" opacity="0.25"></line><line x1="247.265625" y1="0" x2="247.265625" y2="177" fill="rgb(0, 0, 0)" stroke="rgb(66, 66, 66)" stroke-width="1px" opacity="0.25"></line></g><g><line x1="0" y1="177" x2="247.265625" y2="177" fill="rgb(0, 0, 0)" stroke="rgb(66, 66, 66)" stroke-width="1px" opacity="0.25"></line><line x1="0" y1="154.875" x2="247.265625" y2="154.875" fill="rgb(0, 0, 0)" stroke="rgb(66, 66, 66)" stroke-width="1px" opacity="0.25"></line><line x1="0" y1="132.75" x2="247.265625" y2="132.75" fill="rgb(0, 0, 0)" stroke="rgb(66, 66, 66)" stroke-width="1px" opacity="0.25"></line><line x1="0" y1="110.625" x2="247.265625" y2="110.625" fill="rgb(0, 0, 0)" stroke="rgb(66, 66, 66)" stroke-width="1px" opacity="0.25"></line><line x1="0" y1="88.5" x2="247.265625" y2="88.5" fill="rgb(0, 0, 0)" stroke="rgb(66, 66, 66)" stroke-width="1px" opacity="0.25"></line><line x1="0" y1="66.375" x2="247.265625" y2="66.375" fill="rgb(0, 0, 0)" stroke="rgb(66, 66, 66)" stroke-width="1px" opacity="0.25"></line><line x1="0" y1="44.25" x2="247.265625" y2="44.25" fill="rgb(0, 0, 0)" stroke="rgb(66, 66, 66)" stroke-width="1px" opacity="0.25"></line><line x1="0" y1="22.125" x2="247.265625" y2="22.125" fill="rgb(0, 0, 0)" stroke="rgb(66, 66, 66)" stroke-width="1px" opacity="0.25"></line><line x1="0" y1="0" x2="247.265625" y2="0" fill="rgb(0, 0, 0)" stroke="rgb(66, 66, 66)" stroke-width="1px" opacity="0.25"></line></g></g></g><g><g><line x1="0" y1="22.125" x2="247.265625" y2="22.125" fill="rgb(0, 0, 0)" stroke="rgb(153, 153, 153)" stroke-width="1.5px"></line></g></g><g><g><line x1="22.478693181818183" y1="0" x2="22.478693181818183" y2="177" fill="rgb(0, 0, 0)" stroke="rgb(153, 153, 153)" stroke-width="1.5px"></line></g></g><g><g><g><g><g><path stroke="rgb(238, 51, 119)" stroke-width="2px" d="M23.15305397727273,44.98955621337891L23.265447443181817,56.64951763916016L23.71502130681818,39.39109666442871L23.827414772727273,41.86873745727539L24.052201704545453,53.613082855224604L24.164595170454547,44.04030674743652L24.276988636363633,45.228283126831045L24.389382102272727,47.9682180633545L24.501775568181817,44.74853496551514L24.61416903409091,48.641061676025394L24.7265625,44.55586489105224L24.83895596590909,38.37899810028077L25.288529829545457,43.42898073577881L25.400923295454543,47.423384536743164L26.300071022727273,44.1347755279541L26.412464488636363,51.383554275512694L26.637251420454547,59.86389230346679L26.974431818181817,44.048821037292484L27.08682528409091,43.05596976470948L27.311612215909093,85.85053665161134L27.424005681818183,55.61255950927734L27.536399147727273,53.49609475708007L27.648792613636363,57.53244612121583L27.873579545454547,50.091602279663086L28.098366477272727,44.053086959838865L28.210759943181817,44.399651641845715L28.54794034090909,67.42064392089844L28.66033380681818,44.21188352966309L28.772727272727273,56.17750053405762L28.885120738636363,71.72674905395507L28.997514204545457,60.46822998046875L29.334694602272727,46.7623218383789L29.44708806818182,55.67767863464356L29.671875,56.26684048461914L29.896661931818183,45.19876062011719L30.009055397727273,44.69957611083984L30.121448863636363,45.776727630615234L30.233842329545453,56.0166756591797L30.57102272727273,46.77823498535156L30.683416193181817,43.34515312957764L30.79580965909091,60.41017076110841L30.908203125,47.01012345886232L31.132990056818183,46.54623577880859L31.47017045454545,53.49201383972168L32.03213778409091,41.84846520996093L32.14453125,46.22616600036621L32.25692471590909,46.96700239562989L32.36931818181819,72.68643713378907L32.48171164772727,50.552943099975586L32.59410511363636,47.465263229370116L33.15607244318182,63.225031448364255L34.05522017045455,46.069440948486324L34.28000710227273,53.962002639770496L34.39240056818182,44.35731921386718L34.504794034090914,55.54535806274414L35.29154829545455,52.7647651977539L35.62872869318182,52.91081936645508L35.853515625,59.95716732788085L35.965909090909086,56.22158848571778L36.07830255681818,44.29818237304686L36.52787642045455,56.414747406005866L36.64026988636364,46.62771908569337L36.752663352272734,44.64359786224366L37.08984375,64.94352438354493L37.20223721590909,56.107798141479485L37.53941761363637,49.38799108886719L37.98899147727273,48.75631045532227L38.21377840909091,43.00642753601074L38.43856534090909,47.99479129028321L38.55095880681818,44.615020637512195L38.66335227272727,45.93740936279296L38.77574573863637,52.12005047607422L39.00053267045454,42.67293880462646L39.22531960227273,41.81693195343018L39.45010653409091,48.48622988891602L39.78728693181819,53.82924453735351L39.89968039772727,63.263042587280275L40.01207386363636,51.44110574340821L40.23686079545455,63.55069999694825L40.34925426136363,45.26559475708008L40.46164772727273,58.56911796569824L40.798828125,46.310798446655284L41.02361505681819,52.97702961730957L41.13600852272727,56.81539302062989L41.36079545454545,42.37091851043701L41.47318892045455,48.091258666992196L41.81036931818182,42.81243811798095L42.25994318181818,34.088618408203125L42.37233664772727,35.15571752929688L42.48473011363636,35.64862131500245L42.59712357954545,34.7967818069458L42.82191051136364,31.39378760147094L42.93430397727273,32.60411854934692L43.159090909090914,33.32374281692504L43.383877840909086,29.380728595733647L43.49627130681818,32.27849253845214L43.60866477272727,31.883441642761234L43.72105823863637,35.172278869628904L43.94584517045455,33.91803552246093L44.05823863636364,33.36103756713867L44.84499289772727,41.27799968719483L45.29456676136364,31.284313819885263L45.744140625,32.35400098800659L45.85653409090909,34.15990887451172L45.96892755681818,35.36801300811768L46.41850142045454,31.16315500259399L46.53089488636363,32.25862811279297L46.64328835227273,35.21230210876465L46.75568181818182,32.51605810546875L47.09286221590909,32.87630574417114L47.20525568181819,36.17591310882569L47.54243607954545,38.38287375640869L47.65482954545455,32.31278129196168L47.87961647727273,32.803676353454584L47.99200994318182,40.466553428649895L48.10440340909091,37.86676734924316L48.32919034090909,39.698148559570306L48.44158380681819,37.57178535461425L48.553977272727266,38.082788589477545L48.66637073863636,36.49959386444092L48.77876420454545,34.62276079559327L48.89115767045455,37.476621116638185L49.22833806818182,34.139809478759766L49.340731534090914,44.4906053237915L49.565518465909086,36.01572157287598L50.01509232954545,41.61493194580077L50.12748579545455,39.632017982482914L50.35227272727273,39.08723036956787L50.577059659090914,37.02544477844237L50.689453125,38.15207775878906L51.25142045454545,40.07632482147217L51.58860085227273,37.8316717300415L51.70099431818181,43.06240983581544L51.81338778409091,32.334377609252925L51.92578125,40.353349159240715L52.15056818181818,36.13678518676758L52.60014204545455,33.21501445770264L52.82492897727273,36.50283213043213L53.04971590909091,39.86819263458251L53.27450284090909,28.663635658264162L53.72407670454546,39.33491045379638L53.83647017045454,34.07481729125977L54.06125710227273,37.72659958648682L54.51083096590909,43.37868633270263L55.07279829545455,42.4479171295166L55.29758522727273,43.0759881362915L55.40997869318182,159.4840112915039L55.74715909090909,40.612283500671374L55.971946022727266,31.60927543258667L56.08433948863636,30.608119857788093L56.19673295454545,55.248342361450206L56.42151988636363,32.97410529327392L56.53391335227273,30.76571997070312L56.64630681818182,37.437587722778325L57.09588068181818,34.02990154266358L57.20827414772727,32.273620285034184L57.43306107954545,25.837003171920767L57.77024147727273,35.175683235168464L58.219815340909086,31.382521865844723L58.33220880681818,34.756673492431645L58.44460227272727,32.848666374206545L58.55699573863636,40.20299800872804L58.78178267045455,38.27188954925537L59.11896306818182,36.451131958007814L59.23135653409091,36.78310013580322L59.34375,29.559635364532472L59.68093039772727,36.14498618316651L59.79332386363637,32.65292548370362L60.01811079545455,32.47527593994141L60.69247159090909,37.64131354522706L60.91725852272727,34.143169281005854L61.14204545454546,33.73415116882324L61.25443892045455,32.273146293640146L61.36683238636363,31.970926139831548L61.59161931818182,31.623461414337164L61.70401278409091,29.43619504165649L62.26598011363637,37.290982589721686L62.37837357954545,34.51444498443604L62.60316051136363,34.90102075195312L62.82794744318182,32.97913486862182L62.9403409090909,38.508783966064456L63.052734375,35.83878504180908L63.389914772727266,35.61948772430419L63.50230823863637,33.8812464981079L63.61470170454545,33.39010971450806L63.83948863636363,37.27524094390869L63.95188210227272,28.677537380218514L64.1766690340909,33.113281860351556L64.2890625,32.508163650512685L64.51384943181819,34.217515708923344L64.73863636363637,45.267790512084964L64.96342329545455,33.35846167373657L65.07581676136364,43.689896118164064L65.18821022727272,38.96612489318848L65.4129971590909,25.897808773040772L65.525390625,37.90935500335692L65.86257102272727,26.223187997817995L65.97496448863637,36.71997285461425L66.08735795454545,29.390236106872567L66.19975142045453,31.75087124633789L66.42453835227272,33.67542890167236L66.53693181818183,30.025157032012945L66.6493252840909,33.77548024749755L66.76171875,31.63775205230712L67.77325994318183,32.095099056243896L67.8856534090909,30.478250267028812L68.1104403409091,34.638841392517094L68.44762073863636,35.883288917541506L69.234375,30.751092407226565L69.3467684659091,32.55532849502563L69.79634232954545,34.180380981445325L69.90873579545455,31.04661388778687L70.02112926136364,38.618073417663574L70.24591619318183,30.683396038055424L70.470703125,35.184516220092775L70.92027698863636,30.61633368301391L71.93181818181817,30.67065431213378L72.04421164772728,32.592284969329825L72.15660511363636,34.308064270019536L72.26899857954545,33.458111274719236L72.49378551136363,25.13173537445069L72.60617897727273,37.1360954360962L72.943359375,32.59531797409057L73.28053977272728,31.217013118743893L73.95490056818181,33.18835480499268L74.0672940340909,25.567092756271357L74.1796875,33.62959082794188L74.2920809659091,34.80927303314209L74.40447443181819,33.079278717041014L74.62926136363636,32.81136149597168L74.74165482954545,31.456085060119634L74.85404829545455,26.845052553176878L75.07883522727273,34.02112392425538L75.19122869318181,31.79697332382203L75.3036221590909,35.83638942718505L75.5284090909091,30.09635229492188L75.75319602272727,34.641169486999516L75.86558948863636,30.46228580474854L76.31516335227273,28.303195587158203L77.10191761363636,31.07463339614868L77.43909801136364,32.70805770492554L77.55149147727273,30.81688740921021L77.77627840909092,30.13535530471801L78.00106534090908,31.43390266799927L78.33824573863637,34.740108100891106L79.125,28.45585052490234L79.57457386363637,31.048228969573973L79.91175426136364,29.52019077301026L80.02414772727272,35.44842814636231L80.13654119318181,32.987329788208015L80.361328125,28.871576763153065L80.58611505681819,33.32989322662355L80.69850852272727,36.841873718261716L80.92329545454545,31.822925365447997L81.4852627840909,31.779743534088134L81.59765625,32.86732894134522L82.27201704545455,32.47824007415771L82.49680397727272,32.93085594177246L82.60919744318183,31.20528622055054L82.7215909090909,31.10141728591919L82.833984375,30.80864792633057L82.9463778409091,28.555631790161126L83.05877130681819,31.56233543014527L83.17116477272727,30.718516639709463L83.28355823863636,32.14162921142579L83.39595170454545,28.29728554916382L83.50834517045455,31.612350975036616L83.73313210227272,29.924616840362546L84.0703125,29.272215625762946L84.1827059659091,31.493957782745355L84.29509943181817,33.022932483673095L84.51988636363636,28.92904653167725L84.96946022727272,26.176963708877572L85.1942471590909,31.40985536956788L85.4190340909091,29.410202487945565L85.53142755681817,31.557085063934323L85.86860795454545,33.33621648788453L85.98100142045455,33.154051197052006L86.09339488636364,31.55679607772828L86.31818181818183,28.067554344177243L86.54296875,31.162784992218025L86.76775568181817,29.80464030075073L86.99254261363636,32.926440799713134L87.10493607954545,29.028484119415292L87.44211647727273,30.580365703582764L87.6669034090909,33.90625325775147L87.779296875,32.37491670227051L87.8916903409091,30.09455423355103L88.00408380681817,32.313415981292714L88.11647727272728,30.975950008392328L88.22887073863636,33.74454656982422L88.45365767045455,29.872945701599118L88.56605113636363,33.29985689163208L89.015625,31.047226970672607L89.1280184659091,29.02622016906739L89.24041193181819,29.237993041992194L89.46519886363636,32.0530083503723L89.57759232954545,32.04526649093628L89.68998579545455,34.11900382232667L89.80237926136363,30.74652804565429L90.02716619318181,32.97728211593629L90.251953125,34.527194137573254L90.47674005681819,32.01433011245727L90.70152698863636,30.496962799072275L90.92631392045455,32.61834774398803L91.15110085227273,31.756510528564444L91.26349431818181,34.01862432861329L91.37588778409092,32.33838425445557L91.71306818181819,38.71366438293457L92.16264204545455,34.180378280639644L92.27503551136364,33.93325321197509L92.49982244318181,31.899771389007572L92.61221590909092,31.04669423675538L92.83700284090908,32.75917922973634L93.28657670454545,29.693115257263194L93.39897017045455,33.17379611206054L93.62375710227273,31.84248595046997L93.8485440340909,32.253630271911625L94.63529829545455,34.953956542968754L94.74769176136364,33.03668228530884L94.97247869318181,35.42154972839354L95.0848721590909,36.79429902648926L95.197265625,30.17175811386109L95.3096590909091,37.26789070129394L95.42205255681819,34.928886314392095L95.53444602272727,24.742162725448615L95.75923295454545,33.79971727752685L95.87162642045455,32.29586344528198L96.3212002840909,33.830779243469244L96.43359375,31.621633644104012L96.65838068181819,31.589570354461664L96.88316761363637,31.5262952041626L97.22034801136364,29.082770313262944L97.44513494318183,30.990499248504637L97.5575284090909,34.09365135955811L97.669921875,33.999139366149905L98.00710227272727,33.62968940734863L98.11949573863636,31.203793350219723L98.23188920454545,31.56850812149048L98.34428267045455,32.656478393554686L98.45667613636364,31.854940040588385L98.68146306818183,32.61873598480225L98.7938565340909,30.881335384368892L98.90625,34.16880937957764L99.13103693181817,33.658474594116214L99.24343039772728,34.659934684753416L99.35582386363636,33.26643779754639L99.46821732954545,30.79419253921508L99.58061079545455,31.68475687408447L99.69300426136364,30.870388343811037L99.91779119318183,32.09344548797608L100.0301846590909,31.68839350891113L100.36736505681817,33.06345739746094L100.81693892045455,32.619656284332265L101.15411931818183,32.65645611190796L101.2665127840909,30.960874111175542L101.37890625,29.663453659057613L101.4912997159091,29.917410415649407L101.60369318181817,31.614332015991213L101.71608664772728,30.22139554595947L101.82848011363636,31.64970581817626L101.94087357954545,33.28013898468017L102.16566051136364,31.623269657135005L102.27805397727273,30.214616523742666L102.39044744318181,29.84631170654297L102.84002130681817,30.939979328155527L103.28959517045455,32.62683637619019L103.40198863636363,33.389398052215576L103.62677556818181,32.90385531234741L103.7391690340909,32.37899356842041L103.8515625,30.553230033874502L103.9639559659091,31.892240867614756L104.07634943181817,31.938363201141353L104.18874289772728,33.34744846343995L104.52592329545455,34.76890949249268L104.63831676136363,32.89062339019776L104.75071022727273,32.34958044433594L105.31267755681819,31.3016516418457L105.53746448863636,29.86599382781982L105.64985795454545,30.834304904937753L105.76225142045455,32.640195911407474L105.87464488636363,47.35936193847655L106.09943181818181,39.21870288848878L106.4366122159091,39.05080865478515L106.54900568181819,32.44781144714355L106.88618607954545,31.72940659332275L106.99857954545455,36.364141708374014L107.11097301136363,37.173469184875486L107.33575994318181,32.23180506134034L107.560546875,30.487485671997064L107.89772727272727,33.19337627792359L108.01012073863636,32.06104662322999L108.23490767045455,30.12586399841308L108.57208806818181,32.552543964386L108.68448153409092,32.49662378311157L108.796875,30.53611570358277L109.02166193181819,34.2153888244629L109.13405539772727,32.815667255401614L109.24644886363637,31.632307228088383L109.35884232954545,34.170485229492186L109.47123579545455,34.09117337036132L109.58362926136364,36.514026969909665L109.69602272727273,31.274726634979242L109.80841619318181,32.78753566360473L110.1455965909091,31.50502973556519L110.25799005681819,27.090781980514524L110.70756392045455,36.42142714691162L110.81995738636364,33.512743171691895L111.04474431818181,33.43453594207763L111.26953125,31.419424324035646L111.49431818181819,30.82072998046875L111.60671164772727,32.011221485137945L111.71910511363637,29.295543834686278L111.83149857954545,33.77071467590332L111.94389204545453,32.7220951423645L112.05628551136364,29.288682437896718L112.28107244318183,29.089811988830576L112.505859375,30.41874071502686L112.73064630681819,25.22948765945435L113.06782670454545,32.46811340332031L113.18022017045455,34.90267094421387L113.29261363636364,26.99360969352722L113.40500710227272,29.932366127014166L113.51740056818183,26.22298239898682L113.96697443181819,40.13970597839355L114.19176136363636,33.75129858398438L114.30415482954545,29.23365284729004L114.52894176136364,32.72124573898316L114.8661221590909,29.75765033340455L115.0909090909091,30.490879909515375L115.20330255681817,29.473786205291745L115.31569602272728,33.44771249771119L115.65287642045455,34.39467910766602L115.99005681818183,28.21384483337403L116.1024502840909,30.486471519470225L116.3272372159091,33.01793936920167L116.55202414772728,32.11663933181763L116.77681107954545,31.222331680297852L116.88920454545455,36.75663899230957L117.3387784090909,35.85802017974854L117.5635653409091,34.606169746398926L117.67595880681817,32.39591209030152L117.78835227272728,34.67690519714355L117.90074573863636,34.91323109436034L118.12553267045455,31.986465900421138L118.23792613636364,36.47710965728759L118.46271306818181,34.67152519226074L118.91228693181817,35.19964613342285L119.13707386363636,36.38421544647217L119.24946732954547,34.47728054809569L119.36186079545455,35.73611121368409L119.47425426136363,28.909879589080802L119.58664772727273,34.816349143981945L120.0362215909091,36.22732024383546L120.26100852272728,37.76436495208741L120.37340198863636,42.00218831634522L120.71058238636363,38.548762641906734L120.82297585227273,50.03553895568847L120.93536931818181,39.338514678955086L121.0477627840909,46.628021575927725L121.16015625,34.46709716033935L121.38494318181819,38.42889548492432L121.49733664772728,38.30913636016845L121.60973011363636,29.750123863220207L121.72212357954545,35.22184000396728L121.94691051136363,34.16264614105226L122.28409090909092,31.380913536071784L122.5088778409091,29.47504343032836L122.62127130681819,33.16320692825318L122.84605823863636,30.54268271255493L122.95845170454545,29.481050022125242L123.07084517045455,26.52568633460998L123.29563210227273,30.658544574737544L123.40802556818181,31.612966758728028L123.6328125,27.778410478591915L123.7452059659091,28.206418968200673L124.30717329545453,37.58017810821534L124.53196022727273,26.529382724761966L124.64435369318183,29.743148357391362L124.7567471590909,29.41827519607543L124.869140625,29.930457332611077L124.9815340909091,29.174175029754633L125.09392755681817,28.91316039276124L125.20632102272727,32.290162044525154L125.43110795454547,31.667572998046886L125.54350142045453,31.1670968284607L125.65589488636364,28.909878913879393L125.9930752840909,26.944941513061526L126.10546875,32.15527300643921L126.21786221590911,35.45137742614746L126.33025568181817,28.542524105072015L126.55504261363637,30.560441860198974L127.2294034090909,29.733821800231922L127.341796875,31.880054832458498L127.45419034090911,29.94753857803345L127.67897727272727,29.761187713623055L128.12855113636363,34.649513626098624L128.4657315340909,33.452052692413325L128.8029119318182,35.05952158355713L129.25248579545453,31.419183952331544L129.5896661931818,29.623221782684325L129.7020596590909,34.5143720626831L129.814453125,34.73440399932862L130.0392400568182,27.343563886642457L130.15163352272728,29.81481423568725L130.26402698863637,37.410396011352546L130.48881392045453,34.78569905090333L130.60120738636363,26.456551448822015L130.71360085227275,29.9360817604065L130.8259943181818,30.93256426620483L130.9383877840909,27.3304372959137L131.16317471590907,31.121936656951895L131.2755681818182,25.94331869888306L131.50035511363637,15.541250083923345L131.72514204545453,23.7210140991211L131.83753551136365,24.792789665222177L132.0623224431818,27.12293405914307L132.287109375,23.583418178558354L132.39950284090907,23.771742319107062L132.5118963068182,25.379262863159187L132.62428977272728,26.772408983230598L132.96147017045453,27.750669490814214L133.07386363636365,28.213082530975335L133.18625710227275,25.12577874755859L133.5234375,24.502875226020812L133.6358309659091,22.96368320846557L134.5349786931818,28.57723553466797L134.8721590909091,25.26390672683716L134.9845525568182,21.62966489839553L135.20933948863637,24.632436249732976L135.43412642045453,23.011447125434874L135.54651988636365,23.594264614105217L135.8837002840909,28.239655082702637L135.99609375,21.773090191483494L136.2208806818182,21.713366621732703L136.33327414772728,15.089491722106928L136.44566761363635,22.028457686483858L136.55806107954544,23.283398506164545L136.89524147727272,12.9541834487915L137.79438920454544,23.84000551986695L137.90678267045456,25.712251607894895L138.01917613636365,23.18183901357651L138.2439630681818,25.05894967460633L138.46875,23.749986991882334L138.5811434659091,24.11159009742736L138.6935369318182,23.41499323654174L138.91832386363635,23.4997908539772L139.14311079545456,24.944605496406552L139.25550426136365,24.471356486320502L139.36789772727272,25.5156437587738L139.705078125,15.96426984786987L139.8174715909091,24.643877706527707L139.9298650568182,14.129227020263665L140.49183238636365,24.681912308692926L140.7166193181818,24.007729940414425L140.8290127840909,25.129728338241584L141.0537997159091,25.66692027282714L141.1661931818182,23.27843526935578L141.39098011363635,23.804973200798038L142.0653409090909,22.85936568689346L142.177734375,23.567939354896545L142.4025213068182,24.765457005500792L142.62730823863635,23.84754650688172L143.07688210227272,25.0639319858551L143.3016690340909,25.322657014846797L143.4140625,15.323247127532953L143.5264559659091,25.52668971633912L143.75124289772728,24.291245158195498L143.97602982954547,25.61042650794983L144.20081676136363,23.114441336631767L144.31321022727272,22.16500851921738L144.4256036931818,27.862614509582514L144.5379971590909,28.30251565933227L144.650390625,23.777184273719783L145.09996448863635,23.045022613048555L145.32475142045456,30.189812324523935L145.43714488636363,35.2376626739502L146.1115056818182,32.065855407714835L146.33629261363635,23.994055086135862L146.56107954545456,33.06810548400878L146.67347301136363,33.30273257446289L146.78586647727272,27.945021492004393L147.46022727272725,28.326475181579593L147.79740767045456,24.305634206771852L148.02219460227272,25.98553161621094L148.359375,24.053039162635798L148.69655539772725,26.277738533020017L148.80894886363637,25.593643026351934L149.03373579545456,26.778779846191405L149.14612926136363,26.226141328811654L149.25852272727272,25.572228338241572L149.3709161931818,24.539209502220153L149.595703125,25.116230049133303L149.7080965909091,26.705836486816402L149.93288352272725,26.47389737319946L150.04527698863637,24.48612229728699L150.15767045454547,25.900602418899528L150.49485085227272,24.88696490192414L150.6072443181818,25.749303285598753L150.83203125,27.54279995727539L151.73117897727272,24.538045117378246L151.84357244318184,26.153460622787478L151.9559659090909,24.505807794570924L152.068359375,22.314587990999225L152.1807528409091,25.244768817901605L152.40553977272725,24.573937136650077L152.51793323863637,25.141892091751092L152.63032670454547,26.20634341049194L152.96750710227272,25.07464169311523L153.07990056818184,22.544444192647937L153.1922940340909,24.93141577434539L153.52947443181816,29.592958580017093L153.75426136363637,24.90134399127961L154.87819602272728,27.338270307540895L155.21537642045453,22.838474870681765L155.32776988636363,24.26449756050109L155.44016335227272,25.302985696792604L155.55255681818184,24.076733161926278L155.77734375,23.218804771900185L155.8897372159091,24.04577129459381L156.00213068181816,28.676329444885248L156.22691761363637,24.521073929786684L156.56409801136363,36.91320334625244L156.67649147727275,27.83753887939454L156.7888849431818,47.951229995727545L156.9012784090909,21.238074325561534L157.013671875,23.781157496452337L157.1260653409091,23.727819960594186L157.23845880681816,24.486647603988644L157.35085227272728,24.349802000999457L157.57563920454547,22.66733747577668L157.80042613636363,33.469888137817385L157.91281960227275,25.783762865066524L158.1376065340909,23.61956508636475L158.3623934659091,23.17099916124343L158.58718039772728,24.04226801204682L158.69957386363637,24.426022281646727L158.81196732954544,26.46050205230712L158.92436079545453,23.50215464973449L159.03675426136363,22.940535700321206L159.14914772727275,25.37140318107605L159.5987215909091,22.81344764399528L160.16068892045453,25.099542108535775L160.27308238636363,24.990018362045294L160.4978693181818,23.342319788932794L160.6102627840909,27.30632045173646L160.72265625,25.34579346656799L161.05983664772728,23.597117002487185L161.17223011363637,23.729129007339466L161.28462357954544,28.722050033569335L161.50941051136363,23.83659035110473L161.7341974431818,36.36300872039795L161.8465909090909,23.857526490211498L162.1837713068182,23.884979504585267L162.40855823863637,25.029042978286746L162.63334517045453,23.29028091859818L162.74573863636365,24.80609163951874L162.9705255681818,25.33352674484252L163.0829190340909,26.499488182067875L163.4200994318182,23.394792307376868L163.53249289772728,25.134080348968514L163.64488636363637,24.609683987617487L163.86967329545453,22.716194248437883L163.98206676136365,22.650502467870712L164.09446022727275,23.864478195190433L164.3192471590909,25.09493824768066L164.431640625,25.035639020919803L164.5440340909091,23.315368280410777L164.6564275568182,24.019949229240424L164.76882102272728,26.85836144828797L164.88121448863637,22.808630461692818L165.10600142045453,24.84351552200317L165.4431818181818,28.2635410079956L165.5555752840909,24.748059259414664L165.7803622159091,22.202587579339745L166.22993607954544,25.536224910736095L166.34232954545453,23.248803380012518L166.56711647727272,25.120472677230833L167.0166903409091,22.386387580275535L167.24147727272728,24.257478166580206L167.46626420454544,25.253824619293212L167.69105113636365,23.83028413867951L167.80344460227272,23.583335803985598L167.9158380681818,24.811692941665644L168.0282315340909,24.01513251113892L168.2530184659091,15.472579399108891L168.59019886363635,25.88224301719665L168.70259232954544,25.89681217575074L168.92737926136365,23.17238374614715L169.03977272727272,21.222470758438106L169.1521661931818,27.07240333557128L169.376953125,25.196709331512455L169.82652698863635,29.73341735458374L170.05131392045456,26.77502268791198L170.16370738636365,23.041032172679902L170.3884943181818,25.04664480400085L170.5008877840909,29.09866860580445L170.61328125,24.161686160087577L170.8380681818182,23.379425398349753L170.95046164772728,26.236153553009025L171.40003551136365,21.79550354468823L171.51242897727272,28.441123031616222L171.6248224431818,25.315923906326283L171.7372159090909,29.158748703002935L171.849609375,24.33879014110565L172.0743963068182,24.654983419418336L172.29918323863635,23.502959996223453L172.41157670454544,26.11963910865783L172.52397017045456,24.724093660354622L172.63636363636365,30.082649082183835L172.74875710227272,25.096895994186394L172.8611505681818,23.490454168796546L173.1983309659091,24.369371363639843L173.53551136363635,25.801556447982783L173.76029829545456,23.626408252716057L173.98508522727272,24.9470649175644L174.0974786931818,28.098340827941886L174.2098721590909,23.73611379718781L174.322265625,24.894295732498176L174.4346590909091,23.68980730247497L174.88423295454547,25.00555947303772L175.3338068181818,22.777792536020275L175.55859375,22.530600284814835L175.6709872159091,24.141372725486754L176.00816761363635,24.101775707244865L176.12056107954547,23.586747090339667L176.23295454545456,24.790844241142278L176.5701349431818,26.066322166442863L176.9073153409091,24.561236935615547L177.0197088068182,24.973074520111087L177.13210227272725,26.45957601356507L177.35688920454547,25.849398181915284L177.46928267045456,24.69667018604279L177.58167613636363,26.181691131591794L177.8064630681818,24.516685964584354L177.91885653409093,24.20625806236268L178.1436434659091,25.24436302185058L178.2560369318182,25.309146572113043L178.36843039772725,24.538401792526237L178.48082386363637,25.114048135757454L178.59321732954547,23.502718189716344L178.70561079545456,24.838114923477175L178.93039772727272,24.099633630752567L179.0427911931818,25.259294763565055L179.3799715909091,24.404300883293153L179.94193892045456,23.920669132232664L180.3915127840909,22.980672457695L181.29066051136363,25.088140657424916L181.40305397727272,24.08804903125762L181.5154474431818,25.269300573349003L181.6278409090909,23.979219054222114L181.740234375,25.010265964508058L182.07741477272725,24.41143117904664L182.41459517045453,23.335130497455605L182.52698863636363,27.73244749259948L182.75177556818184,25.760221967697145L182.8641690340909,23.830297811508185L182.9765625,25.636264778137196L183.0889559659091,23.7041084060669L183.31374289772725,24.652647897720335L183.53852982954547,27.124999500274647L183.65092329545453,22.705058067083357L183.76331676136363,23.43703408956528L183.98810369318184,23.91048743247986L184.1004971590909,25.408027118682863L184.212890625,23.47715033769608L184.43767755681816,23.81573202896118L184.66246448863637,22.987880739212027L185.3368252840909,25.633949850082402L185.5616122159091,24.254301850318907L186.01118607954547,25.01738427543641L186.12357954545453,23.64278526306152L186.23597301136363,25.372222537994393L186.685546875,25.352039079666135L187.24751420454547,25.750700277328484L187.35990767045453,24.047698657035834L187.8094815340909,24.28680064487458L188.25905539772728,24.46981719589233L188.59623579545453,23.267501479625704L188.9334161931818,25.029293478012075L189.0458096590909,23.987020668983465L189.158203125,25.11766586494445L189.49538352272728,23.87334274578095L189.60777698863637,22.896197839736935L189.94495738636363,24.82813105773925L190.05735085227275,25.631158229827875L190.1697443181818,24.25396492481231L190.2821377840909,24.880789678573617L190.39453125,23.653597600936887L191.18128551136363,23.254486465930942L191.29367897727275,23.567329816818233L191.4060724431818,22.973660490989694L191.5184659090909,21.670459512948995L191.7432528409091,35.7908808517456L191.8556463068182,23.20026838302613L191.96803977272728,23.310486405372615L192.08043323863637,23.58243204689025L192.19282670454544,25.447980812072743L192.30522017045453,22.565375563144688L192.41761363636363,25.143662807464594L192.53000710227275,29.898427803039542L192.6424005681818,24.297592389106743L192.97958096590907,24.308967338562002L193.20436789772728,23.297635381221763L193.76633522727275,25.25484923744201L193.8787286931818,30.90893356704712L193.9911221590909,24.318379983901988L194.21590909090907,26.987784055709838L194.66548295454544,24.234003438949575L195.00266335227275,22.92633402013779L195.2274502840909,25.076453596115115L195.67702414772728,27.665318630218515L195.78941761363637,23.23960181951523L195.90181107954544,26.711545989990235L196.3513849431818,25.38658407211304L196.576171875,24.332851238250736L196.6885653409091,26.483916349411015L196.91335227272728,24.106884449958798L197.02574573863637,24.47033220577239L197.25053267045453,23.59557771205903L197.36292613636365,24.695248380661003L197.7001065340909,22.80382104420662L198.0372869318182,25.175213619232174L198.14968039772728,23.706626738548284L198.26207386363635,22.478346911430368L198.8240411931818,22.427432989954937L198.9364346590909,22.64047294163705L199.94797585227272,25.989081150054925L200.0603693181818,26.27207865715026L200.3975497159091,24.718290304183967L200.5099431818182,22.41687600481511L200.62233664772728,23.29276363420487L200.73473011363635,23.245649176597603L200.84712357954544,22.325844083905213L200.95951704545456,24.016490172386163L201.07191051136365,23.726762257575988L201.2966974431818,23.097431578159323L201.521484375,23.687589097023015L201.6338778409091,23.593077778816223L201.7462713068182,25.083470964431754L201.97105823863635,26.326826013565064L202.08345170454544,26.76828991699219L202.30823863636365,22.763621366500853L202.5330255681818,22.691128493070607L202.6454190340909,23.265172203540807L202.8702059659091,22.94136594486236L202.9825994318182,22.040859817743296L203.43217329545456,14.413993217468255L203.54456676136365,21.50105147767068L203.7693536931818,23.591629471778877L203.8817471590909,22.960297326564795L203.994140625,22.018950090944767L204.1065340909091,22.717867313146584L204.33132102272728,23.152489020824422L204.44371448863635,22.87265955877304L204.55610795454547,23.820264824867248L204.66850142045456,24.77069049167632L205.1180752840909,22.131726638719442L205.3428622159091,17.394677295684804L205.4552556818182,24.009068020820617L205.56764914772728,24.519173406600963L205.79243607954547,22.196669613003724L206.01722301136363,21.701754803180695L206.2420099431818,20.80262908315659L206.466796875,20.314694357872007L206.5791903409091,11.34942076492309L206.6915838068182,19.29212730216979L206.91637073863635,13.214599857330324L207.02876420454547,18.875212709426886L207.14115767045456,12.41111017227173L207.25355113636363,17.501602529525755L207.36594460227272,13.816610115051267L207.4783380681818,10.493815658569332L207.703125,11.241969886779783L207.8155184659091,21.70518410897254L208.15269886363635,24.776201992034913L208.26509232954547,21.296886478900916L208.48987926136363,21.42853429698944L208.60227272727272,27.423260610580453L208.939453125,12.784268337249765L209.0518465909091,12.65809209823609L209.1642400568182,16.44854793548585L209.27663352272725,23.77688431549072L209.38902698863637,13.135472328186042L209.61381392045456,32.70070206069946L210.0633877840909,24.675758860588083L210.2881747159091,13.359742504119874L210.4005681818182,26.94545129013062L210.51296164772725,21.09744253063203L210.85014204545456,14.13573798751831L210.96253551136363,26.688140470504752L211.1873224431818,28.556235420227043L211.2997159090909,24.23433276844024L211.6368963068182,23.33327892637253L211.74928977272725,17.462357122421256L211.86168323863637,23.894591334342962L211.97407670454547,24.915160469055166L212.19886363636363,24.938976342201233L212.4236505681818,25.230479530334463L212.6484375,26.41548637390137L212.7608309659091,22.616492108345035L212.98561789772725,26.512589115142823L213.09801136363637,17.522954086303706L213.21040482954547,13.959895282745366L213.32279829545453,17.591982965469352L213.54758522727272,23.263405285835265L213.884765625,31.784494251251218L213.9971590909091,28.68331912994385L214.1095525568182,23.449572579860693L214.22194602272725,11.311970043182377L214.33433948863637,28.326530548095704L214.55912642045453,10.546208587646493L214.67151988636363,28.535346714019784L214.78391335227272,30.556482479095457L215.0087002840909,32.09190467834473L215.12109375,20.992472426891332L215.2334872159091,32.21006290054322L215.34588068181816,31.229875705719003L215.57066761363637,10.501847854614258L215.68306107954547,28.937570274353018L215.79545454545453,33.57441471862793L216.2450284090909,11.67371797943116L216.58220880681816,12.468299057006831L216.69460227272728,25.46696815109253L216.80699573863637,22.399057819247247L217.14417613636363,14.759948867797851L217.25656960227272,23.338718011379232L217.36896306818184,12.053496494293205L217.4813565340909,10.881450817108153L217.59375,10.838553920745843L217.81853693181816,18.75231356048584L217.93093039772728,23.839308543205256L218.04332386363637,24.93902242469788L218.38050426136363,28.48439196395874L218.49289772727275,12.518203868865958L218.7176846590909,11.719265716552732L218.830078125,25.517945520401003L218.9424715909091,20.46279995727538L219.27965198863637,16.099169689178474L219.50443892045453,13.798183193206786L219.61683238636363,20.302579725265506L219.72922585227275,12.773985019683838L219.8416193181818,26.39669754409791L219.9540127840909,13.181158481597906L220.2911931818182,17.51260729980469L220.62837357954544,18.42011412620545L220.74076704545453,19.19541955375672L221.0779474431818,38.51089464569092L221.1903409090909,12.04012413024902L221.63991477272728,11.64693949127198L221.97709517045453,11.70553482055663L222.08948863636363,16.496226608276377L222.3142755681818,13.558604850769035L222.5390625,25.994601596832272L222.7638494318182,12.552533809661865L222.87624289772728,12.345812793731682L222.98863636363637,13.95933148956298L223.10102982954544,11.476609806060788L223.5506036931818,12.459228401184072L223.6629971590909,13.018037921905512L223.775390625,13.66403215026856L224.0001775568182,13.529322715759276L224.11257102272728,12.548511634826664L224.22496448863637,13.449450439453129L224.67453835227275,11.33003978347778L224.8993252840909,15.75858661651611L225.12411221590907,18.517917388916022L225.34889914772728,17.451631885528563L225.46129261363637,22.43155380749703L225.68607954545453,13.770719375610359L225.79847301136365,23.02735031318664L226.1356534090909,20.041215671539316L226.3604403409091,18.583169866561896L226.4728338068182,23.788915898323054L226.58522727272728,12.383013015747062L226.81001420454544,24.37189324092865L227.14719460227272,14.574766101837154L227.5967684659091,21.839795575976364L227.82155539772728,24.144901159286505L227.93394886363637,15.413897644042972L228.27112926136365,23.423855508327478L228.720703125,22.976330321788787L228.8330965909091,24.057864658355715L228.9454900568182,22.839435260295865L229.05788352272728,24.04815070438385L229.39506392045456,22.665321493148795L229.50745738636365,23.921148862838752L229.61985085227272,22.589982772350314L229.8446377840909,24.58794300842284L229.95703125,30.325175354003918L230.0694247159091,23.185094412803654L230.29421164772728,24.46782670211791L230.40660511363635,23.636746261596684L230.74378551136365,19.143022235870365L230.85617897727272,13.981929805755614L231.0809659090909,19.503062418937674L231.3057528409091,23.986115730285643L231.4181463068182,25.70651442146301L231.53053977272728,24.597985785484322L231.86772017045456,25.54825733757018" style="fill: none;" fill="none"></path></g></g></g></g></g></g><g transform="translate(82, 177)" clip-path="url(#clip_1)"><clipPath id="clip_1"><rect width="247" height="23"></rect></clipPath><g><g><line x1="0" y1="0" x2="0" y2="5" style="visibility: inherit;" fill="rgb(0, 0, 0)" stroke="rgb(204, 204, 204)" stroke-width="1px"></line><line x1="22.478693181818183" y1="0" x2="22.478693181818183" y2="5" style="visibility: inherit;" fill="rgb(0, 0, 0)" stroke="rgb(204, 204, 204)" stroke-width="1px"></line><line x1="44.95738636363637" y1="0" x2="44.95738636363637" y2="5" style="visibility: inherit;" fill="rgb(0, 0, 0)" stroke="rgb(204, 204, 204)" stroke-width="1px"></line><line x1="67.43607954545455" y1="0" x2="67.43607954545455" y2="5" style="visibility: inherit;" fill="rgb(0, 0, 0)" stroke="rgb(204, 204, 204)" stroke-width="1px"></line><line x1="89.91477272727273" y1="0" x2="89.91477272727273" y2="5" style="visibility: inherit;" fill="rgb(0, 0, 0)" stroke="rgb(204, 204, 204)" stroke-width="1px"></line><line x1="112.3934659090909" y1="0" x2="112.3934659090909" y2="5" style="visibility: inherit;" fill="rgb(0, 0, 0)" stroke="rgb(204, 204, 204)" stroke-width="1px"></line><line x1="134.8721590909091" y1="0" x2="134.8721590909091" y2="5" style="visibility: inherit;" fill="rgb(0, 0, 0)" stroke="rgb(204, 204, 204)" stroke-width="1px"></line><line x1="157.35085227272728" y1="0" x2="157.35085227272728" y2="5" style="visibility: inherit;" fill="rgb(0, 0, 0)" stroke="rgb(204, 204, 204)" stroke-width="1px"></line><line x1="179.82954545454547" y1="0" x2="179.82954545454547" y2="5" style="visibility: inherit;" fill="rgb(0, 0, 0)" stroke="rgb(204, 204, 204)" stroke-width="1px"></line><line x1="202.30823863636365" y1="0" x2="202.30823863636365" y2="5" style="visibility: inherit;" fill="rgb(0, 0, 0)" stroke="rgb(204, 204, 204)" stroke-width="1px"></line><line x1="224.7869318181818" y1="0" x2="224.7869318181818" y2="5" style="visibility: inherit;" fill="rgb(0, 0, 0)" stroke="rgb(204, 204, 204)" stroke-width="1px"></line><line x1="247.265625" y1="0" x2="247.265625" y2="5" style="visibility: inherit;" fill="rgb(0, 0, 0)" stroke="rgb(204, 204, 204)" stroke-width="1px"></line></g><g transform="translate(0, 8)"><text x="0" y="0" dx="0em" dy="0.95em" style="text-anchor: middle; visibility: hidden; font-family: Roboto, sans-serif; font-size: 12px; font-weight: 200;" fill="rgb(33, 33, 33)" stroke="none" stroke-width="1px">-200</text><text x="22.478693181818183" y="0" dx="0em" dy="0.95em" style="text-anchor: middle; visibility: inherit; font-family: Roboto, sans-serif; font-size: 12px; font-weight: 200;" fill="rgb(33, 33, 33)" stroke="none" stroke-width="1px">0</text><text x="44.95738636363637" y="0" dx="0em" dy="0.95em" style="text-anchor: middle; visibility: hidden; font-family: Roboto, sans-serif; font-size: 12px; font-weight: 200;" fill="rgb(33, 33, 33)" stroke="none" stroke-width="1px">200</text><text x="67.43607954545455" y="0" dx="0em" dy="0.95em" style="text-anchor: middle; visibility: inherit; font-family: Roboto, sans-serif; font-size: 12px; font-weight: 200;" fill="rgb(33, 33, 33)" stroke="none" stroke-width="1px">400</text><text x="89.91477272727273" y="0" dx="0em" dy="0.95em" style="text-anchor: middle; visibility: hidden; font-family: Roboto, sans-serif; font-size: 12px; font-weight: 200;" fill="rgb(33, 33, 33)" stroke="none" stroke-width="1px">600</text><text x="112.3934659090909" y="0" dx="0em" dy="0.95em" style="text-anchor: middle; visibility: inherit; font-family: Roboto, sans-serif; font-size: 12px; font-weight: 200;" fill="rgb(33, 33, 33)" stroke="none" stroke-width="1px">800</text><text x="134.8721590909091" y="0" dx="0em" dy="0.95em" style="text-anchor: middle; visibility: hidden; font-family: Roboto, sans-serif; font-size: 12px; font-weight: 200;" fill="rgb(33, 33, 33)" stroke="none" stroke-width="1px">1k</text><text x="157.35085227272728" y="0" dx="0em" dy="0.95em" style="text-anchor: middle; visibility: inherit; font-family: Roboto, sans-serif; font-size: 12px; font-weight: 200;" fill="rgb(33, 33, 33)" stroke="none" stroke-width="1px">1.2k</text><text x="179.82954545454547" y="0" dx="0em" dy="0.95em" style="text-anchor: middle; visibility: hidden; font-family: Roboto, sans-serif; font-size: 12px; font-weight: 200;" fill="rgb(33, 33, 33)" stroke="none" stroke-width="1px">1.4k</text><text x="202.30823863636365" y="0" dx="0em" dy="0.95em" style="text-anchor: middle; visibility: inherit; font-family: Roboto, sans-serif; font-size: 12px; font-weight: 200;" fill="rgb(33, 33, 33)" stroke="none" stroke-width="1px">1.6k</text><text x="224.7869318181818" y="0" dx="0em" dy="0.95em" style="text-anchor: middle; visibility: hidden; font-family: Roboto, sans-serif; font-size: 12px; font-weight: 200;" fill="rgb(33, 33, 33)" stroke="none" stroke-width="1px">1.8k</text><text x="247.265625" y="0" dx="0em" dy="0.95em" style="text-anchor: middle; visibility: hidden; font-family: Roboto, sans-serif; font-size: 12px; font-weight: 200;" fill="rgb(33, 33, 33)" stroke="none" stroke-width="1px">2k</text></g><line x1="0" y1="0" x2="247.265625" y2="0" fill="rgb(0, 0, 0)" stroke="rgb(204, 204, 204)" stroke-width="1px"></line></g></g></g></g></svg>