<svg viewBox="0 0 330 200" xmlns="http://www.w3.org/2000/svg"><g><g><g><g><g><line x1="40" y1="177" x2="35" y2="177" style="visibility: inherit;" fill="rgb(0, 0, 0)" stroke="rgb(204, 204, 204)" stroke-width="1px"></line><line x1="40" y1="159.3" x2="35" y2="159.3" style="visibility: inherit;" fill="rgb(0, 0, 0)" stroke="rgb(204, 204, 204)" stroke-width="1px"></line><line x1="40" y1="141.6" x2="35" y2="141.6" style="visibility: inherit;" fill="rgb(0, 0, 0)" stroke="rgb(204, 204, 204)" stroke-width="1px"></line><line x1="40" y1="123.89999999999999" x2="35" y2="123.89999999999999" style="visibility: inherit;" fill="rgb(0, 0, 0)" stroke="rgb(204, 204, 204)" stroke-width="1px"></line><line x1="40" y1="106.2" x2="35" y2="106.2" style="visibility: inherit;" fill="rgb(0, 0, 0)" stroke="rgb(204, 204, 204)" stroke-width="1px"></line><line x1="40" y1="88.5" x2="35" y2="88.5" style="visibility: inherit;" fill="rgb(0, 0, 0)" stroke="rgb(204, 204, 204)" stroke-width="1px"></line><line x1="40" y1="70.8" x2="35" y2="70.8" style="visibility: inherit;" fill="rgb(0, 0, 0)" stroke="rgb(204, 204, 204)" stroke-width="1px"></line><line x1="40" y1="53.10000000000001" x2="35" y2="53.10000000000001" style="visibility: inherit;" fill="rgb(0, 0, 0)" stroke="rgb(204, 204, 204)" stroke-width="1px"></line><line x1="40" y1="35.39999999999999" x2="35" y2="35.39999999999999" style="visibility: inherit;" fill="rgb(0, 0, 0)" stroke="rgb(204, 204, 204)" stroke-width="1px"></line><line x1="40" y1="17.699999999999996" x2="35" y2="17.699999999999996" style="visibility: inherit;" fill="rgb(0, 0, 0)" stroke="rgb(204, 204, 204)" stroke-width="1px"></line><line x1="40" y1="0" x2="35" y2="0" style="visibility: inherit;" fill="rgb(0, 0, 0)" stroke="rgb(204, 204, 204)" stroke-width="1px"></line></g><g transform="translate(30, 0)"><text x="0" y="177" dx="0em" dy="0.3em" style="text-anchor: end; visibility: hidden; font-family: Roboto, sans-serif; font-size: 12px; font-weight: 200;" fill="rgb(33, 33, 33)" stroke="none" stroke-width="1px">-25</text><text x="0" y="159.3" dx="0em" dy="0.3em" style="text-anchor: end; visibility: inherit; font-family: Roboto, sans-serif; font-size: 12px; font-weight: 200;" fill="rgb(33, 33, 33)" stroke="none" stroke-width="1px">-20</text><text x="0" y="141.6" dx="0em" dy="0.3em" style="text-anchor: end; visibility: hidden; font-family: Roboto, sans-serif; font-size: 12px; font-weight: 200;" fill="rgb(33, 33, 33)" stroke="none" stroke-width="1px">-15</text><text x="0" y="123.89999999999999" dx="0em" dy="0.3em" style="text-anchor: end; visibility: inherit; font-family: Roboto, sans-serif; font-size: 12px; font-weight: 200;" fill="rgb(33, 33, 33)" stroke="none" stroke-width="1px">-10</text><text x="0" y="106.2" dx="0em" dy="0.3em" style="text-anchor: end; visibility: hidden; font-family: Roboto, sans-serif; font-size: 12px; font-weight: 200;" fill="rgb(33, 33, 33)" stroke="none" stroke-width="1px">-5</text><text x="0" y="88.5" dx="0em" dy="0.3em" style="text-anchor: end; visibility: inherit; font-family: Roboto, sans-serif; font-size: 12px; font-weight: 200;" fill="rgb(33, 33, 33)" stroke="none" stroke-width="1px">0</text><text x="0" y="70.8" dx="0em" dy="0.3em" style="text-anchor: end; visibility: hidden; font-family: Roboto, sans-serif; font-size: 12px; font-weight: 200;" fill="rgb(33, 33, 33)" stroke="none" stroke-width="1px">5</text><text x="0" y="53.10000000000001" dx="0em" dy="0.3em" style="text-anchor: end; visibility: inherit; font-family: Roboto, sans-serif; font-size: 12px; font-weight: 200;" fill="rgb(33, 33, 33)" stroke="none" stroke-width="1px">10</text><text x="0" y="35.39999999999999" dx="0em" dy="0.3em" style="text-anchor: end; visibility: hidden; font-family: Roboto, sans-serif; font-size: 12px; font-weight: 200;" fill="rgb(33, 33, 33)" stroke="none" stroke-width="1px">15</text><text x="0" y="17.699999999999996" dx="0em" dy="0.3em" style="text-anchor: end; visibility: inherit; font-family: Roboto, sans-serif; font-size: 12px; font-weight: 200;" fill="rgb(33, 33, 33)" stroke="none" stroke-width="1px">20</text><text x="0" y="0" dx="0em" dy="0.3em" style="text-anchor: end; visibility: hidden; font-family: Roboto, sans-serif; font-size: 12px; font-weight: 200;" fill="rgb(33, 33, 33)" stroke="none" stroke-width="1px">25</text></g><line x1="40" y1="0" x2="40" y2="177" fill="rgb(0, 0, 0)" stroke="rgb(204, 204, 204)" stroke-width="1px"></line></g></g><g transform="translate(40, 0)" clip-path="url(#clip_0)"><clipPath id="clip_0"><rect width="290" height="177"></rect></clipPath><g><g><g><line x1="0" y1="0" x2="0" y2="177" fill="rgb(0, 0, 0)" stroke="rgb(66, 66, 66)" stroke-width="1px" opacity="0.25"></line><line x1="29" y1="0" x2="29" y2="177" fill="rgb(0, 0, 0)" stroke="rgb(66, 66, 66)" stroke-width="1px" opacity="0.25"></line><line x1="58" y1="0" x2="58" y2="177" fill="rgb(0, 0, 0)" stroke="rgb(66, 66, 66)" stroke-width="1px" opacity="0.25"></line><line x1="87" y1="0" x2="87" y2="177" fill="rgb(0, 0, 0)" stroke="rgb(66, 66, 66)" stroke-width="1px" opacity="0.25"></line><line x1="116" y1="0" x2="116" y2="177" fill="rgb(0, 0, 0)" stroke="rgb(66, 66, 66)" stroke-width="1px" opacity="0.25"></line><line x1="145" y1="0" x2="145" y2="177" fill="rgb(0, 0, 0)" stroke="rgb(66, 66, 66)" stroke-width="1px" opacity="0.25"></line><line x1="174" y1="0" x2="174" y2="177" fill="rgb(0, 0, 0)" stroke="rgb(66, 66, 66)" stroke-width="1px" opacity="0.25"></line><line x1="203" y1="0" x2="203" y2="177" fill="rgb(0, 0, 0)" stroke="rgb(66, 66, 66)" stroke-width="1px" opacity="0.25"></line><line x1="232" y1="0" x2="232" y2="177" fill="rgb(0, 0, 0)" stroke="rgb(66, 66, 66)" stroke-width="1px" opacity="0.25"></line><line x1="261" y1="0" x2="261" y2="177" fill="rgb(0, 0, 0)" stroke="rgb(66, 66, 66)" stroke-width="1px" opacity="0.25"></line><line x1="290" y1="0" x2="290" y2="177" fill="rgb(0, 0, 0)" stroke="rgb(66, 66, 66)" stroke-width="1px" opacity="0.25"></line></g><g><line x1="0" y1="177" x2="290" y2="177" fill="rgb(0, 0, 0)" stroke="rgb(66, 66, 66)" stroke-width="1px" opacity="0.25"></line><line x1="0" y1="159.3" x2="290" y2="159.3" fill="rgb(0, 0, 0)" stroke="rgb(66, 66, 66)" stroke-width="1px" opacity="0.25"></line><line x1="0" y1="141.6" x2="290" y2="141.6" fill="rgb(0, 0, 0)" stroke="rgb(66, 66, 66)" stroke-width="1px" opacity="0.25"></line><line x1="0" y1="123.89999999999999" x2="290" y2="123.89999999999999" fill="rgb(0, 0, 0)" stroke="rgb(66, 66, 66)" stroke-width="1px" opacity="0.25"></line><line x1="0" y1="106.2" x2="290" y2="106.2" fill="rgb(0, 0, 0)" stroke="rgb(66, 66, 66)" stroke-width="1px" opacity="0.25"></line><line x1="0" y1="88.5" x2="290" y2="88.5" fill="rgb(0, 0, 0)" stroke="rgb(66, 66, 66)" stroke-width="1px" opacity="0.25"></line><line x1="0" y1="70.8" x2="290" y2="70.8" fill="rgb(0, 0, 0)" stroke="rgb(66, 66, 66)" stroke-width="1px" opacity="0.25"></line><line x1="0" y1="53.10000000000001" x2="290" y2="53.10000000000001" fill="rgb(0, 0, 0)" stroke="rgb(66, 66, 66)" stroke-width="1px" opacity="0.25"></line><line x1="0" y1="35.39999999999999" x2="290" y2="35.39999999999999" fill="rgb(0, 0, 0)" stroke="rgb(66, 66, 66)" stroke-width="1px" opacity="0.25"></line><line x1="0" y1="17.699999999999996" x2="290" y2="17.699999999999996" fill="rgb(0, 0, 0)" stroke="rgb(66, 66, 66)" stroke-width="1px" opacity="0.25"></line><line x1="0" y1="0" x2="290" y2="0" fill="rgb(0, 0, 0)" stroke="rgb(66, 66, 66)" stroke-width="1px" opacity="0.25"></line></g></g></g><g><g><line x1="0" y1="88.5" x2="290" y2="88.5" fill="rgb(0, 0, 0)" stroke="rgb(153, 153, 153)" stroke-width="1.5px"></line></g></g><g><g><line x1="29" y1="0" x2="29" y2="177" fill="rgb(0, 0, 0)" stroke="rgb(153, 153, 153)" stroke-width="1.5px"></line></g></g><g><g><g><g><g><path stroke="rgb(255, 112, 67)" stroke-width="2px" d="M29.068933,162.84L29.1507565,160.42526603001363L29.268452999999997,159.75672073176816L29.364704,161.48467660677844L29.369489,162.22468091973553L29.40658,160.646742642324L29.4337965,158.0247097018437L29.4910715,160.60180555607516L29.492507,161.79824122044388L29.504382500000002,162.35480917660678L29.7366435,162.61395939349825L29.830792000000002,162.73467773651203L29.8955345,162.79092257373892L29.904017,160.92672746774926L29.980316,160.05804578170134L29.998847,159.6532473325059L30.1070025,159.46461282225567L30.1180225,161.26707151075425L30.247304500000002,162.1070157443342L30.253815,162.49842942813527L30.298446,160.7904679279092L30.592622,161.8849181098282L30.672662,158.61421176199767L30.7341275,158.98042268511801L30.8634965,159.1510769721395L30.992677,161.1209618737211L31.0800105,158.25820822996835L31.084404,158.81452503545376L31.105023,159.0737686665841L31.1123745,159.19457619864178L31.1933135,159.25087250857004L31.2032895,161.16746658904052L31.281517,158.27987943046L31.4796015,158.82462381459726L31.736570500000003,159.07847469760296L31.817553,157.30640920908093L31.8237735,152.69990669142925L32.025889,158.1147165182074L32.0879055,158.74765789748471L32.16332,157.1522485802278L32.396190000000004,160.18950783838622L32.517874,159.71451065268798L32.731836,155.7124419641526L32.8627275,157.6281979552951L32.9638215,156.63058024716753L33.1532205,156.16569039518006L33.258563,159.72977172415392L33.2957845,157.60991362345572L33.299888,145.27989974853037L33.375752,147.09555328281516L33.375766500000005,146.05128782979187L33.4087685,147.455020128683L33.419832,146.2187993799663L33.5002055,151.3138005110643L33.932581,148.01699103815594L34.0901235,148.37103782378068L34.781295,144.7553036258818L35.0287085,148.74145148966093L35.458184,146.818276394182L35.691764500000005,149.7027967996888L35.749054,145.37590330865498L35.7521715,152.81137094183322L35.960551,154.3859388588943L36.6587115,155.11968750824474L37.222457,155.46161437884206L37.2312005,151.8402323005404L37.445119,140.7008682520518L37.738772999999995,120.38704460545615L38.023611,114.70152278614256L38.0549165,121.50386961834245L38.492802000000005,115.22196324214757L38.6170235,127.41747487084078L38.959673,114.1969832898118L39.216787,138.2819942130523L39.660661,128.71164930328237L39.807894,116.69042857532959L40.18762,105.4174597161036L40.5360405,98.27389622770428L40.939677,106.28715564211019L41.009248,93.00809452922336L41.73226149999999,120.84653205061807L41.750226999999995,133.81924393558805L41.788565,132.303087673984L42.369841,116.47367885607656L42.441064999999995,90.19357434693167L42.8591,113.86388564567017L43.236361,92.75813071088228L43.886338,105.60716891127115L44.0121545,117.26590071265237L45.0681315,113.247069732096L45.1402255,96.25141449515674L45.4486695,107.23503915474305L46.1146835,87.77872824611026L46.756323,76.82172736268738L46.96173,52.812164951012306L47.34163,52.965868867171736L47.596801,36.024254892102036L47.623625999999994,56.48486277971952L47.792986,50.896626055349294L48.137709,48.29250774179277L48.989931999999996,43.29826860767544L49.06481,39.08059317117674L49.337381,39.00551641776835L49.687236999999996,63.545210650680055L50.484635499999996,42.84458816321691L50.589890999999994,33.19809808405907L50.969588,24.922113707171537L51.01651,30.517304987541934L51.538785499999996,42.57646412419455L51.9757575,40.63459228187466L52.557714999999995,68.08508000335358L52.7119225,41.17944728156277L53.5973505,28.641422433208273L53.896036,51.15410285387507L53.916916,33.289611929905774L53.973712500000005,51.429799159336085L54.107011,73.11564640825061L55.183259,45.41405122624479L55.2225685,66.53158787143006L55.351009499999996,48.016959948086416L55.9730015,37.498783335808255L56.258202,38.268393034486635L56.6986395,34.846311154070776L56.857690000000005,23.799820997796985L57.4332675,20.542516584973402L57.4651675,19.024612728597607L57.492761,18.317269531526495L57.946147,16.097287601691324L57.991416,56.65069602238817L58.358062999999994,33.96066434643289L59.4363845,27.167829585437733L59.5429885,61.809568586813974L59.6401965,77.95261896145531L59.6647015,43.88736043603817L59.890292499999994,29.903309963193774L60.932741,63.084302442848305L61.743697,36.958724938367304L62.061290500000005,32.345645821279156L62.108371999999996,22.63451095271607L62.546707,19.999482103965693L62.616611500000005,18.771558660448026L63.1721065,16.30898633576877L63.411226,18.942147632468252L64.0776895,54.19568079673021L64.806126,32.816627251276266L64.82892,53.09974829909475L65.26441299999999,36.08664270737816L65.5672165,26.268175501638236L65.738186,19.802409783763427L66.0598105,18.679722959233768L66.2369715,31.389070899002917L66.4646215,59.99594703893535L66.6289065,35.51955132014387L66.632952,26.00391091518702L66.717893,19.67926248647716L66.967699,16.73197631869833L67.162985,49.38502096451343L67.1749765,66.49169976946328L67.316482,38.54657209256989L67.4021045,25.52414259513755L67.4336565,36.46893044933412L67.607033,28.336681589389695L67.9011365,24.547053620655586L67.9679235,19.0003669872255L68.2494555,16.41561101604708L69.0826835,15.211114733477944L69.2724595,56.237739465800715L69.34509,33.76822659106315L69.459379,28.968513591435432L69.488292,21.06076733360892L69.610817,23.04683757746176L69.89862749999999,18.30126631109719L70.0417425,21.760910100971298L70.305425,21.482744107052618L71.04338800000001,23.24347875388653L71.0611795,56.20010109931113L71.2131685,71.55788711227898L71.6487195,42.797775394322L71.7336605,29.395563333754062L72.182247,21.259772513529388L73.51265099999999,21.249213991304682L74.234432,55.27077371994798L74.45506400000001,33.31762055349576L74.728534,23.087451177929015L74.79056499999999,18.320192248914907L74.87879749999999,17.989009587994357L74.9475275,15.944318468005354L74.9839225,16.88185240609049L75.0302065,15.428383221238155L76.05144150000001,52.55826658109698L76.400674,32.0535922267912L76.5528805,22.4984139776847L76.725039,18.04570091360107L76.803948,17.861096625738078L76.999031,15.884711027593932L77.46304549999999,14.963715338858774L77.7159835,18.315251347908188L78.3728045,48.23246712812521L78.852334,31.92812968170635L79.09855850000001,22.439948431675152L79.18268749999999,18.01845596916063L79.24281900000001,15.958040481628853L79.43822100000001,18.77860686443904L79.6030425,16.31227079882857L80.241637,32.17619819225412L80.2607045,22.55554835759041L80.359522,18.072325534637148L80.385593,15.9831436991409L80.42008849999999,15.009584963799666L80.7243565,14.555906593130631L80.7493255,14.344492472398882L80.8238845,16.13633349213787L81.041776,15.080971407336257L81.098877,14.589172675818704L81.75798900000001,14.359994466931518L82.068202,14.253197421590082L82.3647415,48.229909998460975L82.560593,30.03657805928282L83.048837,23.448845375625787L83.0525925,18.488601945041626L83.161183,16.177128506389383L83.2615665,15.099981883977447L83.935889,14.598031557933485L84.0119125,16.254482705996995L84.762215,17.026388940994583L85.0992095,15.495737246503486L85.1700275,28.014973556870622L85.60053250000001,20.616417677501712L85.83914449999999,19.059050637715803L85.91447199999999,27.78511759717556L86.11956,20.509304800283818L86.4406915,19.009136036932237L87.0561295,23.98113739321041L87.41880350000001,22.517370025236044L87.570691,18.054534431759997L87.7048015,19.75557304520017L88.237459,16.767537039063267L88.3355805,15.375112260203483L88.79499849999999,16.616602313254813L88.959153,19.08549667797674L89.03551,16.455281451937157L89.1086045,15.229601156602698L89.449572,14.658434138976851L89.76245300000001,16.282630308763235L89.8102015,15.149145723883656L89.8996665,14.620941907329788L89.926361,18.155518928815674L90.018784,16.02191182082809L90.32966400000001,15.027650908505885L91.057709,16.45468532336374L91.2599695,15.229323360687484L91.41229200000001,16.548664686080375L92.03969249999999,15.273117743713462L92.21834700000001,14.678712868570475L92.630901,82.45468019675384L92.6423995,108.3672009716873L93.0923925,61.84127565280628L93.905451,38.26983445420772L94.26564549999999,25.39518285566082L94.753324,19.39559521073794L94.926048,18.490147368203868L95.2454395,16.177848673582996L96.0588605,16.990677481889676L96.39669599999999,15.479095706560607L96.44038450000001,14.774698599257237L96.6844485,18.227169547253855L97.043483,16.055301009020294L97.327683,15.043210270203451L97.5038145,14.571575985914816L97.627833,14.351794409436291L97.6886895,14.249376194797305L97.71723999999999,14.201649306775536L97.953967,14.179408576957398L98.2835375,14.169044396862132L98.300024,16.054574688937755L98.3091445,16.93323180504498L98.528834,15.452326021150961L98.897656,16.65258392585635L99.0363485,15.321544109449047L99.2011265,14.701279555003257L99.205578,16.302596272631522L99.27496049999999,17.04880986304629L99.325058,15.506185396179553L99.9488625,16.677682394619673L99.963058,15.33323999589276L100.115424,14.706729838086009L100.188214,14.41477610454808L100.8885205,14.278725664719387L101.0858075,14.215326159759226L101.28621199999999,14.1857819904478L101.359843,16.06237440754868L101.626121,15.046506473917663L101.6308045,14.573112016845647L101.65032149999999,14.352510199850071L101.85487300000001,16.140069753130124L101.90644950000001,15.082712504958641L102.26720949999999,16.480344027310718L102.75375700000001,15.241280316726778L103.11704,14.663876627594679L103.1943105,16.28516650845912L103.2548915,17.040687592941943L103.278251,17.392760418310957L103.767655,15.666466354932915L104.51149050000001,16.75237332139874L104.66063749999999,17.258405967771807L104.78188650000001,15.603857180981658L104.862173,14.832837446337457L105.2110285,16.36390224999326L105.43477800000001,15.187018448496856L106.1214255,14.638590596999537L106.3526425,14.38302321820176L106.63917699999999,14.263928819682025L107.285877,14.208430829971812L107.3119045,14.182568766766856L107.416696,14.170517045313348L107.45410600000001,14.164900943116008L107.53185500000001,14.162283839492073L107.65817899999999,80.32366426920329L107.7317375,44.992267549448734L107.959982,28.52783667804311L108.1629675,20.85541189196808L108.516521,17.28006194165713L108.92065050000001,19.394668864812218L108.955436,16.59935569100248L109.01797450000001,15.296739752007152L109.747484,14.689720724435336L110.181933,14.406849857586868L110.306343,16.165392033635488L110.3927775,15.094512687674133L110.6593165,14.595482912456143L110.809029,14.362935037204567L110.8137995,16.144927727337326L110.93214850000001,15.08497632093918L111.00447449999999,16.48139896555766L111.66091850000001,15.241771917949878L111.8602065,14.664105713764641L112.158834,14.394913262614306L112.1843975,16.15982958037826L112.7230145,15.091920584456252L112.8284585,20.26535499235662L113.0615605,17.005095426438178L113.1841435,15.485814468720207L113.4493195,14.777829542423586L113.752703,16.338268566769415L113.8192725,15.175073152114535L114.0593925,14.633024088885364L114.2450795,14.38042922542057L114.5926445,14.262720019045991L114.640509,14.207867528875425L114.884573,14.182306268455932L115.153896,14.170394721100454L115.536841,14.16484394003281L115.64940449999999,14.16225727605529L115.8802155,14.16105189064177L116.32306000000001,14.160490181039073L116.3986485,14.160228424364185L116.59544249999999,14.160106445753724L116.6427415,14.160049603721243L117.02022,14.1600231153341L117.05470100000001,14.160010771745686L117.3615645,14.160005019633491L117.5715825,14.160002339149196L118.5759105,14.160001090043535L118.5897145,17.940720507960272L118.67104499999999,15.921815756709476L118.673191,14.981006142626622L118.985666,14.542588862463983L119.6479825,14.338286409908223L119.666006,14.243081467017229L119.68143400000001,14.198715963630013L119.6973115,14.178041639051585L119.697529,14.168407403798048L120.0525615,14.163917850169899L120.768412,14.161825718179156L121.073579,16.051210784671483L121.0995775,15.041304225656905L121.12343,14.570687769156118L121.180705,18.13210050042676L121.4959205,17.901358833198852L121.760908,15.903473216270646L122.036089,16.862818518782127L122.137734,15.419513429752467L122.1905865,16.637293258264666L123.0677205,15.314418658351325L123.288628,14.697959094791717L123.642022,14.410688938172923L123.6863195,18.057541045188586L123.96506749999999,15.976254127057889L124.0557795,15.006374423208968L124.1775215,14.55441048121537L125.281131,14.34379528424636L125.36286750000001,14.245648602458783L125.487234,14.199912248745793L125.5619815,14.178599107915545L125.61194850000001,14.168667184288642L125.99418299999999,14.164038907878517L126.180044,16.05224213107138L126.819001,16.932144833079256L126.8677355,15.451819492214929L127.028758,14.761987883372162L127.1024615,14.44052635365141L127.25453750000001,14.290725280801563L127.67118049999999,14.220917980853537L127.91923200000001,14.188387779077742L127.92567,14.173228705050237L128.4518895,14.166164576553388L128.465157,14.162872692673881L128.5474735,17.942058674786047L128.734364,15.922439342450271L128.9887955,14.981296733581825L129.198132,14.54272427784912L129.323035,14.338349513477695L129.45801550000002,14.243110873280601L129.8667125,14.198729666948765L129.899613,14.178048024798107L130.336469,14.16841037955591L130.6288905,14.163919236873067L130.6735215,14.16182636438284L130.72664949999998,14.160851085802422L131.8505735,14.160396605983916L132.78225650000002,14.160184818388494L132.88651149999998,14.16008612536903L133.6710195,14.16004013442198L134.014336,14.160018702640631L134.216553,14.160008715430545L134.23641800000001,14.160004061390623L134.260923,14.16000189260802L134.4075325,14.160000881955328L134.4385335,14.16000041099117L134.6204795,14.1600001915219L134.659789,14.160000089249193L135.139971,14.160000041590143L135.244516,14.160000019380995L135.370202,14.16000000903153L135.941937,14.160000004208696L136.2689845,16.05036000196124L136.62691700000002,15.040907760913932L136.782212,14.57050301658587L136.953689,14.351294405729028L137.35800700000001,14.249143193069715L137.3828165,14.201540727970482L137.688636,14.179357979234254L137.72632149999998,14.169020818323162L137.7870475,14.164203701338606L138.14883700000001,14.161958924823786L138.23082,16.051272858967888L138.235286,16.93169315227903L138.51328,15.451609008962016L138.728083,14.761889798176316L138.83344,14.44048064595015L138.9182505,14.290703981012781L139.336706,14.220908055151957L139.619427,14.188383153700789L139.917895,14.17322654962456L139.946982,14.166163572125035L139.97773650000002,14.162872224610261L140.0396805,14.16133845666838L140.09538949999998,14.16062372080747L140.2606605,17.941010653896285L140.2943875,15.921950964715666L140.36900450000002,14.98106914955749L140.487716,14.542618223693792L140.806745,14.338300092241314L140.8595975,14.243087842984457L141.02689850000002,14.198718934830762L141.178931,14.178043023631115L141.862664,14.168408049012092L141.9298135,14.163918150839635L142.093765,14.161825858291255L142.36101449999998,14.160850849963717L142.3619135,14.160396496083102L142.4795085,14.160184767174725L142.591086,14.160086101503428L143.1555855,16.05040012330061L143.447079,15.04092645745808L144.168077,14.570511729175466L144.35852,14.351298465795754L144.5994665,14.249145085060823L144.834642,14.201541609638324L144.899776,14.17935839009147L144.9236865,14.169021009782638L144.971319,14.164203790558702L145.2907395,14.161958966400356L145.2975545,14.160912878342561L145.57324300000002,14.160425401307641L146.1837365,14.160198237009368L146.20451500000001,14.160092378446366L146.40707999999998,14.160043048356014L146.422479,14.160020060533899L146.74481400000002,14.160009348208801L146.794375,14.160004356265294L147.0049585,14.16000203001963L147.645612,14.16000094598914L147.6949555,14.160000440830936L147.726116,14.160000205427226L147.843682,14.160000095729073L147.920503,14.160000044609747L148.63188749999998,14.160000020788141L148.8250855,16.050360009687285L148.9035305,15.04090776451426L148.9725795,14.570503018263649L149.242149,16.241654406510865L149.3699665,15.130050953434058L149.3976905,18.39276374430028L149.4918535,16.132467904843917L149.6684635,15.079170043657257L150.1268955,14.588333240344276L150.48152199999998,14.359603290000432L150.5825,16.14337513314019L151.3578875,15.084252812043323L151.4610405,14.590701810412186L152.303302,14.360707043652095L152.6476045,14.25352948234187L153.6106655,14.203584738771307L153.7824325,14.18031048826742L153.830645,19.840544687532617L154.14602,16.807133824390196L154.375729,15.393564362165826L154.424855,14.734840992769255L154.4530575,14.427875902630495L154.56086499999998,16.1751901706258L154.8015215,15.099078619511626L154.986237,16.487970636692406L154.9878465,15.244834316698654L155.169227,14.665532791581585L155.2248925,14.395578280877022L155.59126400000002,16.160139478888688L156.020203,15.092064997162149L156.09393550000001,14.594342288677556L156.5073595,16.252763506523742L156.8003175,15.135227794040066L156.977029,14.614456152022685L157.0082185,14.371776566842552L157.8796685,16.14904788014862L158.217533,15.086896312149236L158.2957605,14.591933681461558L158.444371,14.361281095561083L158.7482475,14.253796990531464L158.8317675,16.094069397587653L158.85184999999998,18.84199633927585L158.90075850000002,16.341810294102523L159.170415,18.95744359705178L160.008718,16.39560871622613L160.5885585,15.201793661761384L160.62389499999998,14.64547584638081L161.0674645,14.386231744413443L161.09708799999999,14.265423992896654L161.1159525,14.20912758068984L161.12436250000002,14.182893452601471L161.21898950000002,14.170668348912278L161.22463,14.164971450593125L161.26740500000002,14.162316695976395L161.28377550000002,14.161079580324998L161.5041755,14.160503084431458L162.2528975,14.160234437345045L162.519915,16.050469247802774L162.60060750000002,16.931318669476102L162.87043799999998,15.45143449997586L162.948361,14.761808476988751L163.1649475,14.440442750276764L163.37041250000001,14.29068632162898L163.6184785,14.220899825879087L163.765117,14.188379318859646L163.8135615,14.173224762588594L164.4943655,14.166162739366278L164.769938,14.162871836544685L165.17643099999998,14.161338275829829L165.2000515,14.1606236365367L165.564712,16.050650614626104L165.63634199999998,15.041043186415749L165.708929,14.570566124869742L165.8921655,14.351323814189298L166.1815275,14.249156897412202L166.51695600000002,14.20154711419407L166.5733755,14.179360955214445L167.205648,14.169022205129929L167.504174,14.164204347590532L168.0755465,14.161959225977188L168.124629,14.160912999305383L168.2427605,14.160425457676306L169.027428,14.160198263277143L169.61460549999998,14.160092390687138L169.74859999999998,14.160043054060193L169.85777050000002,14.160020063192043L169.9438715,14.160009349447499L170.01564649999997,14.16000435684252L170.110549,14.160002030288613L170.3287015,14.160000946114474L170.4169485,14.16000044088934L170.42476399999998,14.160000205454441L170.54541849999998,14.160000095741747L170.6161785,14.16000004461566L171.1339155,14.160000020790893L171.140107,14.16000000968856L171.1836795,14.160000004514856L171.42683,14.16000000210392L171.43168749999998,14.160000000980418L171.5480935,14.160000000456877L171.809717,14.160000000212891L171.8266675,14.16000000009921L171.961184,14.160000000046232L172.124193,14.16000000002153L172.974676,14.160000000010035L173.153548,14.16000000000467L173.4068485,14.160000000002155L173.627292,14.160000000001014L173.6663405,14.160000000000444L174.1177835,14.16000000000021L174.20643650000002,14.16000000000009L174.54008149999999,14.160000000000052L175.15740449999998,14.160000000000032L175.18585349999998,14.159999999999993L175.3470065,14.159999999999993L175.75513800000002,14.159999999999993L175.8582765,14.159999999999993L176.211772,14.159999999999993L176.7460825,14.159999999999993L176.8615895,16.050359999999998L177.31190149999998,15.040907759999985L177.336392,14.570503016159975L177.51258149999998,14.351294405530574L177.6138205,14.249143192977238L177.746075,14.201540727927387L177.854941,14.179357979214151L178.1931245,14.169020818313788L178.24080049999998,14.164203701334223L178.48042750000002,14.161958924821741L178.74463200000002,16.051272858966946L179.330838,15.041333152278575L180.8425935,14.570701248961807L180.972702,14.351386782016215L181.155518,14.24918624041953L181.2132715,14.201560788035497L181.2935435,14.179367327224524L181.56292449999998,14.169025174486631L181.7151455,14.164205731310785L181.901485,14.161959870790824L182.004203,14.160913299788513L182.166139,14.160425597701451L182.183481,14.160198328528882L182.2167585,14.160092421094465L182.261955,14.160043068230019L182.333469,14.160020069795193L182.36419450000002,16.050369352524566L182.483051,15.040912118276424L182.52700049999999,14.570505047116805L182.90378299999998,14.351295351956423L182.9154265,14.249143634011688L183.0349355,14.201540933449436L183.101273,14.179358074987427L183.16863999999998,14.169020862944135L183.4890465,14.16420372213196L183.8105405,14.16195893451349L183.85812950000002,14.16091286348328L183.944274,14.160425394383198L184.80596549999999,14.160198233782584L184.83020950000002,14.160092376942677L185.224218,14.16004304765528L185.816543,17.940740060207347L186.233012,15.92182486805663L187.1007355,14.98101038851438L187.26674599999998,14.542590841047698L187.33963749999998,14.338287331928225L187.7221475,14.243081896678554L187.9668785,14.198716163852183L188.1480995,14.17804173235511L188.2112905,19.83948744727747L189.32244,16.806641150431304L189.469702,15.393334776100971L189.7490445,14.734734005663068L189.797953,14.427826046638968L189.888433,16.175166937733753L190.10883299999998,15.099067792983927L190.450743,14.597605591530495L190.7158755,14.363924205653205L190.9184405,14.25502867983439L191.189083,14.20428336480282L191.1969275,14.180636047998124L191.21295,14.169616398367102L191.769721,14.164481241639068L192.2636925,16.05244825860383L192.37780750000002,16.932240888509376L192.7391185,15.451864254045361L193.0278135,14.762008742385142L193.19362099999998,14.44053607395148L193.37311649999998,14.290729810461384L193.6660745,14.220920091675001L194.616419,16.078748762720565L194.757678,15.05413692342776L194.761245,14.576667806317325L194.78517,14.35416719774388L195.235975,14.250481914148638L195.369984,14.202164571993272L195.571592,14.179648690548857L195.5757825,14.169156289795776L196.084747,16.054626831044825L196.252222,15.042896103266868L196.32942,14.571429584122363L196.4323265,14.351726186201017L196.504493,14.249344402769674L196.53611750000002,14.201634491690672L196.90195250000002,14.17940167312785L196.95611,14.169041179677563L197.300978,14.164213189729727L197.424982,16.05232334641405L197.78812,16.93218267942896L198.104017,17.342197128613886L198.202791,15.64290386193408L198.3973085,14.851033199661275L198.42291550000002,14.482021471042145L198.66421,14.310062005505632L198.71074049999999,14.229928894565603L198.8146185,14.192586864867588L199.59448650000002,14.1751854790283L199.6181215,14.167076433227198L199.795036,14.163297617883876L199.8416825,14.161536689933877L200.329738,14.160716097509193L200.512293,14.1603337014393L200.5318535,19.83123550487071L200.54297499999998,16.802795745269748L200.55574950000002,15.3915428172957L200.987284,22.29533895285978L201.08805900000002,17.95106795203266L201.127615,17.816997665647218L201.48058849999998,17.75452091219162L201.62753149999998,15.835046745081284L201.67568599999998,14.94057178320788L201.7433575,14.523746450974874L201.7874085,14.329505846154278L202.14758849999998,14.238989724307892L202.53104100000002,14.19680921152748L202.8252025,14.1771530925718L203.200448,16.05835334113848L203.30631250000002,15.044632656970508L203.37468,14.572238818148257L203.51116850000003,14.352103289257064L203.5949785,14.249520132793808L203.864722,16.09207638188192L204.254076,15.060347593956966L204.3930005,14.579561978783952L205.0405125,16.245875882113307L205.362427,15.132018161064813L205.3734905,14.612960463056204L205.4503695,16.261439575784184L205.54701200000002,17.029630842315427L206.0885,17.38760797251899L206.1012745,15.664065315193843L206.125765,14.860894436880342L206.6186055,14.486616807586246L206.77587250000002,14.312203432335169L206.8601175,14.230926799468184L207.09220449999998,14.193051888552167L207.372243,14.175402180065326L207.38388650000002,14.167177415910436L207.763946,14.16334467581428L208.416446,14.161558618929433L208.5126825,14.160726316421105L208.634352,14.160338463452236L208.8005945,14.160157723968764L209.0234015,14.160073499369421L209.06709,14.160034250706152L209.0900145,14.16001596082907L209.3318165,14.160007437746334L209.87758200000002,14.160003465989787L209.97847299999998,14.160001615151243L210.085657,14.160000752660466L210.5173365,14.160000350739773L210.6293635,16.050360163444747L211.23897250000002,15.040907836165252L211.31377799999999,14.570503051653006L211.43517200000002,16.241654422070287L211.453529,15.130050960684766L211.94850100000002,14.612043747679072L211.996931,14.370652386418442L212.097706,16.148524012070983L212.830275,16.97701218962506L213.16331100000002,15.472727680365287L213.826048,14.771731099050218L214.44811249999998,23.896866692157403L214.60493000000002,20.58773987854534L214.88612849999998,17.15532678340212L215.241596,15.555822281065383L215.409477,14.810453182976456L215.4968105,14.463111183267012L215.5074535,14.301249811402444L215.7351325,14.22582241211353L215.81743450000002,14.190673244044893L215.8673,14.174293731724932L215.91413500000002,14.166660878983812L215.9397275,14.163103969606443L216.19444900000002,14.161446449836605L216.6189655,16.05103404562384L216.66661249999999,15.041221865260715L216.6881015,14.570649389211484L217.37699650000002,16.241722615372552L217.51784949999998,17.020442738763606L217.8825245,15.492966316263848L218.31764049999998,14.781162303378954L218.4609875,14.44946163337458L218.50827199999998,14.294889121152538L218.600753,14.22285833045707L218.747899,14.189291981992973L218.8046375,14.173650063608733L218.845049,16.056720929641678L219.1824205,15.043871953213008L219.272596,14.571884330197257L219.6296005,14.35193809787191L219.872548,14.249443153608297L220.15354349999998,14.201680509581454L220.17178449999997,14.179423117464957L220.234004,14.16905117273866L220.5078655,16.054577846496223L220.8125105,15.04287327646725L221.045772,14.57141894683374L221.1292485,16.242081229224507L221.41576849999998,15.130249852818629L221.5371045,14.61213643141349L221.640678,14.370695577038676L221.8361525,14.25818413890003L222.2439215,14.205753808727419L222.701817,14.181321274866955L223.0056355,16.06029571408801L223.2496705,15.045537802765008L223.46664850000002,14.572660616088498L223.760491,16.24265984709726L223.8001195,17.02087948874731L223.8820155,15.493169841756249L223.96373749999998,14.781257146258401L224.2574785,14.44950583015642L224.69697349999998,14.294909716852901L224.8975665,14.222867928053459L225.0377815,14.189296454472899L226.088321,16.064012147784382L226.1660845,15.047269660867503L226.3295865,14.573467661964267L226.82713950000002,14.352675930475344L227.22313450000001,14.249786983601512L227.320212,14.201840734358301L227.34544200000002,17.96021778221096L228.3137665,15.930901486510297L228.4922615,14.985240092713797L228.57956599999997,14.544561883204613L228.7722275,14.33920583757335L229.3631895,14.243509920309195L229.779789,14.198915622864062L229.9924025,16.068494680254663L229.99797049999998,15.04935852099867L230.254606,16.464801070785388L230.5615275,17.124397298986004L230.72117250000002,17.431769141327482L230.733947,15.684644419858584L231.070231,14.870484299654096L231.2240905,14.491085683638811L231.3197615,14.314285928575696L231.6898885,16.122257242716255L231.9755385,15.074411875105794L232.024273,14.58611593379927L232.120611,16.248930025150454L232.25604099999998,15.133441391720117L232.3341815,14.613623688541557L232.41035,14.371388638860356L233.279741,14.258507105708917L233.3066965,14.205904311260346L233.31153949999998,14.181391409047304L233.8105715,14.169968396616031L234.4140905,14.164645272823083L234.4206155,14.16216469713555L234.7220995,14.161008748865184L234.7593645,14.160470076971166L234.841014,14.160219055868565L234.922649,14.160102080034745L235.502214,14.160047569296177L235.584864,14.160022167291999L235.64042799999999,14.160010329958073L235.8193145,14.160004813760459L235.8994415,14.160002243212366L236.1197255,14.160001045336962L236.2165275,14.160000487127036L236.277645,14.160000227001214L236.35662649999998,16.05036010578256L236.57535900000002,15.040907809294684L236.6981305,14.570503039131305L236.90192800000003,14.351294416235191L237.1603035,14.249143197965592L237.4986175,16.091900730251982L237.62330300000002,15.060265740297403L237.90277600000002,14.579523834978604L237.9294125,14.355498107100026L238.6784245,16.141462117908603L239.3965225,15.083361346945402L239.740941,16.480646387676565L240.1605855,15.241421216657276L240.65056950000002,14.6639422869623L240.7335965,14.394837105724406L240.75829,16.159794091267578L240.870839,16.98226404653069L241.62030049999998,15.475175045683308L242.1315125,24.22467157128842L242.2327225,18.850136952220417L242.357234,16.345603819734702L242.951357,20.849571379996366L244.059476,17.2773402630783L244.6316025,15.612680562594496L244.63277699999998,14.836949142169033L244.68183050000002,14.475458300250764L244.775486,14.307003567916844L244.8583825,14.228503662649254L244.9741505,14.191922706794543L245.12513900000002,14.17487598136625L245.3838625,14.166932207316664L245.6114255,19.834310408609582L245.9172595,18.694588650412044L246.29086650000002,16.273118311092016L246.63962049999998,15.144713132968878L246.8154185,14.618876319963483L247.367303,14.373836365102989L247.37394400000002,14.259647746137988L247.41312299999998,14.206435849700313L247.8440485,14.181639105960347L247.992253,14.170083823377526L248.233417,14.164699061693938L248.29225799999998,14.162189762749364L248.73091200000002,14.161020429441221L248.8559745,14.160475520119606L248.93579699999998,14.160221592375713L249.0292495,14.16010326204708L249.27126900000002,16.050408120113932L249.5436515,15.040930183973082L249.61837,14.570513465731448L249.749131,14.351299275030852L250.1322065,14.249145462164392L250.2608795,14.201541785368613L251.17191449999999,14.179358471981764L251.2599585,14.1690210479435L251.27224,14.16420380834167L251.344595,14.16195897468722L251.3684765,14.160912882204247L251.473007,16.050785403107163L251.54446299999998,15.041105997847946L251.6313325,14.570595394997127L251.76748750000002,14.35133745406866L251.856967,14.249163253595997L252.0794695,14.201550076175714L252.6377485,16.069722335497868L252.88609000000002,16.94029060834203L253.713663,15.455615423487394L253.842626,16.65411678734512L254.18700099999998,15.322258422902799L254.269883,16.591972425072722L254.31061350000002,15.293299150083902L254.5670315,14.688117403939081L254.6511895,14.406102710235611L254.998653,14.274683862969798L255.21918349999999,14.213442680143945L255.4635955,14.18490428894705L255.633521,14.171605398649325L255.69062200000002,14.165408115770589L255.7863945,14.16252018194909L255.8548635,14.161174404788284L255.95256450000002,14.160547272631337L256.030212,14.160255029046205L256.0383465,14.160118843535543L256.5158895,16.05041538108756L256.75208000000003,16.931293567586795L256.814778,15.45142280249545L256.8156335,14.761803025962873L256.8294375,22.001880210098697L256.9271675,19.704676177905988L257.13293699999997,18.634179098904205L257.1460305,16.244967460089352L257.265583,15.131594836401622L257.607928,14.612763193763163L257.627967,14.370987648293646L258.1108025,14.258320244104814L258.5588815,16.096177233752833L258.783936,15.062258590928826L258.9666505,14.580452503372822L259.410104,14.355930866571725L259.4822995,14.251303783822442L259.900291,14.202547563261243L260.546005,16.070187164479762L260.97200050000004,15.050147218647561L261.21232349999997,14.574808603889759L261.308386,14.353300809412632L261.3372845,16.140438177186276L261.3487975,15.082884190568794L261.49266650000004,14.59006403280505L261.650934,14.360409839287147L261.6745545,14.25339098510781L261.744401,14.203520199060263L261.8317055,14.180280412762064L262.006619,14.169450672347107L262.106582,14.164404013313757L262.379994,16.052412270204215L262.5079275,16.93222411791516L262.534361,15.451856438948477L262.55764800000003,14.762005100549985L263.19406749999996,14.44053437685629L264.11017749999996,14.290729019615032" style="fill: none;" fill="none"></path></g></g></g></g><g opacity="0.2"><g><g><g><path stroke="rgb(255, 112, 67)" stroke-width="2px" d="M29.068933,162.84L29.1507565,159.3L29.268452999999997,159.3L29.364704,162.84L29.369489,162.84L29.40658,159.3L29.4337965,155.76L29.4910715,162.84L29.492507,162.84L29.504382500000002,162.84L29.7366435,162.84L29.830792000000002,162.84L29.8955345,162.84L29.904017,159.3L29.980316,159.3L29.998847,159.3L30.1070025,159.3L30.1180225,162.84L30.247304500000002,162.84L30.253815,162.84L30.298446,159.3L30.592622,162.84L30.672662,155.76L30.7341275,159.3L30.8634965,159.3L30.992677,162.84L31.0800105,155.76L31.084404,159.3L31.105023,159.3L31.1123745,159.3L31.1933135,159.3L31.2032895,162.84L31.281517,155.76L31.4796015,159.3L31.736570500000003,159.3L31.817553,155.76L31.8237735,148.68L32.025889,162.84L32.0879055,159.3L32.16332,155.76L32.396190000000004,162.84L32.517874,159.3L32.731836,152.22L32.8627275,159.3L32.9638215,155.76L33.1532205,155.76L33.258563,162.84L33.2957845,155.76L33.299888,134.52L33.375752,148.68L33.375766500000005,145.14000000000001L33.4087685,148.68L33.419832,145.14000000000001L33.5002055,155.76L33.932581,145.14000000000001L34.0901235,148.68L34.781295,141.6L35.0287085,152.22L35.458184,145.14000000000001L35.691764500000005,152.22L35.749054,141.6L35.7521715,159.3L35.960551,155.76L36.6587115,155.76L37.222457,155.76L37.2312005,148.68L37.445119,130.98L37.738772999999995,102.66000000000001L38.023611,109.74L38.0549165,127.44L38.492802000000005,109.74L38.6170235,138.06L38.959673,102.66000000000001L39.216787,159.3L39.660661,120.35999999999999L39.807894,106.2L40.18762,95.58000000000001L40.5360405,92.04L40.939677,113.28L41.009248,81.41999999999999L41.73226149999999,145.14000000000001L41.750226999999995,145.14000000000001L41.788565,130.98L42.369841,102.66000000000001L42.441064999999995,67.26L42.8591,134.52L43.236361,74.34L43.886338,116.81999999999998L44.0121545,127.44L45.0681315,109.74L45.1402255,81.41999999999999L45.4486695,116.81999999999998L46.1146835,70.8L46.756323,67.26L46.96173,31.86000000000001L47.34163,53.10000000000001L47.596801,21.24L47.623625999999994,74.34L47.792986,46.02L48.137709,46.02L48.989931999999996,38.94L49.06481,35.39999999999999L49.337381,38.94L49.687236999999996,84.96L50.484635499999996,24.78L50.589890999999994,24.78L50.969588,17.699999999999996L51.01651,35.39999999999999L51.538785499999996,53.10000000000001L51.9757575,38.94L52.557714999999995,92.04L52.7119225,17.699999999999996L53.5973505,17.699999999999996L53.896036,70.8L53.916916,17.699999999999996L53.973712500000005,67.26L54.107011,92.04L55.183259,21.24L55.2225685,84.96L55.351009499999996,31.86000000000001L55.9730015,28.320000000000004L56.258202,38.94L56.6986395,31.86000000000001L56.857690000000005,14.159999999999993L57.4332675,17.699999999999996L57.4651675,17.699999999999996L57.492761,17.699999999999996L57.946147,14.159999999999993L57.991416,92.04L58.358062999999994,14.159999999999993L59.4363845,21.24L59.5429885,92.04L59.6401965,92.04L59.6647015,14.159999999999993L59.890292499999994,17.699999999999996L60.932741,92.04L61.743697,14.159999999999993L62.061290500000005,28.320000000000004L62.108371999999996,14.159999999999993L62.546707,17.699999999999996L62.616611500000005,17.699999999999996L63.1721065,14.159999999999993L63.411226,21.24L64.0776895,84.96L64.806126,14.159999999999993L64.82892,70.8L65.26441299999999,21.24L65.5672165,17.699999999999996L65.738186,14.159999999999993L66.0598105,17.699999999999996L66.2369715,42.48L66.4646215,84.96L66.6289065,14.159999999999993L66.632952,17.699999999999996L66.717893,14.159999999999993L66.967699,14.159999999999993L67.162985,77.88L67.1749765,81.41999999999999L67.316482,14.159999999999993L67.4021045,14.159999999999993L67.4336565,46.02L67.607033,21.24L67.9011365,21.24L67.9679235,14.159999999999993L68.2494555,14.159999999999993L69.0826835,14.159999999999993L69.2724595,92.04L69.34509,14.159999999999993L69.459379,24.78L69.488292,14.159999999999993L69.610817,24.78L69.89862749999999,14.159999999999993L70.0417425,24.78L70.305425,21.24L71.04338800000001,24.78L71.0611795,84.96L71.2131685,84.96L71.6487195,17.699999999999996L71.7336605,17.699999999999996L72.182247,14.159999999999993L73.51265099999999,21.24L74.234432,84.96L74.45506400000001,14.159999999999993L74.728534,14.159999999999993L74.79056499999999,14.159999999999993L74.87879749999999,17.699999999999996L74.9475275,14.159999999999993L74.9839225,17.699999999999996L75.0302065,14.159999999999993L76.05144150000001,84.96L76.400674,14.159999999999993L76.5528805,14.159999999999993L76.725039,14.159999999999993L76.803948,17.699999999999996L76.999031,14.159999999999993L77.46304549999999,14.159999999999993L77.7159835,21.24L78.3728045,74.34L78.852334,17.699999999999996L79.09855850000001,14.159999999999993L79.18268749999999,14.159999999999993L79.24281900000001,14.159999999999993L79.43822100000001,21.24L79.6030425,14.159999999999993L80.241637,46.02L80.2607045,14.159999999999993L80.359522,14.159999999999993L80.385593,14.159999999999993L80.42008849999999,14.159999999999993L80.7243565,14.159999999999993L80.7493255,14.159999999999993L80.8238845,17.699999999999996L81.041776,14.159999999999993L81.098877,14.159999999999993L81.75798900000001,14.159999999999993L82.068202,14.159999999999993L82.3647415,77.88L82.560593,14.159999999999993L83.048837,17.699999999999996L83.0525925,14.159999999999993L83.161183,14.159999999999993L83.2615665,14.159999999999993L83.935889,14.159999999999993L84.0119125,17.699999999999996L84.762215,17.699999999999996L85.0992095,14.159999999999993L85.1700275,38.94L85.60053250000001,14.159999999999993L85.83914449999999,17.699999999999996L85.91447199999999,35.39999999999999L86.11956,14.159999999999993L86.4406915,17.699999999999996L87.0561295,28.320000000000004L87.41880350000001,21.24L87.570691,14.159999999999993L87.7048015,21.24L88.237459,14.159999999999993L88.3355805,14.159999999999993L88.79499849999999,17.699999999999996L88.959153,21.24L89.03551,14.159999999999993L89.1086045,14.159999999999993L89.449572,14.159999999999993L89.76245300000001,17.699999999999996L89.8102015,14.159999999999993L89.8996665,14.159999999999993L89.926361,21.24L90.018784,14.159999999999993L90.32966400000001,14.159999999999993L91.057709,17.699999999999996L91.2599695,14.159999999999993L91.41229200000001,17.699999999999996L92.03969249999999,14.159999999999993L92.21834700000001,14.159999999999993L92.630901,141.6L92.6423995,130.98L93.0923925,21.24L93.905451,17.699999999999996L94.26564549999999,14.159999999999993L94.753324,14.159999999999993L94.926048,17.699999999999996L95.2454395,14.159999999999993L96.0588605,17.699999999999996L96.39669599999999,14.159999999999993L96.44038450000001,14.159999999999993L96.6844485,21.24L97.043483,14.159999999999993L97.327683,14.159999999999993L97.5038145,14.159999999999993L97.627833,14.159999999999993L97.6886895,14.159999999999993L97.71723999999999,14.159999999999993L97.953967,14.159999999999993L98.2835375,14.159999999999993L98.300024,17.699999999999996L98.3091445,17.699999999999996L98.528834,14.159999999999993L98.897656,17.699999999999996L99.0363485,14.159999999999993L99.2011265,14.159999999999993L99.205578,17.699999999999996L99.27496049999999,17.699999999999996L99.325058,14.159999999999993L99.9488625,17.699999999999996L99.963058,14.159999999999993L100.115424,14.159999999999993L100.188214,14.159999999999993L100.8885205,14.159999999999993L101.0858075,14.159999999999993L101.28621199999999,14.159999999999993L101.359843,17.699999999999996L101.626121,14.159999999999993L101.6308045,14.159999999999993L101.65032149999999,14.159999999999993L101.85487300000001,17.699999999999996L101.90644950000001,14.159999999999993L102.26720949999999,17.699999999999996L102.75375700000001,14.159999999999993L103.11704,14.159999999999993L103.1943105,17.699999999999996L103.2548915,17.699999999999996L103.278251,17.699999999999996L103.767655,14.159999999999993L104.51149050000001,17.699999999999996L104.66063749999999,17.699999999999996L104.78188650000001,14.159999999999993L104.862173,14.159999999999993L105.2110285,17.699999999999996L105.43477800000001,14.159999999999993L106.1214255,14.159999999999993L106.3526425,14.159999999999993L106.63917699999999,14.159999999999993L107.285877,14.159999999999993L107.3119045,14.159999999999993L107.416696,14.159999999999993L107.45410600000001,14.159999999999993L107.53185500000001,14.159999999999993L107.65817899999999,138.06L107.7317375,14.159999999999993L107.959982,14.159999999999993L108.1629675,14.159999999999993L108.516521,14.159999999999993L108.92065050000001,21.24L108.955436,14.159999999999993L109.01797450000001,14.159999999999993L109.747484,14.159999999999993L110.181933,14.159999999999993L110.306343,17.699999999999996L110.3927775,14.159999999999993L110.6593165,14.159999999999993L110.809029,14.159999999999993L110.8137995,17.699999999999996L110.93214850000001,14.159999999999993L111.00447449999999,17.699999999999996L111.66091850000001,14.159999999999993L111.8602065,14.159999999999993L112.158834,14.159999999999993L112.1843975,17.699999999999996L112.7230145,14.159999999999993L112.8284585,24.78L113.0615605,14.159999999999993L113.1841435,14.159999999999993L113.4493195,14.159999999999993L113.752703,17.699999999999996L113.8192725,14.159999999999993L114.0593925,14.159999999999993L114.2450795,14.159999999999993L114.5926445,14.159999999999993L114.640509,14.159999999999993L114.884573,14.159999999999993L115.153896,14.159999999999993L115.536841,14.159999999999993L115.64940449999999,14.159999999999993L115.8802155,14.159999999999993L116.32306000000001,14.159999999999993L116.3986485,14.159999999999993L116.59544249999999,14.159999999999993L116.6427415,14.159999999999993L117.02022,14.159999999999993L117.05470100000001,14.159999999999993L117.3615645,14.159999999999993L117.5715825,14.159999999999993L118.5759105,14.159999999999993L118.5897145,21.24L118.67104499999999,14.159999999999993L118.673191,14.159999999999993L118.985666,14.159999999999993L119.6479825,14.159999999999993L119.666006,14.159999999999993L119.68143400000001,14.159999999999993L119.6973115,14.159999999999993L119.697529,14.159999999999993L120.0525615,14.159999999999993L120.768412,14.159999999999993L121.073579,17.699999999999996L121.0995775,14.159999999999993L121.12343,14.159999999999993L121.180705,21.24L121.4959205,17.699999999999996L121.760908,14.159999999999993L122.036089,17.699999999999996L122.137734,14.159999999999993L122.1905865,17.699999999999996L123.0677205,14.159999999999993L123.288628,14.159999999999993L123.642022,14.159999999999993L123.6863195,21.24L123.96506749999999,14.159999999999993L124.0557795,14.159999999999993L124.1775215,14.159999999999993L125.281131,14.159999999999993L125.36286750000001,14.159999999999993L125.487234,14.159999999999993L125.5619815,14.159999999999993L125.61194850000001,14.159999999999993L125.99418299999999,14.159999999999993L126.180044,17.699999999999996L126.819001,17.699999999999996L126.8677355,14.159999999999993L127.028758,14.159999999999993L127.1024615,14.159999999999993L127.25453750000001,14.159999999999993L127.67118049999999,14.159999999999993L127.91923200000001,14.159999999999993L127.92567,14.159999999999993L128.4518895,14.159999999999993L128.465157,14.159999999999993L128.5474735,21.24L128.734364,14.159999999999993L128.9887955,14.159999999999993L129.198132,14.159999999999993L129.323035,14.159999999999993L129.45801550000002,14.159999999999993L129.8667125,14.159999999999993L129.899613,14.159999999999993L130.336469,14.159999999999993L130.6288905,14.159999999999993L130.6735215,14.159999999999993L130.72664949999998,14.159999999999993L131.8505735,14.159999999999993L132.78225650000002,14.159999999999993L132.88651149999998,14.159999999999993L133.6710195,14.159999999999993L134.014336,14.159999999999993L134.216553,14.159999999999993L134.23641800000001,14.159999999999993L134.260923,14.159999999999993L134.4075325,14.159999999999993L134.4385335,14.159999999999993L134.6204795,14.159999999999993L134.659789,14.159999999999993L135.139971,14.159999999999993L135.244516,14.159999999999993L135.370202,14.159999999999993L135.941937,14.159999999999993L136.2689845,17.699999999999996L136.62691700000002,14.159999999999993L136.782212,14.159999999999993L136.953689,14.159999999999993L137.35800700000001,14.159999999999993L137.3828165,14.159999999999993L137.688636,14.159999999999993L137.72632149999998,14.159999999999993L137.7870475,14.159999999999993L138.14883700000001,14.159999999999993L138.23082,17.699999999999996L138.235286,17.699999999999996L138.51328,14.159999999999993L138.728083,14.159999999999993L138.83344,14.159999999999993L138.9182505,14.159999999999993L139.336706,14.159999999999993L139.619427,14.159999999999993L139.917895,14.159999999999993L139.946982,14.159999999999993L139.97773650000002,14.159999999999993L140.0396805,14.159999999999993L140.09538949999998,14.159999999999993L140.2606605,21.24L140.2943875,14.159999999999993L140.36900450000002,14.159999999999993L140.487716,14.159999999999993L140.806745,14.159999999999993L140.8595975,14.159999999999993L141.02689850000002,14.159999999999993L141.178931,14.159999999999993L141.862664,14.159999999999993L141.9298135,14.159999999999993L142.093765,14.159999999999993L142.36101449999998,14.159999999999993L142.3619135,14.159999999999993L142.4795085,14.159999999999993L142.591086,14.159999999999993L143.1555855,17.699999999999996L143.447079,14.159999999999993L144.168077,14.159999999999993L144.35852,14.159999999999993L144.5994665,14.159999999999993L144.834642,14.159999999999993L144.899776,14.159999999999993L144.9236865,14.159999999999993L144.971319,14.159999999999993L145.2907395,14.159999999999993L145.2975545,14.159999999999993L145.57324300000002,14.159999999999993L146.1837365,14.159999999999993L146.20451500000001,14.159999999999993L146.40707999999998,14.159999999999993L146.422479,14.159999999999993L146.74481400000002,14.159999999999993L146.794375,14.159999999999993L147.0049585,14.159999999999993L147.645612,14.159999999999993L147.6949555,14.159999999999993L147.726116,14.159999999999993L147.843682,14.159999999999993L147.920503,14.159999999999993L148.63188749999998,14.159999999999993L148.8250855,17.699999999999996L148.9035305,14.159999999999993L148.9725795,14.159999999999993L149.242149,17.699999999999996L149.3699665,14.159999999999993L149.3976905,21.24L149.4918535,14.159999999999993L149.6684635,14.159999999999993L150.1268955,14.159999999999993L150.48152199999998,14.159999999999993L150.5825,17.699999999999996L151.3578875,14.159999999999993L151.4610405,14.159999999999993L152.303302,14.159999999999993L152.6476045,14.159999999999993L153.6106655,14.159999999999993L153.7824325,14.159999999999993L153.830645,24.78L154.14602,14.159999999999993L154.375729,14.159999999999993L154.424855,14.159999999999993L154.4530575,14.159999999999993L154.56086499999998,17.699999999999996L154.8015215,14.159999999999993L154.986237,17.699999999999996L154.9878465,14.159999999999993L155.169227,14.159999999999993L155.2248925,14.159999999999993L155.59126400000002,17.699999999999996L156.020203,14.159999999999993L156.09393550000001,14.159999999999993L156.5073595,17.699999999999996L156.8003175,14.159999999999993L156.977029,14.159999999999993L157.0082185,14.159999999999993L157.8796685,17.699999999999996L158.217533,14.159999999999993L158.2957605,14.159999999999993L158.444371,14.159999999999993L158.7482475,14.159999999999993L158.8317675,17.699999999999996L158.85184999999998,21.24L158.90075850000002,14.159999999999993L159.170415,21.24L160.008718,14.159999999999993L160.5885585,14.159999999999993L160.62389499999998,14.159999999999993L161.0674645,14.159999999999993L161.09708799999999,14.159999999999993L161.1159525,14.159999999999993L161.12436250000002,14.159999999999993L161.21898950000002,14.159999999999993L161.22463,14.159999999999993L161.26740500000002,14.159999999999993L161.28377550000002,14.159999999999993L161.5041755,14.159999999999993L162.2528975,14.159999999999993L162.519915,17.699999999999996L162.60060750000002,17.699999999999996L162.87043799999998,14.159999999999993L162.948361,14.159999999999993L163.1649475,14.159999999999993L163.37041250000001,14.159999999999993L163.6184785,14.159999999999993L163.765117,14.159999999999993L163.8135615,14.159999999999993L164.4943655,14.159999999999993L164.769938,14.159999999999993L165.17643099999998,14.159999999999993L165.2000515,14.159999999999993L165.564712,17.699999999999996L165.63634199999998,14.159999999999993L165.708929,14.159999999999993L165.8921655,14.159999999999993L166.1815275,14.159999999999993L166.51695600000002,14.159999999999993L166.5733755,14.159999999999993L167.205648,14.159999999999993L167.504174,14.159999999999993L168.0755465,14.159999999999993L168.124629,14.159999999999993L168.2427605,14.159999999999993L169.027428,14.159999999999993L169.61460549999998,14.159999999999993L169.74859999999998,14.159999999999993L169.85777050000002,14.159999999999993L169.9438715,14.159999999999993L170.01564649999997,14.159999999999993L170.110549,14.159999999999993L170.3287015,14.159999999999993L170.4169485,14.159999999999993L170.42476399999998,14.159999999999993L170.54541849999998,14.159999999999993L170.6161785,14.159999999999993L171.1339155,14.159999999999993L171.140107,14.159999999999993L171.1836795,14.159999999999993L171.42683,14.159999999999993L171.43168749999998,14.159999999999993L171.5480935,14.159999999999993L171.809717,14.159999999999993L171.8266675,14.159999999999993L171.961184,14.159999999999993L172.124193,14.159999999999993L172.974676,14.159999999999993L173.153548,14.159999999999993L173.4068485,14.159999999999993L173.627292,14.159999999999993L173.6663405,14.159999999999993L174.1177835,14.159999999999993L174.20643650000002,14.159999999999993L174.54008149999999,14.159999999999993L175.15740449999998,14.159999999999993L175.18585349999998,14.159999999999993L175.3470065,14.159999999999993L175.75513800000002,14.159999999999993L175.8582765,14.159999999999993L176.211772,14.159999999999993L176.7460825,14.159999999999993L176.8615895,17.699999999999996L177.31190149999998,14.159999999999993L177.336392,14.159999999999993L177.51258149999998,14.159999999999993L177.6138205,14.159999999999993L177.746075,14.159999999999993L177.854941,14.159999999999993L178.1931245,14.159999999999993L178.24080049999998,14.159999999999993L178.48042750000002,14.159999999999993L178.74463200000002,17.699999999999996L179.330838,14.159999999999993L180.8425935,14.159999999999993L180.972702,14.159999999999993L181.155518,14.159999999999993L181.2132715,14.159999999999993L181.2935435,14.159999999999993L181.56292449999998,14.159999999999993L181.7151455,14.159999999999993L181.901485,14.159999999999993L182.004203,14.159999999999993L182.166139,14.159999999999993L182.183481,14.159999999999993L182.2167585,14.159999999999993L182.261955,14.159999999999993L182.333469,14.159999999999993L182.36419450000002,17.699999999999996L182.483051,14.159999999999993L182.52700049999999,14.159999999999993L182.90378299999998,14.159999999999993L182.9154265,14.159999999999993L183.0349355,14.159999999999993L183.101273,14.159999999999993L183.16863999999998,14.159999999999993L183.4890465,14.159999999999993L183.8105405,14.159999999999993L183.85812950000002,14.159999999999993L183.944274,14.159999999999993L184.80596549999999,14.159999999999993L184.83020950000002,14.159999999999993L185.224218,14.159999999999993L185.816543,21.24L186.233012,14.159999999999993L187.1007355,14.159999999999993L187.26674599999998,14.159999999999993L187.33963749999998,14.159999999999993L187.7221475,14.159999999999993L187.9668785,14.159999999999993L188.1480995,14.159999999999993L188.2112905,24.78L189.32244,14.159999999999993L189.469702,14.159999999999993L189.7490445,14.159999999999993L189.797953,14.159999999999993L189.888433,17.699999999999996L190.10883299999998,14.159999999999993L190.450743,14.159999999999993L190.7158755,14.159999999999993L190.9184405,14.159999999999993L191.189083,14.159999999999993L191.1969275,14.159999999999993L191.21295,14.159999999999993L191.769721,14.159999999999993L192.2636925,17.699999999999996L192.37780750000002,17.699999999999996L192.7391185,14.159999999999993L193.0278135,14.159999999999993L193.19362099999998,14.159999999999993L193.37311649999998,14.159999999999993L193.6660745,14.159999999999993L194.616419,17.699999999999996L194.757678,14.159999999999993L194.761245,14.159999999999993L194.78517,14.159999999999993L195.235975,14.159999999999993L195.369984,14.159999999999993L195.571592,14.159999999999993L195.5757825,14.159999999999993L196.084747,17.699999999999996L196.252222,14.159999999999993L196.32942,14.159999999999993L196.4323265,14.159999999999993L196.504493,14.159999999999993L196.53611750000002,14.159999999999993L196.90195250000002,14.159999999999993L196.95611,14.159999999999993L197.300978,14.159999999999993L197.424982,17.699999999999996L197.78812,17.699999999999996L198.104017,17.699999999999996L198.202791,14.159999999999993L198.3973085,14.159999999999993L198.42291550000002,14.159999999999993L198.66421,14.159999999999993L198.71074049999999,14.159999999999993L198.8146185,14.159999999999993L199.59448650000002,14.159999999999993L199.6181215,14.159999999999993L199.795036,14.159999999999993L199.8416825,14.159999999999993L200.329738,14.159999999999993L200.512293,14.159999999999993L200.5318535,24.78L200.54297499999998,14.159999999999993L200.55574950000002,14.159999999999993L200.987284,28.320000000000004L201.08805900000002,14.159999999999993L201.127615,17.699999999999996L201.48058849999998,17.699999999999996L201.62753149999998,14.159999999999993L201.67568599999998,14.159999999999993L201.7433575,14.159999999999993L201.7874085,14.159999999999993L202.14758849999998,14.159999999999993L202.53104100000002,14.159999999999993L202.8252025,14.159999999999993L203.200448,17.699999999999996L203.30631250000002,14.159999999999993L203.37468,14.159999999999993L203.51116850000003,14.159999999999993L203.5949785,14.159999999999993L203.864722,17.699999999999996L204.254076,14.159999999999993L204.3930005,14.159999999999993L205.0405125,17.699999999999996L205.362427,14.159999999999993L205.3734905,14.159999999999993L205.4503695,17.699999999999996L205.54701200000002,17.699999999999996L206.0885,17.699999999999996L206.1012745,14.159999999999993L206.125765,14.159999999999993L206.6186055,14.159999999999993L206.77587250000002,14.159999999999993L206.8601175,14.159999999999993L207.09220449999998,14.159999999999993L207.372243,14.159999999999993L207.38388650000002,14.159999999999993L207.763946,14.159999999999993L208.416446,14.159999999999993L208.5126825,14.159999999999993L208.634352,14.159999999999993L208.8005945,14.159999999999993L209.0234015,14.159999999999993L209.06709,14.159999999999993L209.0900145,14.159999999999993L209.3318165,14.159999999999993L209.87758200000002,14.159999999999993L209.97847299999998,14.159999999999993L210.085657,14.159999999999993L210.5173365,14.159999999999993L210.6293635,17.699999999999996L211.23897250000002,14.159999999999993L211.31377799999999,14.159999999999993L211.43517200000002,17.699999999999996L211.453529,14.159999999999993L211.94850100000002,14.159999999999993L211.996931,14.159999999999993L212.097706,17.699999999999996L212.830275,17.699999999999996L213.16331100000002,14.159999999999993L213.826048,14.159999999999993L214.44811249999998,31.86000000000001L214.60493000000002,17.699999999999996L214.88612849999998,14.159999999999993L215.241596,14.159999999999993L215.409477,14.159999999999993L215.4968105,14.159999999999993L215.5074535,14.159999999999993L215.7351325,14.159999999999993L215.81743450000002,14.159999999999993L215.8673,14.159999999999993L215.91413500000002,14.159999999999993L215.9397275,14.159999999999993L216.19444900000002,14.159999999999993L216.6189655,17.699999999999996L216.66661249999999,14.159999999999993L216.6881015,14.159999999999993L217.37699650000002,17.699999999999996L217.51784949999998,17.699999999999996L217.8825245,14.159999999999993L218.31764049999998,14.159999999999993L218.4609875,14.159999999999993L218.50827199999998,14.159999999999993L218.600753,14.159999999999993L218.747899,14.159999999999993L218.8046375,14.159999999999993L218.845049,17.699999999999996L219.1824205,14.159999999999993L219.272596,14.159999999999993L219.6296005,14.159999999999993L219.872548,14.159999999999993L220.15354349999998,14.159999999999993L220.17178449999997,14.159999999999993L220.234004,14.159999999999993L220.5078655,17.699999999999996L220.8125105,14.159999999999993L221.045772,14.159999999999993L221.1292485,17.699999999999996L221.41576849999998,14.159999999999993L221.5371045,14.159999999999993L221.640678,14.159999999999993L221.8361525,14.159999999999993L222.2439215,14.159999999999993L222.701817,14.159999999999993L223.0056355,17.699999999999996L223.2496705,14.159999999999993L223.46664850000002,14.159999999999993L223.760491,17.699999999999996L223.8001195,17.699999999999996L223.8820155,14.159999999999993L223.96373749999998,14.159999999999993L224.2574785,14.159999999999993L224.69697349999998,14.159999999999993L224.8975665,14.159999999999993L225.0377815,14.159999999999993L226.088321,17.699999999999996L226.1660845,14.159999999999993L226.3295865,14.159999999999993L226.82713950000002,14.159999999999993L227.22313450000001,14.159999999999993L227.320212,14.159999999999993L227.34544200000002,21.24L228.3137665,14.159999999999993L228.4922615,14.159999999999993L228.57956599999997,14.159999999999993L228.7722275,14.159999999999993L229.3631895,14.159999999999993L229.779789,14.159999999999993L229.9924025,17.699999999999996L229.99797049999998,14.159999999999993L230.254606,17.699999999999996L230.5615275,17.699999999999996L230.72117250000002,17.699999999999996L230.733947,14.159999999999993L231.070231,14.159999999999993L231.2240905,14.159999999999993L231.3197615,14.159999999999993L231.6898885,17.699999999999996L231.9755385,14.159999999999993L232.024273,14.159999999999993L232.120611,17.699999999999996L232.25604099999998,14.159999999999993L232.3341815,14.159999999999993L232.41035,14.159999999999993L233.279741,14.159999999999993L233.3066965,14.159999999999993L233.31153949999998,14.159999999999993L233.8105715,14.159999999999993L234.4140905,14.159999999999993L234.4206155,14.159999999999993L234.7220995,14.159999999999993L234.7593645,14.159999999999993L234.841014,14.159999999999993L234.922649,14.159999999999993L235.502214,14.159999999999993L235.584864,14.159999999999993L235.64042799999999,14.159999999999993L235.8193145,14.159999999999993L235.8994415,14.159999999999993L236.1197255,14.159999999999993L236.2165275,14.159999999999993L236.277645,14.159999999999993L236.35662649999998,17.699999999999996L236.57535900000002,14.159999999999993L236.6981305,14.159999999999993L236.90192800000003,14.159999999999993L237.1603035,14.159999999999993L237.4986175,17.699999999999996L237.62330300000002,14.159999999999993L237.90277600000002,14.159999999999993L237.9294125,14.159999999999993L238.6784245,17.699999999999996L239.3965225,14.159999999999993L239.740941,17.699999999999996L240.1605855,14.159999999999993L240.65056950000002,14.159999999999993L240.7335965,14.159999999999993L240.75829,17.699999999999996L240.870839,17.699999999999996L241.62030049999998,14.159999999999993L242.1315125,31.86000000000001L242.2327225,14.159999999999993L242.357234,14.159999999999993L242.951357,24.78L244.059476,14.159999999999993L244.6316025,14.159999999999993L244.63277699999998,14.159999999999993L244.68183050000002,14.159999999999993L244.775486,14.159999999999993L244.8583825,14.159999999999993L244.9741505,14.159999999999993L245.12513900000002,14.159999999999993L245.3838625,14.159999999999993L245.6114255,24.78L245.9172595,17.699999999999996L246.29086650000002,14.159999999999993L246.63962049999998,14.159999999999993L246.8154185,14.159999999999993L247.367303,14.159999999999993L247.37394400000002,14.159999999999993L247.41312299999998,14.159999999999993L247.8440485,14.159999999999993L247.992253,14.159999999999993L248.233417,14.159999999999993L248.29225799999998,14.159999999999993L248.73091200000002,14.159999999999993L248.8559745,14.159999999999993L248.93579699999998,14.159999999999993L249.0292495,14.159999999999993L249.27126900000002,17.699999999999996L249.5436515,14.159999999999993L249.61837,14.159999999999993L249.749131,14.159999999999993L250.1322065,14.159999999999993L250.2608795,14.159999999999993L251.17191449999999,14.159999999999993L251.2599585,14.159999999999993L251.27224,14.159999999999993L251.344595,14.159999999999993L251.3684765,14.159999999999993L251.473007,17.699999999999996L251.54446299999998,14.159999999999993L251.6313325,14.159999999999993L251.76748750000002,14.159999999999993L251.856967,14.159999999999993L252.0794695,14.159999999999993L252.6377485,17.699999999999996L252.88609000000002,17.699999999999996L253.713663,14.159999999999993L253.842626,17.699999999999996L254.18700099999998,14.159999999999993L254.269883,17.699999999999996L254.31061350000002,14.159999999999993L254.5670315,14.159999999999993L254.6511895,14.159999999999993L254.998653,14.159999999999993L255.21918349999999,14.159999999999993L255.4635955,14.159999999999993L255.633521,14.159999999999993L255.69062200000002,14.159999999999993L255.7863945,14.159999999999993L255.8548635,14.159999999999993L255.95256450000002,14.159999999999993L256.030212,14.159999999999993L256.0383465,14.159999999999993L256.5158895,17.699999999999996L256.75208000000003,17.699999999999996L256.814778,14.159999999999993L256.8156335,14.159999999999993L256.8294375,28.320000000000004L256.9271675,17.699999999999996L257.13293699999997,17.699999999999996L257.1460305,14.159999999999993L257.265583,14.159999999999993L257.607928,14.159999999999993L257.627967,14.159999999999993L258.1108025,14.159999999999993L258.5588815,17.699999999999996L258.783936,14.159999999999993L258.9666505,14.159999999999993L259.410104,14.159999999999993L259.4822995,14.159999999999993L259.900291,14.159999999999993L260.546005,17.699999999999996L260.97200050000004,14.159999999999993L261.21232349999997,14.159999999999993L261.308386,14.159999999999993L261.3372845,17.699999999999996L261.3487975,14.159999999999993L261.49266650000004,14.159999999999993L261.650934,14.159999999999993L261.6745545,14.159999999999993L261.744401,14.159999999999993L261.8317055,14.159999999999993L262.006619,14.159999999999993L262.106582,14.159999999999993L262.379994,17.699999999999996L262.5079275,17.699999999999996L262.534361,14.159999999999993L262.55764800000003,14.159999999999993L263.19406749999996,14.159999999999993L264.11017749999996,14.159999999999993" style="fill: none;" fill="none"></path></g></g></g></g></g></g><g transform="translate(40, 177)" clip-path="url(#clip_1)"><clipPath id="clip_1"><rect width="290" height="23"></rect></clipPath><g><g><line x1="0" y1="0" x2="0" y2="5" style="visibility: inherit;" fill="rgb(0, 0, 0)" stroke="rgb(204, 204, 204)" stroke-width="1px"></line><line x1="29" y1="0" x2="29" y2="5" style="visibility: inherit;" fill="rgb(0, 0, 0)" stroke="rgb(204, 204, 204)" stroke-width="1px"></line><line x1="58" y1="0" x2="58" y2="5" style="visibility: inherit;" fill="rgb(0, 0, 0)" stroke="rgb(204, 204, 204)" stroke-width="1px"></line><line x1="87" y1="0" x2="87" y2="5" style="visibility: inherit;" fill="rgb(0, 0, 0)" stroke="rgb(204, 204, 204)" stroke-width="1px"></line><line x1="116" y1="0" x2="116" y2="5" style="visibility: inherit;" fill="rgb(0, 0, 0)" stroke="rgb(204, 204, 204)" stroke-width="1px"></line><line x1="145" y1="0" x2="145" y2="5" style="visibility: inherit;" fill="rgb(0, 0, 0)" stroke="rgb(204, 204, 204)" stroke-width="1px"></line><line x1="174" y1="0" x2="174" y2="5" style="visibility: inherit;" fill="rgb(0, 0, 0)" stroke="rgb(204, 204, 204)" stroke-width="1px"></line><line x1="203" y1="0" x2="203" y2="5" style="visibility: inherit;" fill="rgb(0, 0, 0)" stroke="rgb(204, 204, 204)" stroke-width="1px"></line><line x1="232" y1="0" x2="232" y2="5" style="visibility: inherit;" fill="rgb(0, 0, 0)" stroke="rgb(204, 204, 204)" stroke-width="1px"></line><line x1="261" y1="0" x2="261" y2="5" style="visibility: inherit;" fill="rgb(0, 0, 0)" stroke="rgb(204, 204, 204)" stroke-width="1px"></line><line x1="290" y1="0" x2="290" y2="5" style="visibility: inherit;" fill="rgb(0, 0, 0)" stroke="rgb(204, 204, 204)" stroke-width="1px"></line></g><g transform="translate(0, 8)"><text x="0" y="0" dx="0em" dy="0.95em" style="text-anchor: middle; visibility: hidden; font-family: Roboto, sans-serif; font-size: 12px; font-weight: 200;" fill="rgb(33, 33, 33)" stroke="none" stroke-width="1px">-2M</text><text x="29" y="0" dx="0em" dy="0.95em" style="text-anchor: middle; visibility: inherit; font-family: Roboto, sans-serif; font-size: 12px; font-weight: 200;" fill="rgb(33, 33, 33)" stroke="none" stroke-width="1px">0</text><text x="58" y="0" dx="0em" dy="0.95em" style="text-anchor: middle; visibility: inherit; font-family: Roboto, sans-serif; font-size: 12px; font-weight: 200;" fill="rgb(33, 33, 33)" stroke="none" stroke-width="1px">2M</text><text x="87" y="0" dx="0em" dy="0.95em" style="text-anchor: middle; visibility: inherit; font-family: Roboto, sans-serif; font-size: 12px; font-weight: 200;" fill="rgb(33, 33, 33)" stroke="none" stroke-width="1px">4M</text><text x="116" y="0" dx="0em" dy="0.95em" style="text-anchor: middle; visibility: inherit; font-family: Roboto, sans-serif; font-size: 12px; font-weight: 200;" fill="rgb(33, 33, 33)" stroke="none" stroke-width="1px">6M</text><text x="145" y="0" dx="0em" dy="0.95em" style="text-anchor: middle; visibility: inherit; font-family: Roboto, sans-serif; font-size: 12px; font-weight: 200;" fill="rgb(33, 33, 33)" stroke="none" stroke-width="1px">8M</text><text x="174" y="0" dx="0em" dy="0.95em" style="text-anchor: middle; visibility: inherit; font-family: Roboto, sans-serif; font-size: 12px; font-weight: 200;" fill="rgb(33, 33, 33)" stroke="none" stroke-width="1px">10M</text><text x="203" y="0" dx="0em" dy="0.95em" style="text-anchor: middle; visibility: inherit; font-family: Roboto, sans-serif; font-size: 12px; font-weight: 200;" fill="rgb(33, 33, 33)" stroke="none" stroke-width="1px">12M</text><text x="232" y="0" dx="0em" dy="0.95em" style="text-anchor: middle; visibility: inherit; font-family: Roboto, sans-serif; font-size: 12px; font-weight: 200;" fill="rgb(33, 33, 33)" stroke="none" stroke-width="1px">14M</text><text x="261" y="0" dx="0em" dy="0.95em" style="text-anchor: middle; visibility: inherit; font-family: Roboto, sans-serif; font-size: 12px; font-weight: 200;" fill="rgb(33, 33, 33)" stroke="none" stroke-width="1px">16M</text><text x="290" y="0" dx="0em" dy="0.95em" style="text-anchor: middle; visibility: hidden; font-family: Roboto, sans-serif; font-size: 12px; font-weight: 200;" fill="rgb(33, 33, 33)" stroke="none" stroke-width="1px">18M</text></g><line x1="0" y1="0" x2="290" y2="0" fill="rgb(0, 0, 0)" stroke="rgb(204, 204, 204)" stroke-width="1px"></line></g></g></g></g></svg>